<svg xmlns="http://www.w3.org/2000/svg" width="547" height="291" fill="none"><mask id="a" width="547" height="291" x="0" y="0" maskUnits="userSpaceOnUse" style="mask-type:alpha"><path fill="#D9D9D9" d="M.531.53h545.633v290.013H.531z"/></mask><g mask="url(#a)"><path fill="#8FDDE5" d="M280.638 179.656c1.366-5.872-2.29-11.738-8.166-13.103-5.876-1.365-11.746 2.289-13.112 8.16-1.366 5.872 2.29 11.739 8.166 13.104 5.876 1.364 11.746-2.289 13.112-8.161ZM291.413 133.203a5.303 5.303 0 0 1-5.318 5.314c-2.874 0-5.318-2.298-5.318-5.314 0-2.872 2.3-5.314 5.318-5.314 3.019 0 5.318 2.298 5.318 5.314ZM311.778 81.454c4.659-4.655 4.659-12.203 0-16.858-4.658-4.656-12.211-4.656-16.87 0-4.659 4.655-4.659 12.203 0 16.858 4.659 4.656 12.212 4.656 16.87 0ZM238.036 314.638c4.715-4.712 4.715-12.35 0-17.062-4.714-4.711-12.359-4.711-17.073 0-4.715 4.712-4.715 12.35 0 17.062 4.714 4.711 12.359 4.711 17.073 0ZM455.265 66.992a7.727 7.727 0 0 1-7.762 7.755 7.727 7.727 0 0 1-7.761-7.755 7.727 7.727 0 0 1 7.761-7.756 7.727 7.727 0 0 1 7.762 7.756Z"/><path fill="#820032" d="M369.278 307.71c-.718 2.872-2.587 5.314-4.599 7.468a191.508 191.508 0 0 1-12.791 13.645c1.724-1.006 3.593-2.155 5.605-2.442 3.162-.431 7.042 1.436 5.605 6.176-.431 1.293-1.15 2.298-2.012 3.303-7.474 7.756-15.666 14.794-24.29 21.257-.718.575-1.725.862-2.587.862h-.431a4.462 4.462 0 0 1-2.587-1.293c-.575-.574-.863-1.149-1.15-1.867-3.449-9.336-8.049-23.986-6.755-31.741.144-1.006.431-2.298 1.293-3.017 1.581-1.436 4.168-.143 5.462 1.437 1.437 1.58 2.3 3.734 4.168 4.596-1.15-5.027-1.293-10.198-.575-15.225.431-3.159 1.437-6.606 4.168-8.474 2.731-1.867 7.33-.718 7.762 2.442-.144-9.91 4.599-19.677 12.504-25.565a6.307 6.307 0 0 1 3.88-1.293c2.731.287 3.594 2.585 3.881 4.883 1.15 7.038-.862 14.363-5.174 19.964 3.449-3.447 9.773 0 8.623 4.884Z"/><path fill="#A01F53" d="M362.528 294.209c-1.15.575-2.3 1.293-3.593 1.867l-1.725.862c-.431.144-.719.431-1.15.575-.718 2.011-1.581 3.878-2.299 5.888-2.013 5.027-4.025 9.911-6.037 14.938 3.593-2.011 6.899-4.884 10.492-7.038.719-.431 1.581 0 1.869.718.287.718 0 1.436-.719 1.867-4.456 2.729-8.336 6.32-13.223 8.33-2.587 6.32-5.03 12.64-7.186 18.959 2.587-1.149 5.03-2.585 7.617-3.734.719-.287 1.581 0 1.869.718.287.718 0 1.58-.719 1.867-3.306 1.58-6.468 3.447-9.917 4.596a234.283 234.283 0 0 0-3.881 13.357 4.458 4.458 0 0 1-2.587-1.292 220.955 220.955 0 0 1 3.881-12.927v-.143c-1.294-3.447-3.45-6.607-5.174-9.91-.288-.719 0-1.58.718-1.868.719-.287 1.581 0 1.869.719 1.15 2.441 2.731 4.739 3.88 7.181a466.28 466.28 0 0 1 6.899-18.097s0-.144-.143-.144c-1.007-3.878-2.3-7.755-3.306-11.777-.431-1.724 2.3-2.298 2.731-.575.718 2.729 1.581 5.458 2.299 8.187 2.875-7.038 5.749-13.932 8.48-20.969-.287-.575-.575-1.293-.718-1.867-.432-1.293-.863-2.442-1.294-3.735-.287-.718-.144-1.58.719-1.867.575-.287 1.581 0 1.868.718.288 1.006.719 1.867 1.006 2.873.719-2.011 1.581-4.165 2.3-6.176.575-1.724 3.306-.718 2.731 1.005-.719 2.011-1.581 4.165-2.3 6.176 1.15-.718 2.443-1.292 3.593-2.011.719-.43 1.581 0 1.869.719.287.718 0 1.579-.719 2.01Z"/><path fill="#75C97B" d="M127.676 325.088c.431-.431.719-.862 1.006-1.293.431-.718.575-1.436.719-2.154.431-4.022-3.737-8.043-5.462-11.347-2.731-5.457-4.599-11.202-5.318-17.235-.575-4.452-1.581-10.054-5.893-11.059-4.455-1.005-7.617 3.878-9.629 7.899 1.149-11.346 1.149-22.836-.144-34.326-.431-3.447-.862-6.894-2.875-9.623-2.73-3.734-8.192-5.027-12.36-3.16-3.593 1.724-5.893 5.602-5.75 9.479-1.005-8.043-2.155-16.086-5.317-23.411-2.3-5.314-6.468-10.628-12.36-11.059-4.744-.431-9.2 2.585-12.218 6.32-5.461 6.75-7.473 16.086-6.036 24.703 1.294 8.618 5.75 16.517 11.498 23.124-6.18-.862-11.498 5.458-11.642 11.634 0 6.176 3.737 11.777 8.193 16.086 9.486 9.049 22.565 14.219 35.788 13.788-3.45.431-4.887 5.314-3.162 8.331 1.725 3.016 5.174 4.739 8.48 5.601 6.755 2.154 26.158 4.596 32.482-2.298Z"/><path fill="#66B06C" d="M127.679 325.088c.431-.431.719-.862 1.006-1.293.431-.718.575-1.436.719-2.154a138.045 138.045 0 0 1-12.217-8.043c-.575-3.016-1.006-6.176-1.581-9.192-.144-1.006-1.294-1.58-2.3-1.436-1.006.143-1.581 1.292-1.437 2.298.287 1.58.575 3.303.862 5.027-8.623-6.751-16.528-14.507-23.427-22.837 1.006-6.032 1.868-12.065 2.874-17.953.144-1.006-.862-1.867-1.868-2.011-1.15 0-1.868.862-2.012 1.867l-2.156 14.219c-6.324-8.043-11.786-16.661-16.385-25.709 2.587-2.729 4.024-6.32 4.168-10.054.144-2.441-3.737-2.585-3.737-.143-.144 2.298-.862 4.596-2.3 6.463-1.868-3.878-3.449-7.756-5.03-11.634-.862-2.298-4.6-1.436-3.737.862 1.294 3.303 2.587 6.607 4.168 9.91-1.868-.862-3.737-1.867-5.605-2.729-1.006-.431-2.012-.287-2.587.575-.431.861-.288 2.154.575 2.585 3.45 1.58 6.755 3.303 10.204 4.883 1.438 2.729 2.731 5.458 4.312 8.187a184 184 0 0 0 13.367 19.82c-3.88.718-7.618 1.293-11.498 1.724-1.007.143-1.869.718-2.013 1.867 0 .862.863 2.011 1.869 2.011a119.45 119.45 0 0 0 14.373-2.155c7.186 8.474 15.091 16.374 23.858 23.268-2.156.287-4.455.431-6.755.287-1.006 0-1.868.862-2.012 1.867 0 1.005.862 2.011 1.868 2.011 3.737.143 7.33-.144 11.067-.862 4.168 2.729 8.768 5.745 13.367 8.474Z"/><path fill="#75C97B" d="M318.395 168.535c.431.144 1.006.431 1.581.431.863.144 1.581.144 2.3 0 3.881-1.005 6.18-6.32 8.767-9.048 4.168-4.453 9.055-8.187 14.373-10.916 3.881-2.154 8.911-4.883 8.336-9.336-.575-4.452-6.324-5.888-10.779-6.176 11.067-2.872 21.846-6.894 32.194-11.921 3.019-1.436 6.181-3.159 8.049-6.032 2.587-3.878 1.869-9.479-1.293-12.783-2.875-2.729-7.33-3.59-10.924-2.154 7.187-3.734 14.373-7.612 20.122-13.07 4.168-4.022 7.761-9.767 6.18-15.368-1.293-4.596-5.605-7.756-10.204-9.336-8.193-2.872-17.679-1.436-25.296 2.873-7.618 4.165-13.654 11.059-17.679 18.815-1.293-6.032-9.054-8.905-14.947-6.894-5.893 2.154-9.774 7.612-12.361 13.213-5.318 12.065-5.461 26.14-.575 38.349-1.724-3.017-6.611-2.729-9.054-.144-2.3 2.585-2.588 6.463-2.3 9.91.431 7.038 4.887 25.996 13.51 29.587Z"/><path fill="#66B06C" d="M318.397 168.535c.432.144 1.007.431 1.581.431.863.143 1.581.143 2.3 0 .862-4.74 2.012-9.623 3.45-14.219 2.73-1.58 5.317-3.016 8.048-4.596.863-.575 1.006-1.724.575-2.585-.575-.862-1.725-1.006-2.587-.575-1.437.862-2.874 1.724-4.312 2.442 3.45-10.341 7.905-20.395 13.367-29.875 6.036-1.149 11.929-2.441 17.966-3.59 1.006-.144 1.437-1.58 1.15-2.442-.288-1.005-1.438-1.436-2.444-1.149-4.743 1.005-9.342 1.867-14.085 2.873 5.318-8.618 11.498-16.805 18.541-24.273 3.449 1.436 7.33 1.58 10.923.43 2.3-.717 1.15-4.308-1.15-3.59-2.299.718-4.599.718-6.899.144 3.019-3.016 6.037-5.889 9.199-8.618 1.868-1.58-.288-4.74-2.156-3.16-2.731 2.298-5.318 4.74-7.905 7.325.144-2.01.431-4.165.575-6.176.144-1.005-.431-2.01-1.437-2.298-.863-.143-2.156.431-2.3 1.437-.287 3.734-.719 7.468-1.006 11.202-2.156 2.298-4.168 4.453-6.18 6.894-5.175 6.176-9.774 12.64-13.942 19.39-2.012-3.303-3.881-6.75-5.605-10.197-.431-.862-1.294-1.58-2.444-1.149-.862.287-1.581 1.436-1.149 2.441a137.331 137.331 0 0 0 7.042 12.783c-5.605 9.623-10.061 19.82-13.51 30.449-1.006-2.011-1.869-4.022-2.587-6.176-.288-1.006-1.438-1.58-2.444-1.149a1.811 1.811 0 0 0-1.149 2.441c1.149 3.447 2.73 6.894 4.743 10.054-2.013 4.596-3.162 9.767-4.169 15.081ZM171.37 205.303a2.947 2.947 0 0 1-1.581 0c-.862 0-1.581-.287-2.156-.574-3.593-1.868-4.455-7.613-6.324-10.916-3.018-5.314-6.755-10.054-11.211-14.075-3.305-3.016-7.473-7.038-5.749-11.06 1.725-4.165 7.474-4.165 11.93-3.447-10.061-5.457-19.547-11.921-28.314-19.389-2.588-2.155-5.175-4.596-6.324-7.756-1.581-4.309.431-9.623 4.455-12.065 3.45-2.01 7.905-1.723 11.211.575-6.037-5.314-12.073-10.772-16.385-17.666-3.018-4.883-5.031-11.347-2.3-16.373 2.3-4.166 7.33-6.176 12.073-6.607 8.624-.718 17.391 2.872 23.859 8.905 6.324 5.888 10.492 14.075 12.648 22.549 2.731-5.602 11.067-6.463 16.241-3.016 5.174 3.447 7.618 9.766 8.768 15.799 2.155 12.926-1.007 26.714-8.624 37.342 2.3-2.585 7.186-1.005 8.767 2.011 1.581 3.16 1.006 6.894-.143 10.198-2.731 6.894-11.642 24.129-20.841 25.565Z"/><path fill="#75C97B" d="M171.369 205.303a2.947 2.947 0 0 1-1.581 0c-.862 0-1.581-.287-2.155-.574.287-4.884.287-9.767.143-14.65-2.299-2.155-4.455-4.309-6.755-6.463-.719-.718-.575-2.011.144-2.729.718-.718 2.012-.575 2.731.143 1.149 1.149 2.443 2.298 3.593 3.447-.719-10.915-2.731-21.687-5.749-32.316-5.462-2.585-10.924-5.17-16.529-7.755-.862-.431-1.15-1.867-.575-2.586.575-1.005 1.725-1.005 2.587-.574 4.312 2.011 8.624 4.165 12.936 6.176a161.475 161.475 0 0 0-12.073-28.007 15.87 15.87 0 0 1-10.78-2.155c-2.012-1.292 0-4.452 2.012-3.159a10.916 10.916 0 0 0 6.612 1.723c-2.156-3.591-4.456-7.181-6.899-10.628-1.437-2.011 1.437-4.596 2.731-2.586 2.012 2.873 4.024 5.889 5.892 9.049.288-2.011.575-4.165 1.007-6.176.143-1.005.862-1.867 2.012-1.867 1.006 0 2.012 1.005 1.868 2.011l-1.725 11.202a112.037 112.037 0 0 1 4.312 8.187c3.45 7.181 6.468 14.65 8.768 22.262 2.73-2.729 5.461-5.601 7.905-8.617.718-.862 1.724-1.149 2.587-.575.718.431 1.293 1.867.575 2.585-3.162 3.735-6.468 7.325-9.918 10.629 3.019 10.628 5.031 21.687 5.75 32.747 1.437-1.724 2.874-3.448 4.024-5.458.575-.862 1.725-1.149 2.587-.575.862.575 1.15 1.724.575 2.585a50.41 50.41 0 0 1-6.899 8.618c.575 5.314.575 10.772.287 16.086Z"/><path fill="#66B06C" d="M389.683 339.882c.432.287.863.575 1.438.718a5.772 5.772 0 0 0 2.156.431c4.024-.144 7.33-5.027 10.348-7.181a52.031 52.031 0 0 1 16.241-8.043c4.312-1.293 9.773-3.16 9.917-7.613.288-4.452-5.03-6.894-9.342-8.186a168.986 168.986 0 0 0 33.92-5.602c3.305-.861 6.611-2.01 9.054-4.452 3.162-3.304 3.737-8.905 1.15-12.783-2.156-3.303-6.468-4.883-10.348-4.165 7.761-2.154 15.522-4.596 22.277-9.048 4.887-3.16 9.486-8.187 9.055-13.932-.287-4.74-4.024-8.618-8.192-11.059-7.618-4.309-17.104-4.74-25.296-2.011-8.336 2.729-15.523 8.33-20.984 15.081-.144-6.176-7.187-10.485-13.367-9.623-6.18.861-11.067 5.601-14.66 10.628-7.474 10.772-10.348 24.56-7.905 37.486-1.006-3.303-6.037-4.021-8.767-1.867-2.731 2.155-3.737 5.889-4.168 9.336-1.15 7.325-.432 26.714 7.473 31.885Z"/><path fill="#75C97B" d="M389.682 339.882c.431.287.862.575 1.437.718a5.757 5.757 0 0 0 2.156.431 188.206 188.206 0 0 1 6.036-13.357c2.875-1.005 5.893-2.011 8.768-3.016 1.006-.287 1.293-1.58 1.006-2.442-.431-1.005-1.581-1.292-2.444-1.005-1.581.574-3.162 1.005-4.743 1.58 5.318-9.623 11.642-18.528 18.829-26.858 6.036 0 12.216 0 18.253-.144 1.006 0 1.725-1.149 1.581-2.154-.144-1.149-1.15-1.724-2.156-1.58-4.743 0-9.63 0-14.373.143a153.643 153.643 0 0 1 22.853-20.251c3.162 2.154 6.899 3.016 10.636 2.585 2.443-.287 2.012-4.021-.431-3.734-2.3.287-4.743-.144-6.756-1.149 3.45-2.442 7.043-4.596 10.78-6.75 2.156-1.149.719-4.74-1.437-3.448-3.162 1.724-6.181 3.735-9.199 5.602l1.725-6.032c.287-1.006 0-2.011-1.006-2.442-.863-.431-2.156 0-2.444 1.005-1.006 3.591-2.155 7.182-3.162 10.916-2.443 1.723-5.03 3.591-7.33 5.601-6.18 5.027-12.073 10.485-17.391 16.374-1.293-3.591-2.587-7.325-3.593-11.059-.287-1.006-1.006-1.724-2.156-1.58-.862.143-1.868 1.149-1.581 2.154 1.294 4.74 2.731 9.336 4.456 13.788-7.33 8.33-13.654 17.523-19.116 27.289-.575-2.154-1.15-4.309-1.437-6.607-.144-1.005-1.15-1.723-2.156-1.58-1.006.144-1.725 1.149-1.581 2.155.431 3.59 1.437 7.325 2.731 10.772-2.587 4.165-4.887 9.048-6.755 14.075Z"/><path fill="#EF4545" d="M407.219 120.134c-2.156-3.017-5.605-4.884-9.198-4.884-3.737-.143-7.187 1.436-9.486 4.309-14.948 18.241-49.73 60.61-64.103 77.845-2.299 2.873-3.162 6.464-2.443 10.054.719 3.591 3.162 6.607 6.468 8.187 8.336 4.021 21.271 8.617 36.075 7.325 9.63-.862 18.685-3.878 27.021-9.336 6.899-4.452 13.51-10.341 19.547-17.953 23.14-28.438 7.474-59.605-3.881-75.547Z"/><path fill="#FF9292" d="M389.68 124.155c-14.229 17.235-46.998 57.163-60.94 74.111-3.593 4.309-2.156 10.772 2.875 13.214 15.378 7.468 47.286 16.517 75.456-18.097 21.128-25.997 6.181-54.722-3.88-68.654-3.162-4.739-9.917-5.027-13.511-.574Z"/><path fill="#EF4545" d="m386.524 142.971-42.543 48.832c-3.593 4.166-1.725 10.485 3.593 11.634 12.361 2.729 32.482 4.022 46.28-11.634 13.798-15.655 9.63-35.332 5.031-47.109-1.869-5.027-8.624-5.889-12.361-1.723Z"/><path fill="#FF9292" d="M378.043 193.527c-3.45-5.602-10.492-16.517-10.492-13.07.144 4.452 2.587 11.777 4.312 16.086.718 2.011 3.018 2.729 4.886 1.867 1.869-1.005 2.444-3.16 1.294-4.883ZM396.011 163.078c-6.612 1.005-19.404 3.303-16.098 4.452 4.168 1.58 11.93 2.155 16.529 2.298 2.012.144 3.737-1.723 3.593-3.734-.287-1.867-2.012-3.303-4.024-3.016ZM389.686 147.279c-5.031 4.452-14.517 13.214-11.211 12.496 4.455-.862 11.211-4.597 15.235-6.895 1.868-1.005 2.3-3.447 1.006-5.026-1.294-1.724-3.593-1.868-5.03-.575ZM390.973 182.611c-5.461-3.734-16.385-10.628-14.947-7.612 2.012 4.022 7.33 9.623 10.492 12.927 1.437 1.436 3.88 1.292 5.174-.288 1.293-1.723.862-4.021-.719-5.027ZM358.925 198.985c.718-6.607 2.155-19.533 0-16.661-2.731 3.591-5.318 10.772-6.756 15.225-.718 2.01.575 4.021 2.587 4.452 2.156.287 4.025-1.005 4.169-3.016Z"/><path fill="#EF4545" d="M187.603 300.241c3.162-1.149 5.606-3.591 6.612-6.751 1.006-3.159.431-6.606-1.438-9.335-12.216-17.379-40.243-57.882-51.741-74.399-1.869-2.729-4.887-4.309-8.049-4.596-3.306-.143-6.468 1.149-8.624 3.591-5.605 6.176-12.648 16.373-15.235 29.443-1.581 8.474-1.15 17.092 1.437 25.709 2.156 7.038 5.75 14.219 10.636 21.257 19.116 27.002 49.874 21.113 66.402 15.081Z"/><path fill="#FF9292" d="M188.462 284.155c-11.498-16.517-38.087-54.578-49.154-70.808-2.875-4.165-8.768-4.452-12.073-.718-10.205 11.49-25.871 36.912-2.731 69.659 17.391 24.704 45.849 18.671 60.365 13.501 4.743-1.724 6.612-7.469 3.593-11.634Z"/><path fill="#EF4545" d="m172.944 276.83-31.907-48.689c-2.731-4.166-8.624-4.022-10.924.287-5.461 9.91-11.498 27.002-1.293 42.944 10.204 15.799 28.314 16.948 39.525 15.799 4.886-.574 7.33-6.176 4.599-10.341Z"/><path fill="#FF9292" d="M131.265 257.153c5.75-1.723 16.817-5.026 13.942-5.745-3.881-1.005-10.78-.574-14.948-.287a3.02 3.02 0 0 0-2.73 3.734c.287 1.724 2.012 2.873 3.736 2.298ZM153.254 279.989c.719-5.888 1.869-17.522 0-15.08-2.443 3.303-4.743 9.766-6.036 13.644-.575 1.724.575 3.591 2.3 4.022 1.724.431 3.449-.718 3.736-2.586ZM168.493 278.553c-2.587-5.314-7.905-15.799-8.048-12.639-.288 4.022 1.293 10.772 2.299 14.794.431 1.867 2.444 2.729 4.168 2.154 1.581-.862 2.444-2.729 1.581-4.309ZM137.586 270.942c4.599-3.878 13.223-11.634 10.204-11.06-4.024.718-10.06 3.878-13.797 6.033-1.581.861-2.013 3.016-1.006 4.596 1.149 1.292 3.305 1.58 4.599.431ZM131.264 239.343c5.462 2.298 16.385 6.607 14.517 4.165-2.444-3.159-8.049-7.181-11.498-9.623a3.135 3.135 0 0 0-4.456 1.149c-1.006 1.58-.287 3.591 1.437 4.309Z"/><path fill="#EF4545" d="M452.08 9.11a8.742 8.742 0 0 0-7.186-2.011c-2.587.43-4.743 2.154-5.893 4.452-7.617 14.937-25.296 49.264-32.626 63.34-1.15 2.297-1.293 4.883-.144 7.324 1.006 2.298 3.162 4.022 5.606 4.74 6.324 1.58 15.953 2.729 26.014-.287 6.468-2.011 12.361-5.458 17.248-10.485 4.168-4.165 7.761-9.192 10.779-15.225 11.929-23.554-3.593-42.656-13.798-51.849Z"/><path fill="#FF9292" d="M440.58 14.424c-7.186 14.075-23.858 46.535-31.045 60.18-1.724 3.446.144 7.755 4.025 8.617 11.785 2.872 35.213 4.309 49.442-23.842 10.636-21.113-3.881-38.636-12.936-46.822-3.018-2.586-7.761-1.724-9.486 1.867Z"/><path fill="#EF4545" d="m441.301 27.78-22.134 40.073c-1.869 3.447.431 7.468 4.168 7.468 8.911.144 22.996-2.01 30.326-14.937 7.187-12.926 1.294-25.853-3.593-33.321-2.156-3.016-6.899-2.73-8.767.718Z"/><path fill="#FF9292" d="M442.881 63.975c-3.306-3.303-9.773-9.767-9.199-7.468.719 3.016 3.594 7.755 5.318 10.484.863 1.293 2.444 1.436 3.593.575 1.294-.862 1.294-2.585.288-3.59ZM450.783 40.42c-4.311 1.724-12.935 5.17-10.492 5.458 3.162.43 8.48-.288 11.786-.862 1.437-.287 2.3-1.724 1.868-3.16-.431-1.292-1.868-2.01-3.162-1.436ZM444.034 30.367c-2.731 3.734-8.049 11.202-5.893 10.34 2.874-1.292 7.042-4.883 9.486-7.037 1.15-1.005 1.006-2.729-.144-3.59-1.006-1.006-2.587-.862-3.449.287ZM450.214 54.495c-4.311-1.723-12.935-4.883-11.498-3.016 2.012 2.442 6.468 5.602 9.199 7.325 1.293.862 2.874.288 3.449-1.005.719-1.15.144-2.729-1.15-3.303ZM430.518 70.725c-.431-4.596-1.437-13.788-2.443-11.49-1.294 2.873-2.013 8.33-2.444 11.49-.143 1.437 1.006 2.73 2.444 2.73 1.581-.144 2.587-1.437 2.443-2.73Z"/><path fill="#889920" d="M126.38 195.537c5.606.144 10.78-4.309 12.505-9.623 1.724-5.314.718-11.346-1.581-16.373-5.031-11.347-24.434-23.124-31.764-7.038-5.031 11.203 8.623 32.603 20.84 33.034Z"/><path fill="#EF4545" d="M114.162 160.204c-1.006.431-1.725 1.149-2.443 1.868l-1.438 1.436c-1.006.862-2.299 2.011-2.012 3.447.144 1.005 1.15 1.723 2.156 1.867 1.006.144 2.012-.287 3.018-.862 1.725-1.005 3.019-2.585 3.594-4.452.287-.862.431-1.867 0-2.729-.575-.718-1.869-.862-2.875-.575Z"/><path fill="#889920" d="M387.68 31.228c.431 5.027 5.031 9.048 9.917 10.054 5.031 1.005 10.205-.575 14.517-3.303 9.486-5.745 17.966-24.417 2.731-29.157-10.636-3.16-28.171 11.347-27.165 22.406Z"/><path fill="#EF4545" d="M417.868 16.435c-.431-.862-1.15-1.437-2.012-2.011l-1.437-1.15c-.863-.86-2.012-1.723-3.306-1.435-.862.287-1.437 1.292-1.437 2.154 0 .862.431 1.867 1.006 2.585 1.15 1.437 2.587 2.298 4.312 2.73.862.143 1.724.143 2.443-.288.862-.575.862-1.724.431-2.585Z"/><path fill="#889920" d="M412.402 120.852c.431 4.883 4.887 8.761 9.63 9.766 4.886 1.006 9.917-.574 14.085-3.159 9.198-5.602 17.391-23.699 2.731-28.295-10.349-3.16-27.452 10.916-26.446 21.688Z"/><path fill="#EF4545" d="M441.581 106.345c-.431-.861-1.15-1.436-1.869-2.01l-1.437-1.149c-.862-.862-2.012-1.724-3.162-1.293-.862.287-1.437 1.293-1.437 2.154 0 .862.431 1.724 1.006 2.442 1.006 1.293 2.587 2.298 4.168 2.585.862.144 1.725.144 2.3-.287.862-.431.862-1.58.431-2.442Z"/><path fill="#889920" d="M197.819 58.086c-13.079 11.346-21.272-4.596-22.565-9.48-2.731-10.771 4.312-30.017 18.397-22.692 9.917 5.027 12.504 24.99 4.168 32.172Z"/><path fill="#EF4545" d="M186.321 29.217c.863-.287 1.869-.143 2.875 0l1.868.144c1.294 0 2.731.143 3.306 1.292.431.862.144 1.867-.575 2.586-.718.718-1.581 1.005-2.587 1.149-1.725.287-3.593-.144-5.03-1.15-.719-.43-1.438-1.148-1.438-1.866-.143-1.15.719-1.868 1.581-2.155Z"/><path fill="#889920" d="M430.509 231.874c-15.522 7.612-19.403-9.91-19.259-15.08.144-11.203 11.929-27.864 23.715-17.236 8.192 7.613 5.461 27.433-4.456 32.316Z"/><path fill="#EF4545" d="M426.917 200.995c1.006 0 1.868.287 2.731.718l1.725.718c1.149.287 2.587.862 2.874 2.155.144.861-.287 1.867-1.15 2.298-.862.43-1.868.574-2.731.43-1.724-.287-3.305-1.149-4.599-2.298-.575-.574-1.006-1.436-.862-2.298.144-1.149 1.15-1.723 2.012-1.723Z"/><path fill="#889920" d="M269.822 244.084c-8.049 15.368-21.559 3.591-24.433-.575-6.468-9.048-7.043-29.443 8.767-27.863 11.067 1.005 20.697 18.528 15.666 28.438Z"/><path fill="#EF4545" d="M248.549 221.247c.719-.574 1.725-.861 2.587-1.149l1.725-.431c1.149-.43 2.587-.861 3.593 0 .718.575.862 1.724.431 2.586-.431.861-1.15 1.436-2.012 2.011-1.581.861-3.306 1.149-5.031.861-.862-.143-1.724-.431-2.012-1.292-.431-.862 0-1.868.719-2.586Z"/><path fill="#006937" d="m283.333 223.687 97.878 36.912-3.45 6.319s-22.708 1.006-52.604-11.777c-29.895-12.783-44.843-25.853-44.843-25.853l3.019-5.601Z"/><path fill="#A8D070" d="M283.332 223.687c1.868 4.453 39.525 23.268 59.359 29.013 8.624 2.585 29.464 7.899 38.519 7.756-1.437-2.586-18.541-16.948-41.393-26.859-18.828-7.755-42.256-12.064-56.485-9.91Z"/><path fill="#E4F6C4" d="M291.957 226.99c1.294 4.165 33.488 18.241 50.592 22.55 7.474 1.867 23.715 8.043 31.764 7.325-1.15-2.442-17.104-13.501-36.794-21.401-15.954-6.607-32.77-11.49-45.562-8.474Z"/><path fill="#A8D070" d="M321.848 233.166s-24.721-7.037-25.152-4.739c-.431 2.298 20.409 6.319 25.152 4.739ZM344.85 243.077s24.002 9.623 24.577 11.203c.575 1.579-15.091-1.868-24.577-11.203ZM327.17 236.183s-11.498-.144-9.773 2.298c1.725 2.298 7.618-.144 9.773-2.298ZM337.66 240.779s6.037 10.341 7.043 7.612c1.006-2.729-2.731-5.314-7.043-7.612ZM332.635 238.05s-5.749 0-6.324 2.298c-.575 2.298 8.624 5.17 9.342 4.308.863-.861-3.018-6.606-3.018-6.606Z"/><path fill="#006937" d="m260.912 100.026 65.252-74.973 4.456 5.17s-6.612 20.539-27.883 42.945c-21.272 22.405-37.801 31.454-37.801 31.454l-4.024-4.596Z"/><path fill="#A8D070" d="M260.912 100.026c4.599-.144 33.776-27.577 45.562-43.232 5.174-6.894 16.816-23.555 19.69-31.741-2.874.43-21.271 10.915-37.656 28.007-13.223 14.075-24.865 33.465-27.596 46.966Z"/><path fill="#E4F6C4" d="M266.805 93.419c4.168.143 27.308-23.842 36.938-37.63 4.168-6.033 14.947-18.528 17.103-25.853-2.587.143-17.678 10.772-31.332 25.565-11.355 12.209-21.272 25.422-22.709 37.918Z"/><path fill="#A8D070" d="M282.182 68.715s-14.373 19.82-12.505 20.826c1.725 1.149 12.217-15.943 12.505-20.826ZM298.424 51.624s16.528-18.24 18.109-18.24c1.725 0-6.467 12.782-18.109 18.24ZM286.497 64.981s-3.881 10.198-1.15 9.48c2.731-.719 2.443-6.75 1.15-9.48ZM294.111 57.225s11.211-1.867 9.055-3.734c-2.012-1.867-5.461.575-9.055 3.734ZM289.94 60.816s-1.869 5.17 0 6.463c1.868 1.293 7.474-5.889 6.899-6.894-.432-1.149-6.899.43-6.899.43Z"/><path fill="#EF4545" d="M13.702 251.408c1.006 2.298 3.162 3.878 5.318 4.74 3.162 1.292 6.612 1.436 9.774.574 3.88-1.149 7.33-3.878 8.91-7.899 3.738-9.336-4.742-15.799-12.647-15.656-6.755.288-14.66 11.06-11.355 18.241ZM202.845 74.03c-2.443.287-4.599 1.723-6.18 3.59a16.335 16.335 0 0 0-3.737 9.048c-.144 4.022 1.293 8.187 4.599 10.916 7.618 6.463 16.529.575 18.828-7.038 2.012-6.463-5.605-17.378-13.51-16.517ZM355.628 30.079c-2.443.287-4.599 1.723-6.18 3.59a16.336 16.336 0 0 0-3.737 9.049c-.144 4.021 1.294 8.187 4.599 10.916 7.618 6.463 16.529.574 18.828-7.038 2.156-6.463-5.605-17.379-13.51-16.517ZM98.784 189.648c-2.443.288-4.599 1.724-6.18 3.591a16.338 16.338 0 0 0-3.737 9.049c-.144 4.021 1.294 8.186 4.6 10.915 7.617 6.463 16.528.575 18.828-7.038 2.012-6.463-5.606-17.235-13.51-16.517ZM393.425 225.555c-2.443.288-4.599 1.724-6.18 3.591a16.335 16.335 0 0 0-3.737 9.049c-.144 4.021 1.293 8.186 4.599 10.915 7.618 6.463 16.529.575 18.828-7.038 2.012-6.463-5.605-17.378-13.51-16.517ZM269.245 278.123c-2.443.287-4.599 1.724-6.18 3.591a16.342 16.342 0 0 0-3.737 9.048c-.144 4.022 1.294 8.187 4.599 10.916 7.618 6.463 16.529.574 18.829-7.038 2.012-6.463-5.606-17.235-13.511-16.517Z"/><path fill="#006937" d="M200.977 171.264c2.299 14.794 14.085 27.146 28.314 31.742s30.326 1.723 42.974-6.176c6.612-4.165 12.648-9.911 15.235-17.235 4.312-12.065-1.149-25.853-10.06-35.045-12.361-12.639-34.351-19.964-51.886-15.081-15.954 4.452-27.021 26.284-24.577 41.795Z"/><path fill="#A8D070" d="M203.851 170.833c2.156 13.788 13.079 25.422 26.446 29.731 13.223 4.309 28.314 1.58 40.1-5.745 6.18-3.878 11.785-9.336 14.373-16.23 4.168-11.346-1.007-24.273-9.486-32.747-11.499-11.777-32.195-18.671-48.437-14.075-14.947 4.165-25.295 24.704-22.996 39.066Z"/><path fill="#E4F6C4" d="M212.902 169.971c1.725 10.772 10.205 19.821 20.553 23.124 10.348 3.304 21.99 1.293 31.189-4.452 4.887-3.016 9.198-7.181 11.211-12.639 3.162-8.761-.863-18.815-7.331-25.566-8.911-9.192-25.008-14.506-37.8-10.915-11.642 3.159-19.547 19.102-17.822 30.448Z"/><path fill="#A8D070" d="M242.37 174.137s-10.348 16.948-2.012 17.523c8.192.574 2.012-17.523 2.012-17.523ZM249.559 172.413s1.868 18.528 10.204 15.081c8.336-3.16-10.204-15.081-10.204-15.081ZM252.283 165.519s18.11-8.474 20.841 1.006c2.73 9.479-20.841-1.006-20.841-1.006ZM248.547 162.072s13.941-10.628 9.773-14.219c-4.311-3.734-9.773 14.219-9.773 14.219ZM243.663 162.072s2.156-18.959-2.875-18.671c-5.03.143 2.875 18.671 2.875 18.671ZM237.047 163.652s-10.205-18.815-14.517-14.65c-4.311 4.165 14.517 14.65 14.517 14.65ZM235.758 167.961s-17.822-5.601-16.96 1.293c1.006 6.894 16.96-1.293 16.96-1.293ZM237.054 172.413s-17.678 4.596-13.223 9.192c4.456 4.74 13.223-9.192 13.223-9.192Z"/><path fill="#820032" d="M259.188 263.904c4.456 0 8.768.431 12.936 1.436 11.067 2.442 21.415 11.634 21.415 22.98 0 5.458-2.443 10.629-5.174 15.225-6.324 10.628-15.091 19.82-25.727 25.996-8.48 4.883-18.254 7.612-27.883 7.612-2.587 0-5.174-.143-7.761-.574-5.318-.862-10.636-2.585-14.948-6.033-10.636-8.33-12.217-24.847-6.324-37.055 9.342-19.102 32.195-29.587 53.466-29.587Zm0-5.171c-20.984 0-46.998 10.054-57.922 32.316-7.473 15.368-4.168 34.04 7.762 43.232 4.599 3.59 10.348 5.888 17.247 7.037 2.731.431 5.605.719 8.48.719 10.348 0 20.984-2.873 30.47-8.187 10.923-6.32 20.553-15.799 27.596-27.72 2.73-4.596 5.892-10.772 5.892-17.81 0-6.606-2.874-13.07-8.048-18.384-4.6-4.739-10.78-8.043-17.391-9.479-4.456-1.149-9.199-1.724-14.086-1.724Z"/><path fill="#E9D5DE" d="M234.894 339.596c-2.731 0-5.462-.144-8.193-.575-6.468-1.005-11.929-3.16-16.097-6.463-12.504-9.767-12.936-28.007-7.043-40.215 12.217-24.991 45.418-34.758 69.277-29.444 11.354 2.586 23.427 12.352 23.427 25.422 0 6.463-3.018 12.208-5.462 16.517-6.898 11.49-16.097 20.826-26.733 26.858-9.198 5.171-19.403 7.9-29.176 7.9Zm24.433-73.25c-19.834 0-41.968 9.336-51.167 28.007-5.174 10.485-4.455 26.14 5.606 34.04 3.449 2.729 8.192 4.596 13.798 5.458 11.21 1.723 23.283-.575 33.919-6.751 9.774-5.601 18.397-14.219 24.865-24.991 2.3-3.734 4.743-8.761 4.887-13.931 0-10.485-9.918-18.385-19.403-20.539-4.025-.862-8.193-1.293-12.505-1.293Z"/><path fill="#75C97B" d="M138.172 58.66c1.006-1.866 4.025-2.44 5.031-.717-2.444-5.745-5.031-11.921-4.456-18.097.288-2.73 1.581-5.889 4.168-6.75 2.156-.719 4.599.43 6.037 2.154 1.437 1.723 2.156 4.021 2.587 6.176.718 3.303.862 6.75.718 10.197.288-1.58.575-3.303 1.725-4.452 1.15-1.15 3.306-1.006 4.168.287 3.45 5.601-1.006 23.555-7.617 25.278-6.324 1.58-14.948-8.187-12.361-14.075Z"/><path fill="#66B06C" d="M40.864 200.851c-1.581-.861-4.168 0-4.168 1.868-.863-5.602-1.869-11.347-5.318-15.799-1.581-2.011-3.88-3.735-6.324-3.016-2.012.574-3.306 2.441-3.593 4.452-.288 2.011.287 4.022 1.006 5.889 1.15 2.872 2.587 5.457 4.311 8.043-1.006-1.006-2.012-2.155-3.449-2.442-1.437-.287-3.018.718-2.875 2.298.144 5.889 12.074 17.235 17.823 15.368 5.605-2.011 7.473-13.501 2.587-16.661Z"/><path fill="#F48D1C" d="M173.672 211.336c-7.905-.862-9.199 8.186-1.294 17.666 1.869 2.154 5.462 1.149 5.893-1.58 1.006-6.463 1.293-15.368-4.599-16.086ZM449.197 168.535c-5.03-6.032-12.361-.287-13.079 11.921-.144 2.873 3.162 4.596 5.461 2.873 5.031-3.878 11.355-10.198 7.618-14.794ZM527.094 207.602c.575-7.9-8.623-8.761-17.678-.431-2.156 2.011-1.006 5.458 1.868 5.889 6.324.43 15.379.43 15.81-5.458ZM278.156 112.521c-7.761-1.436-9.63 7.612-2.299 17.523 1.724 2.298 5.317 1.579 6.036-1.293 1.294-6.176 2.156-15.224-3.737-16.23ZM181.286 77.332c-6.036-2.872-9.63 4.022-5.893 13.789.863 2.298 4.025 2.441 5.175.287 2.587-4.883 5.317-11.921.718-14.076ZM297.995 10.259c-7.905.143-7.905 9.479 1.15 17.666 2.156 1.867 5.606.43 5.606-2.442.143-6.463-.863-15.368-6.756-15.224ZM309.637 188.212c-5.031-6.176-12.361-.574-13.223 11.634-.287 2.873 3.018 4.74 5.318 3.016 5.174-3.734 11.642-9.91 7.905-14.65ZM373.88 275.538c-7.905.143-7.905 9.479 1.15 17.666 2.156 1.867 5.605.431 5.605-2.442.144-6.463-.718-15.368-6.755-15.224ZM7.088 206.884c-7.33 2.872-4.312 11.633 7.043 16.23 2.73 1.149 5.461-1.437 4.455-4.166-2.012-6.032-6.036-14.219-11.498-12.064Z"/><path fill="#820032" d="M503.381 196.974c-2.156 2.154-5.031 3.159-7.762 4.021-5.893 1.867-11.929 3.591-17.966 5.027 2.013 0 4.168 0 6.037.862 2.874 1.293 5.174 4.883 1.581 8.187a7.84 7.84 0 0 1-3.45 1.723c-10.492 2.585-21.127 4.453-31.763 5.458-1.006.144-1.869-.144-2.731-.575-.144-.143-.287-.143-.431-.287-.863-.574-1.294-1.436-1.581-2.441a5.429 5.429 0 0 1 0-2.155c2.012-9.766 5.749-24.704 10.779-30.592.719-.862 1.581-1.724 2.587-1.867 2.156-.288 3.594 2.01 4.025 4.021.287 2.011 0 4.309 1.15 6.176 1.724-4.883 4.168-9.336 7.473-13.214 2.013-2.441 4.743-4.883 7.905-5.026 3.162-.144 6.612 3.159 5.318 6.175 5.031-8.473 14.229-14.506 24.003-15.368 1.437-.143 2.874.144 3.88 1.006 2.156 1.58 1.725 4.165.863 6.176-2.731 6.607-8.193 11.921-14.948 14.362 5.031-1.579 8.624 4.74 5.031 8.331Z"/><path fill="#A01F53" d="M504.674 181.892c-1.294 0-2.731-.143-4.025-.143-.575 0-1.293 0-1.868-.144-.431 0-.862 0-1.15-.143-1.725 1.292-3.306 2.585-5.03 3.734l-12.936 9.479c4.168.144 8.336-.574 12.504-.574.719 0 1.294.861 1.294 1.58-.144.861-.862 1.292-1.581 1.292-5.174 0-10.492 1.006-15.666.144-5.462 4.021-10.78 8.187-16.098 12.352 2.731.431 5.606.431 8.336.718.719.143 1.294.862 1.294 1.58-.144.718-.862 1.292-1.581 1.292-3.593-.431-7.33-.431-10.923-1.149-3.593 3.016-7.043 6.033-10.349 9.336-.862-.574-1.293-1.436-1.581-2.442 3.162-3.159 6.612-6.176 10.061-9.048h.144c.719-3.591.431-7.469.862-11.059 0-.718.863-1.293 1.581-1.293.719.144 1.294.862 1.294 1.58-.288 2.729-.144 5.458-.431 8.187a622.84 622.84 0 0 1 15.379-11.921v-.144c1.149-3.878 2.155-7.899 3.305-11.777.575-1.724 3.162-.718 2.731 1.005-.862 2.729-1.581 5.458-2.3 8.187 6.037-4.453 12.217-8.905 18.11-13.501 0-.718.288-1.436.431-2.011.288-1.292.575-2.585.719-3.878.144-.718.719-1.292 1.581-1.292.719.143 1.437.861 1.293 1.579-.143 1.006-.431 2.011-.574 3.017 1.724-1.293 3.449-2.729 5.174-4.166 1.437-1.149 3.162 1.006 1.724 2.155-1.724 1.436-3.449 2.729-5.174 4.021 1.294 0 2.731.144 4.025.144.718 0 1.293.862 1.293 1.58-.287 1.293-1.006 1.723-1.868 1.723Z"/><path fill="#820032" d="M216.204 216.937c.575 2.729-.143 5.315-.718 7.9-1.438 5.458-3.162 10.772-5.031 16.086 1.006-1.58 2.156-3.16 3.593-4.165 2.444-1.58 6.324-1.58 7.043 2.872.144 1.149 0 2.298-.431 3.447-3.162 9.193-6.899 18.097-11.498 26.715-.432.718-1.006 1.436-1.869 1.723-.144 0-.287.144-.431.144a3.994 3.994 0 0 1-2.587 0c-.575-.144-1.15-.574-1.725-1.005-6.468-6.32-15.954-16.517-17.966-23.124-.287-1.006-.575-2.011-.143-2.873.718-1.723 3.305-1.723 5.03-1.005 1.725.718 3.306 2.154 5.318 2.154-2.875-3.59-5.031-7.755-6.468-12.208-.862-2.729-1.437-6.032 0-8.474 1.437-2.585 5.606-3.447 7.33-1.005-4.024-7.9-4.024-17.81.144-25.709a5.642 5.642 0 0 1 2.587-2.586c2.3-.861 3.881.719 5.031 2.442 3.593 5.314 5.03 12.065 3.593 18.241 1.724-4.309 8.336-4.022 9.198.43Z"/><path fill="#A01F53" d="m205.429 208.607-2.156 3.016c-.287.431-.719 1.006-1.006 1.437-.287.287-.431.574-.719.862.144 1.867.288 3.734.431 5.745.288 4.883.575 9.623.863 14.506 2.156-3.016 3.737-6.607 5.749-9.767.431-.574 1.294-.574 1.868-.143.575.43.575 1.292.144 1.867-2.587 3.878-4.312 8.474-7.474 11.921.431 6.032.863 12.208 1.581 18.24 1.725-1.867 3.019-4.021 4.743-6.032.432-.575 1.294-.575 1.869-.144.575.431.575 1.293.143 1.867-2.155 2.586-4.024 5.315-6.323 7.756.574 4.165 1.149 8.331 2.012 12.352a3.994 3.994 0 0 1-2.587 0c-.719-4.021-1.438-8.043-1.869-12.064v-.144c-2.443-2.298-5.461-4.022-8.049-6.032-.574-.431-.574-1.293-.143-1.868.431-.574 1.293-.574 1.868-.143 1.869 1.436 4.025 2.729 6.037 4.309-.575-5.745-1.15-11.634-1.438-17.379 0 0-.143 0-.143-.144-2.3-2.872-4.887-5.458-7.187-8.33-1.006-1.293 1.006-2.729 2.013-1.58 1.581 2.011 3.449 3.878 5.03 5.745-.431-6.75-.862-13.644-1.294-20.395l-1.293-1.292c-.862-.862-1.725-1.58-2.587-2.442-.431-.431-.719-1.293-.144-1.867.431-.431 1.294-.718 1.869-.144.718.575 1.293 1.293 2.012 1.867-.144-2.011-.288-4.021-.575-6.032-.144-1.58 2.443-1.867 2.587-.287.144 2.01.431 4.021.575 5.888l2.156-3.016c.431-.574 1.293-.574 1.868-.143-.144.574 0 1.436-.431 2.01Z"/><path fill="#FFED85" d="M335.653 273.671c-1.437-3.447-3.88-6.464-4.886-10.198l-5.893 1.436c-5.462 1.149-10.78 2.873-15.81 5.315-1.006.43-2.012 1.005-2.443 2.01-.719 1.437-.144 3.16.431 4.596 1.437 3.591 2.874 7.182 4.168 10.772 5.174-.287 10.492-.574 15.666-1.005 2.875-.144 5.893-.431 7.905-2.442 2.731-2.585 2.443-7.037.862-10.484ZM102.813 111.515c-2.731 1.437-5.03 3.447-7.905 4.453l1.438 4.596a48.936 48.936 0 0 0 5.174 12.352c.431.718.862 1.58 1.724 1.867 1.15.574 2.587 0 3.737-.575 2.731-1.292 5.606-2.585 8.336-4.021-.574-4.165-1.149-8.331-1.581-12.496-.287-2.298-.718-4.596-2.299-6.176-2.3-2.01-5.893-1.436-8.624 0ZM302.593 91.12c-3.019-.143-6.037.431-9.055-.143l-1.15 4.74c-1.15 4.308-1.725 8.761-1.868 13.213 0 .862 0 1.724.574 2.442.719 1.005 2.156 1.292 3.45 1.436 3.018.287 6.18.574 9.198.862 1.581-3.878 3.306-7.756 4.887-11.49.863-2.011 1.725-4.31 1.15-6.464-.862-3.016-4.168-4.452-7.186-4.596ZM493.034 225.124c-2.587-1.58-5.605-2.442-7.905-4.309l-3.162 3.591c-3.018 3.303-5.605 6.894-7.761 10.915-.431.719-.863 1.58-.719 2.442.144 1.293 1.294 2.154 2.444 2.873 2.587 1.723 5.174 3.303 7.761 5.027 3.306-2.586 6.468-5.315 9.773-7.9 1.725-1.436 3.593-3.016 4.025-5.314.431-3.016-1.869-5.889-4.456-7.325Z"/></g></svg>