<svg width="678" height="402" viewBox="0 0 678 402" fill="none" xmlns="http://www.w3.org/2000/svg">
<g clip-path="url(#clip0_498_34568)">
<path d="M434.187 96.7634C433.396 95.4114 432.684 94.0593 432.051 92.6675C431.933 92.3891 432.051 92.0312 432.328 91.9119C432.605 91.7926 432.961 91.9119 433.08 92.1903C433.673 93.5424 434.385 94.8944 435.136 96.1669C435.295 96.4453 435.216 96.8032 434.939 96.9623C434.701 97.1213 434.345 97.0418 434.187 96.7634ZM436.719 100.541C436.56 100.303 436.64 99.9845 436.877 99.7857C437.114 99.5869 437.47 99.6664 437.668 99.905C438.578 101.098 439.527 102.251 440.555 103.365C440.753 103.603 440.753 103.961 440.516 104.16C440.279 104.359 439.923 104.359 439.725 104.12C438.657 103.007 437.668 101.814 436.758 100.581C436.758 100.581 436.719 100.581 436.719 100.541ZM430.469 88.4522C430.43 88.4125 430.43 88.3727 430.43 88.3329C429.955 86.8616 429.559 85.3504 429.282 83.8393C429.203 83.5212 429.401 83.2428 429.718 83.1633C430.034 83.0837 430.311 83.2826 430.39 83.6007C430.667 85.0721 431.062 86.5434 431.498 87.975C431.577 88.2534 431.418 88.5715 431.142 88.6908C430.904 88.7704 430.627 88.6511 430.469 88.4522ZM442.968 107.182C442.85 106.983 442.85 106.705 443.008 106.546C443.206 106.307 443.562 106.268 443.799 106.466C444.946 107.421 446.133 108.336 447.398 109.171C447.675 109.33 447.715 109.688 447.557 109.966C447.398 110.244 447.042 110.284 446.765 110.125C445.5 109.29 444.234 108.336 443.087 107.341C443.047 107.302 442.968 107.222 442.968 107.182ZM428.689 79.5048C428.65 79.4252 428.61 79.3457 428.61 79.2662C428.491 77.7153 428.452 76.1644 428.491 74.6532C428.491 74.3351 428.768 74.0965 429.085 74.0965C429.401 74.0965 429.638 74.3749 429.638 74.693C429.599 76.2041 429.638 77.7153 429.757 79.1866C429.797 79.5048 429.559 79.7831 429.243 79.7831C429.006 79.7831 428.808 79.6638 428.689 79.5048ZM450.484 112.233C450.404 112.074 450.365 111.875 450.484 111.676C450.642 111.398 450.958 111.278 451.235 111.437C452.54 112.113 453.925 112.75 455.309 113.267C455.586 113.386 455.744 113.704 455.626 113.982C455.507 114.261 455.191 114.42 454.914 114.3C453.49 113.744 452.066 113.107 450.721 112.431C450.642 112.392 450.563 112.312 450.484 112.233ZM428.966 70.3585C428.887 70.2392 428.887 70.1199 428.887 70.0006C429.085 68.4894 429.401 66.9385 429.797 65.4672C429.876 65.149 430.192 64.99 430.469 65.0695C430.786 65.149 430.944 65.4672 430.865 65.7455C430.509 67.1771 430.192 68.6883 429.994 70.1596C429.955 70.4778 429.678 70.6766 429.362 70.6368C429.203 70.6368 429.045 70.5175 428.966 70.3585ZM458.988 115.493C458.909 115.374 458.869 115.215 458.909 115.056C458.988 114.738 459.304 114.579 459.581 114.658C461.005 115.016 462.508 115.334 463.972 115.533C464.288 115.573 464.486 115.851 464.446 116.17C464.407 116.488 464.13 116.686 463.813 116.647C462.31 116.448 460.768 116.13 459.304 115.732C459.185 115.692 459.067 115.613 458.988 115.493ZM431.221 61.5303C431.141 61.3712 431.102 61.2121 431.181 61.0531C431.735 59.6215 432.368 58.1899 433.04 56.8378C433.198 56.5595 433.515 56.4402 433.792 56.5992C434.069 56.7583 434.187 57.0764 434.029 57.3548C433.357 58.6671 432.724 60.0589 432.209 61.4507C432.091 61.7291 431.774 61.8882 431.498 61.7689C431.379 61.7291 431.3 61.6496 431.221 61.5303ZM467.967 116.766C467.927 116.686 467.887 116.567 467.887 116.448C467.887 116.13 468.164 115.891 468.481 115.891C469.984 115.931 471.487 115.891 472.95 115.772C473.267 115.732 473.544 115.971 473.544 116.289C473.583 116.607 473.346 116.885 473.03 116.885C471.487 117.005 469.944 117.044 468.441 117.005C468.243 117.044 468.046 116.925 467.967 116.766ZM435.374 53.4179C435.255 53.2191 435.255 53.0202 435.374 52.8214C436.204 51.5489 437.154 50.2764 438.143 49.1231C438.34 48.8845 438.696 48.8448 438.934 49.0436C439.171 49.2424 439.211 49.6003 439.013 49.8389C438.064 50.9921 437.154 52.1851 436.323 53.4577C436.165 53.736 435.809 53.7758 435.532 53.6167C435.492 53.577 435.413 53.4974 435.374 53.4179ZM477.024 116.01C476.985 115.971 476.985 115.891 476.945 115.851C476.866 115.533 477.064 115.255 477.38 115.175C478.844 114.897 480.307 114.499 481.731 114.062C482.008 113.982 482.325 114.141 482.443 114.42C482.523 114.698 482.364 115.016 482.087 115.136C480.624 115.613 479.121 116.01 477.618 116.289C477.38 116.329 477.143 116.209 477.024 116.01ZM441.228 46.4588C441.109 46.2202 441.149 45.9418 441.307 45.743C442.414 44.6693 443.601 43.6751 444.827 42.7605C445.065 42.5616 445.421 42.6412 445.618 42.8798C445.816 43.1184 445.737 43.4763 445.5 43.6751C444.313 44.5897 443.166 45.5441 442.058 46.5781C441.821 46.7769 441.465 46.7769 441.267 46.5383C441.267 46.5383 441.228 46.4985 441.228 46.4588ZM485.647 113.227L485.608 113.187C485.489 112.909 485.608 112.551 485.885 112.431C487.229 111.835 488.574 111.119 489.88 110.364L489.959 110.324C490.236 110.165 490.552 110.244 490.71 110.523C490.868 110.801 490.789 111.119 490.512 111.278L490.433 111.318C489.128 112.113 487.744 112.829 486.359 113.465C486.082 113.585 485.806 113.465 485.647 113.227ZM448.506 40.971C448.348 40.6926 448.427 40.3745 448.704 40.2154L448.743 40.1756C450.048 39.3803 451.433 38.7043 452.778 38.068C453.055 37.9487 453.411 38.068 453.529 38.3464C453.648 38.6248 453.529 38.9827 453.252 39.102C451.908 39.6985 450.602 40.4142 449.297 41.1698C449.02 41.2891 448.625 41.2096 448.506 40.971ZM493.519 108.534C493.36 108.296 493.44 107.978 493.677 107.779C494.863 106.864 496.011 105.91 497.078 104.876C497.316 104.677 497.672 104.677 497.87 104.916C498.067 105.154 498.067 105.512 497.83 105.711C496.723 106.785 495.536 107.779 494.31 108.693C494.072 108.892 493.716 108.813 493.519 108.574C493.558 108.574 493.558 108.574 493.519 108.534ZM456.733 37.2329C456.694 37.1932 456.694 37.1534 456.694 37.1136C456.614 36.8353 456.773 36.5171 457.05 36.3978C458.513 35.9206 460.016 35.523 461.519 35.2446C461.836 35.1651 462.113 35.3639 462.192 35.682C462.271 36.0002 462.073 36.2785 461.757 36.3581C460.293 36.6364 458.83 37.0341 457.406 37.4715C457.129 37.5511 456.852 37.4318 456.733 37.2329ZM500.124 102.251C500.006 102.052 500.006 101.774 500.164 101.615C501.113 100.462 502.023 99.2687 502.853 97.9962C503.012 97.7178 503.368 97.6781 503.645 97.8371C503.921 97.9962 503.961 98.3541 503.803 98.6325C502.972 99.905 502.023 101.178 501.034 102.331C500.836 102.569 500.48 102.609 500.243 102.41C500.203 102.371 500.164 102.331 500.124 102.251ZM465.633 35.4434C465.593 35.3639 465.554 35.2844 465.554 35.2048C465.514 34.8867 465.752 34.6083 466.068 34.6083C467.611 34.489 469.153 34.4493 470.656 34.489C470.973 34.489 471.21 34.7674 471.21 35.0855C471.21 35.4037 470.933 35.6423 470.617 35.6423C469.114 35.6025 467.611 35.6423 466.147 35.7616C465.949 35.7218 465.751 35.6025 465.633 35.4434ZM505.148 94.6558C505.068 94.4967 505.029 94.2979 505.148 94.0991C505.82 92.7868 506.453 91.395 506.967 90.0031C507.086 89.7248 507.402 89.5657 507.679 89.685C507.956 89.8043 508.114 90.1224 507.996 90.4008C507.442 91.8324 506.809 93.264 506.136 94.616C505.978 94.8944 505.662 95.0137 505.385 94.8546C505.266 94.8546 505.187 94.7751 505.148 94.6558ZM474.691 35.682C474.612 35.5627 474.612 35.4434 474.612 35.3241C474.651 35.006 474.928 34.8072 475.245 34.8469C476.748 35.0458 478.29 35.3639 479.754 35.7616C480.07 35.8411 480.228 36.1592 480.149 36.4376C480.07 36.7557 479.754 36.9148 479.477 36.8353C478.053 36.4774 476.55 36.1592 475.086 35.9604C474.928 35.9206 474.809 35.8411 474.691 35.682ZM508.351 86.1458C508.272 86.0265 508.233 85.8674 508.272 85.7083C508.628 84.2767 508.945 82.7656 509.143 81.2943C509.182 80.9761 509.459 80.7773 509.775 80.8171C510.092 80.8568 510.29 81.1352 510.25 81.4533C510.052 82.9644 509.736 84.5153 509.34 85.9867C509.261 86.3048 508.945 86.4639 508.668 86.3844C508.549 86.3844 508.431 86.2651 508.351 86.1458ZM509.617 77.1188C509.578 77.0392 509.538 76.9199 509.538 76.8006C509.578 75.2895 509.538 73.7784 509.419 72.307C509.38 71.9889 509.617 71.7105 509.934 71.7105C510.25 71.6708 510.527 71.9094 510.527 72.2275C510.646 73.7784 510.685 75.3293 510.646 76.8404C510.646 77.1585 510.369 77.3971 510.052 77.3971C509.894 77.3971 509.696 77.2778 509.617 77.1188ZM508.826 68.0122C508.787 67.9725 508.787 67.8929 508.747 67.8532C508.47 66.3818 508.075 64.9104 507.6 63.4788C507.521 63.2005 507.679 62.8823 507.956 62.763C508.233 62.6835 508.589 62.8426 508.668 63.1209C509.143 64.5923 509.538 66.1034 509.815 67.6146C509.894 67.9327 509.696 68.2111 509.38 68.2906C509.182 68.3304 508.945 68.2111 508.826 68.0122ZM498.502 48.0097C498.384 47.7711 498.423 47.4927 498.582 47.2939C498.819 47.095 499.175 47.095 499.373 47.3336C500.441 48.4471 501.429 49.6401 502.339 50.8728C502.537 51.1114 502.458 51.4693 502.221 51.6682C501.983 51.867 501.627 51.7875 501.429 51.5489C500.52 50.3559 499.57 49.2027 498.542 48.129C498.542 48.0494 498.542 48.0494 498.502 48.0097ZM506.057 59.3431L506.018 59.3034C505.424 57.9513 504.712 56.639 504 55.3665L503.961 55.3267C503.803 55.0483 503.882 54.7302 504.159 54.5711C504.436 54.4121 504.752 54.4916 504.91 54.77L504.95 54.8097C505.701 56.122 506.413 57.4741 507.046 58.8659C507.165 59.1443 507.046 59.5022 506.769 59.6215C506.492 59.701 506.216 59.5817 506.057 59.3431Z" fill="#E1FFF7"/>
<path d="M491.385 46.5383C490.238 46.5383 489.328 45.6237 489.328 44.4704L489.288 31.3873L487.152 29.3592L487.904 20.8491L488.458 20.8889L487.746 29.1206L489.882 31.1487L489.921 44.4704C489.921 45.3055 490.594 45.9816 491.424 45.9816C492.255 45.9816 492.927 45.3055 492.927 44.4704L492.967 31.1487L495.103 29.1206L494.391 20.8889L494.945 20.8491L495.696 29.3592L493.56 31.3873L493.521 44.4704C493.441 45.6237 492.532 46.5383 491.385 46.5383Z" fill="#E1FFF7"/>
<path d="M490.356 20.9683H489.803V28.842H490.356V20.9683Z" fill="#E1FFF7"/>
<path d="M492.69 20.9683H492.137V28.842H492.69V20.9683Z" fill="#E1FFF7"/>
<path d="M154.656 120.584C153.114 120.783 151.571 120.902 150.068 120.942C149.752 120.942 149.514 120.703 149.475 120.385C149.475 120.067 149.712 119.828 150.029 119.789C151.492 119.749 152.995 119.629 154.459 119.431C154.775 119.391 155.052 119.59 155.092 119.908C155.171 120.266 154.973 120.544 154.656 120.584ZM159.126 119.709C158.849 119.749 158.572 119.55 158.493 119.272C158.414 118.953 158.612 118.675 158.889 118.596C160.352 118.238 161.776 117.8 163.161 117.244C163.438 117.124 163.793 117.283 163.873 117.562C163.991 117.84 163.833 118.198 163.556 118.277C162.132 118.794 160.629 119.272 159.166 119.629C159.166 119.709 159.166 119.709 159.126 119.709ZM145.599 120.783C145.559 120.783 145.519 120.783 145.48 120.783C143.937 120.663 142.434 120.425 140.931 120.107C140.615 120.027 140.417 119.749 140.496 119.431C140.575 119.113 140.852 118.914 141.168 118.993C142.632 119.311 144.135 119.51 145.599 119.669C145.915 119.709 146.152 119.987 146.113 120.266C146.073 120.544 145.875 120.743 145.599 120.783ZM167.63 116.528C167.393 116.567 167.156 116.448 167.037 116.21C166.879 115.931 166.997 115.573 167.274 115.454C168.619 114.778 169.885 114.022 171.151 113.187C171.427 113.028 171.744 113.068 171.942 113.346C172.1 113.625 172.06 113.943 171.783 114.142C170.518 114.977 169.173 115.772 167.788 116.448C167.749 116.528 167.709 116.528 167.63 116.528ZM136.699 118.953C136.62 118.953 136.541 118.953 136.461 118.914C134.998 118.437 133.574 117.88 132.15 117.244C131.873 117.124 131.755 116.766 131.873 116.488C131.992 116.21 132.348 116.09 132.625 116.21C133.97 116.846 135.394 117.403 136.817 117.84C137.094 117.92 137.292 118.238 137.173 118.556C137.094 118.755 136.936 118.914 136.699 118.953ZM175.225 111.517C175.027 111.557 174.829 111.477 174.71 111.318C174.513 111.08 174.552 110.722 174.79 110.523C175.937 109.569 177.044 108.535 178.073 107.461C178.27 107.222 178.626 107.222 178.864 107.461C179.101 107.66 179.101 108.018 178.864 108.256C177.796 109.37 176.688 110.443 175.502 111.398C175.422 111.477 175.304 111.517 175.225 111.517ZM128.472 115.136C128.353 115.136 128.234 115.136 128.116 115.056C126.81 114.261 125.505 113.386 124.318 112.472C124.081 112.273 124.041 111.915 124.2 111.676C124.397 111.438 124.753 111.398 124.991 111.557C126.177 112.472 127.404 113.307 128.709 114.102C128.986 114.261 129.065 114.619 128.907 114.897C128.788 115.017 128.63 115.136 128.472 115.136ZM181.474 104.956C181.316 104.956 181.197 104.956 181.039 104.836C180.802 104.638 180.762 104.28 180.921 104.041C181.83 102.848 182.661 101.615 183.452 100.303C183.61 100.025 183.966 99.9451 184.243 100.104C184.52 100.263 184.599 100.621 184.441 100.899C183.65 102.212 182.78 103.524 181.87 104.717C181.751 104.836 181.632 104.916 181.474 104.956ZM121.233 109.608C121.075 109.648 120.917 109.569 120.758 109.449C119.651 108.376 118.583 107.262 117.634 106.069C117.436 105.831 117.475 105.473 117.713 105.274C117.95 105.075 118.306 105.115 118.504 105.353C119.453 106.507 120.482 107.62 121.55 108.654C121.787 108.853 121.787 109.211 121.55 109.449C121.47 109.529 121.352 109.608 121.233 109.608ZM186.142 97.1216C186.023 97.1216 185.944 97.1216 185.825 97.0819C185.548 96.9626 185.43 96.6047 185.548 96.3263C186.181 94.9742 186.735 93.5426 187.17 92.1111C187.249 91.8327 187.566 91.6338 187.882 91.7531C188.159 91.8327 188.357 92.1508 188.238 92.4689C187.763 93.9403 187.21 95.3719 186.577 96.7637C186.498 96.9626 186.339 97.0819 186.142 97.1216ZM115.419 102.609C115.221 102.649 114.984 102.53 114.865 102.371C114.034 101.098 113.243 99.7462 112.531 98.3544C112.373 98.076 112.492 97.7181 112.768 97.5988C113.045 97.4398 113.401 97.5591 113.52 97.8374C114.192 99.1895 114.944 100.462 115.775 101.735C115.933 102.013 115.893 102.331 115.616 102.53C115.616 102.57 115.498 102.609 115.419 102.609ZM188.99 88.4525C188.91 88.4525 188.871 88.4525 188.792 88.4525C188.475 88.373 188.278 88.0946 188.357 87.7765C188.673 86.3051 188.871 84.794 189.029 83.3226C189.069 83.0045 189.346 82.7659 189.622 82.8057C189.939 82.8454 190.176 83.1238 190.137 83.4022C189.978 84.9531 189.781 86.4642 189.464 87.9753C189.385 88.2537 189.227 88.4128 188.99 88.4525ZM111.305 94.497C111.068 94.5368 110.791 94.3777 110.712 94.1391C110.158 92.7075 109.723 91.1964 109.327 89.7251C109.248 89.4069 109.446 89.1286 109.723 89.049C110.039 88.9695 110.316 89.1683 110.395 89.4467C110.751 90.9181 111.186 92.3496 111.74 93.7415C111.859 94.0198 111.701 94.3777 111.424 94.4573C111.424 94.4573 111.384 94.497 111.305 94.497ZM189.781 79.346C189.741 79.346 189.741 79.346 189.702 79.346C189.385 79.346 189.148 79.1074 189.108 78.7893C189.069 77.2781 188.95 75.767 188.752 74.2956V74.2161C188.713 73.898 188.91 73.6196 189.227 73.5798C189.543 73.5401 189.82 73.7389 189.86 74.057V74.1366C190.058 75.6477 190.176 77.2384 190.216 78.7495C190.295 79.0676 190.097 79.3062 189.781 79.346ZM109.129 85.6291C108.813 85.6689 108.536 85.47 108.497 85.1519V85.1121C108.299 83.601 108.18 82.0501 108.141 80.539C108.141 80.2209 108.378 79.9823 108.694 79.9425C109.011 79.9425 109.248 80.1811 109.288 80.4992C109.327 81.9706 109.446 83.4817 109.644 84.9531C109.644 85.2712 109.446 85.5893 109.129 85.6291ZM188.594 70.2394C188.317 70.2792 188.04 70.0804 187.961 69.802C187.605 68.3307 187.131 66.8991 186.616 65.5072C186.498 65.2289 186.656 64.871 186.933 64.7914C187.21 64.6721 187.566 64.8312 187.645 65.1096C188.198 66.5412 188.634 68.0523 189.029 69.5237C189.108 69.8418 188.91 70.1201 188.634 70.1997C188.634 70.2394 188.594 70.2394 188.594 70.2394ZM108.932 76.5226C108.892 76.5226 108.853 76.5226 108.813 76.5226C108.497 76.4828 108.259 76.2044 108.299 75.9261C108.418 74.3752 108.655 72.864 108.971 71.3529C109.05 71.0348 109.327 70.8359 109.644 70.9155C109.96 70.995 110.158 71.2734 110.079 71.5915C109.762 73.0629 109.565 74.574 109.446 76.0454C109.367 76.284 109.169 76.4828 108.932 76.5226ZM185.39 61.6896C185.153 61.7294 184.915 61.6101 184.797 61.3715C184.124 60.0592 183.373 58.7469 182.542 57.4744C182.384 57.196 182.424 56.8779 182.7 56.6791C182.977 56.52 183.294 56.5598 183.492 56.8381C184.322 58.1106 185.113 59.4627 185.825 60.8545C185.983 61.1329 185.865 61.4908 185.588 61.6101C185.509 61.6896 185.469 61.6896 185.39 61.6896ZM110.751 67.5751C110.672 67.5751 110.593 67.5751 110.514 67.5353C110.237 67.4558 110.039 67.1377 110.158 66.8195C110.633 65.3482 111.186 63.9166 111.819 62.485C111.938 62.2066 112.294 62.0873 112.571 62.2066C112.848 62.3259 112.966 62.6838 112.848 62.9622C112.215 64.3142 111.701 65.7458 111.226 67.1774C111.147 67.416 110.949 67.5751 110.751 67.5751ZM180.406 54.0942C180.209 54.134 180.011 54.0545 179.892 53.8954C178.943 52.7422 177.914 51.6287 176.846 50.5948C176.609 50.3959 176.609 50.038 176.846 49.7994C177.044 49.5608 177.4 49.5608 177.638 49.7994C178.745 50.8731 179.813 51.9866 180.802 53.1796C181 53.4182 180.96 53.7761 180.723 53.9749C180.604 54.0545 180.485 54.0942 180.406 54.0942ZM114.509 59.2639C114.39 59.2639 114.272 59.2639 114.153 59.1843C113.876 59.0253 113.797 58.6674 113.955 58.389C114.746 57.0767 115.616 55.7644 116.526 54.5714C116.724 54.3328 117.08 54.2931 117.317 54.4521C117.555 54.651 117.594 55.0089 117.436 55.2475C116.526 56.4405 115.695 57.6732 114.904 58.9855C114.825 59.1843 114.667 59.2639 114.509 59.2639ZM173.84 47.8111C173.682 47.8111 173.563 47.8111 173.405 47.6918C172.219 46.7772 170.953 45.9421 169.687 45.1468C169.41 44.9877 169.331 44.6298 169.489 44.3514C169.648 44.0731 170.004 43.9935 170.28 44.1526C171.586 44.9479 172.891 45.8228 174.078 46.7374C174.315 46.9363 174.354 47.2942 174.196 47.5328C174.117 47.6918 173.959 47.7713 173.84 47.8111ZM166.048 43.1187C165.929 43.1187 165.85 43.1187 165.732 43.0789C164.387 42.4426 162.963 41.9257 161.539 41.4485C161.262 41.3689 161.064 41.0508 161.183 40.7327C161.262 40.4543 161.578 40.2555 161.895 40.3748C163.358 40.852 164.782 41.4087 166.206 42.045C166.483 42.1643 166.602 42.5222 166.483 42.8005C166.404 42.9596 166.246 43.0789 166.048 43.1187ZM157.425 40.2952C157.346 40.2952 157.307 40.2952 157.227 40.2952C155.764 39.9771 154.261 39.7783 152.797 39.659C152.481 39.6192 152.244 39.3408 152.283 39.0625C152.323 38.7443 152.6 38.5057 152.877 38.5455C154.419 38.6648 155.922 38.9034 157.425 39.2215C157.742 39.3011 157.939 39.5794 157.86 39.8976C157.86 40.0964 157.663 40.2555 157.425 40.2952ZM135.038 42.045C134.8 42.0847 134.523 41.9257 134.444 41.6871C134.326 41.4087 134.484 41.0508 134.761 40.9713C136.185 40.4145 137.688 39.9771 139.151 39.5794C139.468 39.4999 139.744 39.6987 139.824 39.9771C139.903 40.2952 139.705 40.5736 139.428 40.6531C137.965 41.011 136.541 41.4485 135.156 42.0052C135.156 42.045 135.077 42.045 135.038 42.045ZM148.367 39.4601C148.328 39.4601 148.328 39.4601 148.288 39.4601C146.825 39.4999 145.361 39.6192 143.898 39.818H143.819C143.502 39.8578 143.225 39.659 143.186 39.3408C143.146 39.0227 143.344 38.7443 143.66 38.7046H143.739C145.243 38.5057 146.746 38.3864 148.249 38.3467C148.565 38.3467 148.802 38.5853 148.842 38.9034C148.882 39.1818 148.684 39.4204 148.367 39.4601Z" fill="#E1FFF7"/>
<path d="M125.071 60.1783C122.658 60.1783 121.273 42.8004 121.273 41.9255C121.273 39.8179 122.974 38.1079 125.071 38.1079C127.167 38.1079 128.868 39.8179 128.868 41.9255C128.907 42.8004 127.523 60.1783 125.071 60.1783ZM125.071 38.6249C123.291 38.6249 121.827 40.0962 121.827 41.8857C121.827 44.9875 123.607 59.5818 125.071 59.5818C126.534 59.5818 128.314 44.9875 128.314 41.8857C128.314 40.0962 126.89 38.6249 125.071 38.6249Z" fill="#E1FFF7"/>
<path d="M124.003 40.9712H122.5V41.5279H124.003V40.9712Z" fill="#E1FFF7"/>
<path d="M127.128 44.1128H125.625V44.6695H127.128V44.1128Z" fill="#E1FFF7"/>
<path d="M124.556 48.2085H123.053V48.7652H124.556V48.2085Z" fill="#E1FFF7"/>
<path d="M126.179 52.7817H124.676V53.3385H126.179V52.7817Z" fill="#E1FFF7"/>
<path d="M123.568 38.5053C123.33 37.6702 121.788 34.0912 121.788 34.0514L121.59 33.5742L122.104 33.6538C124.833 34.0912 125.585 38.0281 125.624 38.2269L125.071 38.3462C125.071 38.3064 124.438 35.2046 122.539 34.4093C122.974 35.4432 123.924 37.7099 124.121 38.386L123.568 38.5053Z" fill="#E1FFF7"/>
<path d="M126.812 38.8236L126.258 38.6645L127.563 34.1709C125.862 35.1253 125.23 37.0341 125.23 37.0341L124.676 36.875C124.715 36.7557 125.506 34.2902 127.88 33.3756L128.394 33.1768L126.812 38.8236Z" fill="#E1FFF7"/>
<path d="M495.713 367.128C502.16 346.768 511.06 320.363 522.135 327.083C533.21 333.804 542.268 317.897 544.206 308.115C546.145 298.332 550.377 294.077 563.469 299.843C576.562 305.609 571.815 282.505 587.004 281.71C602.193 280.954 606.979 282.068 616.709 273.16C626.4 264.252 659.547 272.007 649.184 283.101C638.82 294.196 600.809 299.764 608.719 311.097C616.63 322.431 561.373 326.447 570.154 336.826C578.935 347.245 528.662 353.608 535.9 363.549C543.099 373.451 499.115 392.658 495.713 367.128Z" fill="#75C97B"/>
<path d="M505.799 373.372C505.641 373.332 505.443 373.252 505.285 373.133C504.692 372.695 504.533 372.059 504.968 371.701C505.878 370.906 595.469 293.6 630.158 273.756C630.672 273.438 631.542 273.597 632.096 274.074C632.61 274.552 632.61 275.188 632.096 275.506C597.525 295.27 508.093 372.497 507.184 373.252C506.867 373.491 506.313 373.531 505.799 373.372Z" fill="#66B06C"/>
<path d="M171.35 286.41C152.483 265.652 124.439 227.158 118.901 237.1C113.403 247.042 104.148 219.881 94.5361 207.991C84.9244 196.101 74.2447 215.348 68.2325 205.048C62.1807 194.749 43.7484 160.788 29.7461 166.395C15.7044 171.962 57.4341 220.159 60.4007 225.09C63.3673 229.982 41.4542 220.557 51.2637 235.032C61.0731 249.467 100.786 257.46 93.9427 268.317C87.0999 279.133 166.564 308.163 171.35 286.41Z" fill="#75C97B"/>
<path d="M161.936 289.91C161.699 289.989 161.462 289.989 161.185 289.91C144.69 284.581 76.6571 241.594 39.2783 180.751C38.9223 180.154 39.0805 179.359 39.7134 179.001C40.3067 178.643 41.0978 178.802 41.4538 179.438C78.5162 239.725 145.679 282.235 161.976 287.524C162.648 287.723 163.004 288.478 162.806 289.154C162.648 289.512 162.332 289.791 161.936 289.91Z" fill="#66B06C"/>
<path d="M12.7751 50.8729C-24.7619 61.2122 30.7328 83.6008 46.95 98.6326C63.1673 113.664 59.1327 110.125 50.0748 131.718C41.0169 153.272 78.1583 150.051 93.3472 163.889C108.496 177.728 92.5165 187.908 85.4759 199.52C78.4352 211.132 128.392 223.46 148.881 231.89C169.371 240.321 134.721 248.711 136.699 262.192C138.676 275.673 206.908 299.056 223.797 300.686C240.687 302.317 244.563 221.75 231.629 205.326C218.695 188.863 189.583 211.132 185.153 198.924C180.723 186.715 182.463 139.115 169.608 141.024C156.753 142.932 138.241 153.948 134.325 127.424C130.41 100.899 112.412 73.6989 91.5277 80.499C70.6826 87.2593 56.5221 38.8237 12.7751 50.8729Z" fill="#7EE687"/>
<path d="M219.801 291.421C218.575 291.62 217.547 291.222 217.428 290.586C213.433 263.425 142.196 142.933 28.3587 62.8826C27.6863 62.4054 27.9632 61.6498 28.9916 61.2124C30.02 60.7352 31.3648 60.7352 32.0373 61.2124C146.31 141.541 217.824 262.63 221.819 289.95C221.898 290.586 221.028 291.262 219.801 291.421Z" fill="#75C97B"/>
<path d="M665.225 110.642C702.762 120.981 647.267 143.37 631.05 158.402C614.833 173.433 618.867 169.894 627.925 191.488C636.983 213.041 599.842 209.82 584.653 223.659C569.464 237.497 585.484 247.678 592.524 259.289C599.565 270.901 549.608 283.229 529.119 291.659C508.63 300.09 543.279 308.481 541.302 321.962C539.324 335.442 471.093 358.825 454.203 360.456C437.313 362.086 433.437 281.519 446.371 265.095C459.306 248.632 488.417 270.901 492.848 258.693C497.278 246.485 495.537 198.884 508.392 200.793C521.248 202.702 539.759 213.717 543.675 187.193C547.591 160.668 565.588 133.468 586.473 140.268C607.318 147.068 621.478 98.5929 665.225 110.642Z" fill="#81EB8A"/>
<path d="M458.198 351.23C459.424 351.428 460.452 351.031 460.571 350.394C464.566 323.234 535.803 202.741 649.641 122.691C650.313 122.214 650.036 121.458 649.008 121.021C647.979 120.544 646.634 120.544 645.962 121.021C531.69 201.349 460.176 322.439 456.181 349.758C456.101 350.394 457.011 351.031 458.198 351.23Z" fill="#75C97B"/>
<path d="M33.6875 284.797C13.9895 299.392 51.5661 299.909 64.4608 305.039C77.3555 310.169 74.1911 309.015 73.7165 323.729C73.2418 338.443 94.2847 328.103 106.309 332.756C118.294 337.409 111.214 347.032 109.711 355.423C108.208 363.853 140.247 359.718 154.17 359.996C168.093 360.274 149.661 373.079 153.853 380.516C158.046 387.992 203.296 386.202 213.541 383.299C223.785 380.436 207.964 332.319 196.691 325.598C185.418 318.877 173.354 338.562 168.014 332.398C162.674 326.234 152.983 297.96 145.903 301.977C138.783 306.033 130.437 316.69 122.17 302.016C113.904 287.343 97.2513 275.492 86.5321 284.241C75.8129 293.029 56.629 267.817 33.6875 284.797Z" fill="#7CDC84"/>
<path d="M209.111 378.846C208.439 379.243 207.727 379.243 207.529 378.885C199.064 363.854 130.24 309.413 45.5146 288.337C45.0004 288.218 45.0004 287.701 45.5146 287.223C45.9892 286.706 46.8199 286.428 47.2945 286.547C132.336 307.703 201.477 362.462 209.942 377.533C210.139 377.851 209.784 378.448 209.111 378.846Z" fill="#75C97B"/>
<path d="M460.018 80.3401C429.205 66.1036 378.694 46.1011 337.676 46.1011H332.692C307.813 46.1011 279.452 53.4579 254.098 62.4054C237.643 68.2113 222.494 74.733 210.351 80.3003C193.659 88.015 184.206 106.029 187.212 124.242L227.003 364.671C228.902 376.163 238.791 384.554 250.34 384.554H420.028C431.618 384.554 441.467 376.124 443.365 364.671L483.117 124.322C486.163 106.069 476.71 88.0548 460.018 80.3401Z" fill="#6A6299"/>
<path d="M460.018 80.3401C429.205 66.1036 378.694 46.1011 337.676 46.1011H332.692C307.813 46.1011 279.452 53.4579 254.098 62.4054C237.643 68.2113 222.494 74.733 210.351 80.3003C193.659 88.015 184.206 106.029 187.212 124.242L227.003 364.671C228.902 376.163 238.791 384.554 250.34 384.554H420.028C431.618 384.554 441.467 376.124 443.365 364.671L483.117 124.322C486.163 106.069 476.71 88.0548 460.018 80.3401Z" fill="#F5CBBA"/>
<path d="M442.574 80.3399C411.761 66.1034 361.251 46.1406 320.233 46.1406H315.249C290.369 46.1406 262.009 53.4974 236.655 62.4449C220.2 68.2508 205.051 74.7725 192.908 80.3399C176.216 88.0546 166.762 106.069 169.768 124.282L209.56 364.671C211.459 376.163 221.347 384.554 232.897 384.554H402.585C414.174 384.554 424.023 376.123 425.922 364.671L465.674 124.322C468.72 106.069 459.266 88.0546 442.574 80.3399Z" fill="#8E88B3"/>
<path d="M320.232 70.9551H315.248C296.776 70.9551 272.965 76.0054 245.91 85.4699C241.282 87.1003 238.552 91.8723 239.423 96.7238L244.09 122.174C245.198 128.259 251.447 131.877 257.222 129.77C280.717 121.3 301.246 116.528 315.248 116.528H320.232C334.036 116.528 354.13 121.18 377.19 129.412C383.084 131.52 389.413 127.702 390.362 121.498L394.278 95.8092C394.99 91.0372 392.221 86.4243 387.712 84.8336C361.408 75.8066 338.269 70.9551 320.232 70.9551Z" fill="#FFEBC7"/>
<path d="M261.336 102.132C287.679 93.6219 304.925 91.6733 315.248 91.6733H320.232C333.997 91.6733 351.876 95.0933 372.523 101.615L371.89 105.751C354.724 100.263 335.896 95.7693 320.232 95.7693H315.248C299.11 95.7693 279.729 100.502 262.087 106.188L261.336 102.132Z" fill="#EB5764"/>
<path d="M272.016 89.9634H269.604V112.63H272.016V89.9634Z" fill="#EB5764"/>
<path d="M364.415 90.2417H362.002V112.909H364.415V90.2417Z" fill="#EB5764"/>
<path d="M317.899 81.0557H315.486V103.723H317.899V81.0557Z" fill="#EB5764"/>
<path d="M425.961 364.671L465.713 124.322C468.719 106.109 459.265 88.0947 442.574 80.38C440.715 79.5449 438.816 78.6302 436.838 77.7554L201.49 315.997L209.559 364.671C211.458 376.164 221.346 384.554 232.896 384.554H402.584C414.174 384.554 424.062 376.124 425.961 364.671Z" fill="#F5CBBA"/>
<path d="M366.707 360.416C317.66 400.023 259.634 382.725 235.98 367.256C235.98 367.256 276.998 283.388 292.108 267.561C294.046 265.533 303.025 267.044 303.658 267.521C309.393 271.498 366.707 360.416 366.707 360.416Z" fill="#D63E4C"/>
<path d="M360.141 350.275L349.105 350.196L353.733 365.784L361.486 364.353C363.226 363.12 364.967 361.808 366.668 360.416C366.707 360.416 364.176 356.479 360.141 350.275Z" fill="#F0D6A8"/>
<path d="M364.928 357.672L354.248 358.149L356.78 364.035C356.78 364.035 359.904 363.597 363.306 363.04C364.453 362.205 365.561 361.33 366.668 360.416C366.708 360.416 366.075 359.422 364.928 357.672Z" fill="#BCCC8B"/>
<path d="M366.707 360.416H355.711C355.711 360.416 286.965 355.723 281.942 357.553C277.987 358.984 265.369 370.238 258.961 378.112C287.559 387.775 329.684 390.281 366.707 360.416Z" fill="#74873E"/>
<path d="M355.711 360.416C306.664 400.024 248.638 382.725 224.984 367.256C224.984 367.256 286.926 263.585 292.662 267.521C298.397 271.458 355.711 360.416 355.711 360.416Z" fill="#FFEBC7"/>
<path d="M354.248 358.109C306.545 396.007 250.616 380.538 226.052 365.466C225.38 366.619 224.984 367.216 224.984 367.216C248.638 382.685 306.624 399.984 355.711 360.376C355.711 360.416 355.197 359.581 354.248 358.109Z" fill="#D8EBA0"/>
<path d="M230.047 358.905C256.39 372.266 305.793 382.526 349.145 350.196C333.916 326.734 297.25 270.623 292.74 267.521C287.954 264.26 244.919 334.369 230.047 358.905Z" fill="#EB5764"/>
<path d="M292.859 319.218C292.859 320.61 291.751 326.376 290.367 326.376C288.983 326.376 287.875 320.61 287.875 319.218C287.875 317.826 288.983 316.712 290.367 316.712C291.751 316.673 292.859 317.826 292.859 319.218Z" fill="#992D38"/>
<path d="M294.837 353.417C294.837 354.809 293.73 360.575 292.345 360.575C290.961 360.575 289.854 354.809 289.854 353.417C289.854 352.025 290.961 350.912 292.345 350.912C293.73 350.872 294.837 352.025 294.837 353.417Z" fill="#992D38"/>
<path d="M307.218 299.215C307.218 300.607 306.111 306.373 304.726 306.373C303.342 306.373 302.234 300.607 302.234 299.215C302.234 297.823 303.342 296.71 304.726 296.71C306.071 296.71 307.218 297.823 307.218 299.215Z" fill="#992D38"/>
<path d="M321.339 337.192C321.339 338.584 320.232 344.35 318.847 344.35C317.463 344.35 316.355 338.584 316.355 337.192C316.355 335.8 317.463 334.687 318.847 334.687C320.232 334.687 321.339 335.8 321.339 337.192Z" fill="#992D38"/>
<path d="M264.419 343.515C264.419 344.907 263.312 350.673 261.927 350.673C260.543 350.673 259.436 344.907 259.436 343.515C259.436 342.123 260.543 341.01 261.927 341.01C263.272 340.97 264.419 342.123 264.419 343.515Z" fill="#992D38"/>
<path d="M277.314 301.204C277.314 302.595 276.206 308.362 274.822 308.362C273.438 308.362 272.33 302.595 272.33 301.204C272.33 299.812 273.438 298.698 274.822 298.698C276.167 298.698 277.314 299.812 277.314 301.204Z" fill="#992D38"/>
<path d="M301.759 296.591L293.492 301.323C291.712 302.357 289.418 301.72 288.429 299.931L283.722 291.62C282.694 289.83 283.327 287.524 285.107 286.53L293.374 281.797C295.154 280.763 297.448 281.4 298.437 283.189L303.144 291.5C304.132 293.29 303.539 295.557 301.759 296.591Z" fill="#6B483B"/>
<path d="M334.076 353.695L325.809 358.428C324.029 359.461 321.735 358.825 320.746 357.036L294.205 310.151C293.176 308.361 293.809 306.055 295.589 305.061L303.856 300.329C305.636 299.295 307.93 299.931 308.919 301.72L335.46 348.605C336.488 350.355 335.856 352.661 334.076 353.695Z" fill="#6B483B"/>
<path d="M122.975 267.561C127.998 337.391 183.849 415.89 264.421 371.988C197.455 283.746 122.975 267.561 122.975 267.561Z" fill="#9EBD47"/>
<path d="M139.073 213.359C93.6252 221.153 134.247 364.035 222.889 375.925C311.53 387.815 300.455 295.835 254.057 253.881C207.818 212.087 161.105 209.581 139.073 213.359Z" fill="#D8EBA0"/>
<path d="M237.722 371.431C233.292 371.431 228.545 371.113 223.601 370.437C165.1 362.603 126.614 292.375 125.783 247.479C125.625 237.696 127.207 220.955 139.983 218.767C144.493 217.972 149.516 217.614 154.816 217.614C173.842 217.614 211.498 222.863 250.34 257.938C276.762 281.837 290.448 321.803 280.797 347.054C274.745 363.041 259.833 371.431 237.722 371.431Z" fill="#FFEBC7"/>
<path d="M254.094 336.465C266.159 322.506 263.412 300.247 247.96 286.749C232.508 273.252 210.202 273.626 198.138 287.586C186.073 301.546 188.819 323.805 204.271 337.302C219.723 350.8 242.03 350.425 254.094 336.465Z" fill="#B36E33"/>
<path d="M258.171 300.368C257.617 306.89 255.205 313.133 250.775 318.263C238.711 332.221 216.402 332.579 200.936 319.098C196.427 315.161 192.986 310.469 190.692 305.458C189.782 316.672 194.449 328.722 204.219 337.272C219.685 350.752 241.994 350.394 254.058 336.436C262.601 326.574 263.709 312.537 258.171 300.368Z" fill="#975012"/>
<path d="M239.648 306.439C245.239 300.818 245.239 291.703 239.648 286.081C234.056 280.459 224.99 280.459 219.398 286.081C213.806 291.703 213.806 300.818 219.398 306.439C224.99 312.061 234.056 312.061 239.648 306.439Z" fill="#6B483B"/>
<path d="M511.081 384.395H403.572C397.837 384.395 393.051 380.021 392.537 374.255L376.399 194.073C375.805 187.551 380.908 181.944 387.434 181.944H527.259C533.746 181.944 538.888 187.551 538.294 194.073L522.117 374.255C521.602 380.021 516.816 384.395 511.081 384.395Z" fill="#94CCFD"/>
<path d="M404.521 372.227H510.131L523.5 222.983C518.991 223.182 513.611 223.937 508.232 226.005C495.219 231.056 495.496 227.198 483.076 226.005C470.655 224.812 465.316 232.845 449.613 226.602C433.91 220.358 428.886 225.409 416.743 228.67C406.973 231.294 401.594 224.494 391.23 224.057L404.521 372.227Z" fill="#FFD563"/>
<path d="M505.278 298.951C517.543 286.62 517.543 266.629 505.278 254.298C493.013 241.968 473.128 241.968 460.864 254.298C448.599 266.629 448.599 286.62 460.863 298.951C473.128 311.281 493.013 311.281 505.278 298.951Z" fill="#EB7B36"/>
<path d="M501.745 299.232C514.01 286.901 514.01 266.909 501.745 254.579C489.48 242.248 469.595 242.248 457.33 254.579C445.066 266.909 445.066 286.901 457.33 299.232C469.595 311.562 489.48 311.562 501.745 299.232Z" fill="#FF9F63"/>
<path d="M506.22 283.279C509.699 268.467 500.576 253.624 485.843 250.126C471.11 246.629 456.346 255.801 452.867 270.613C449.389 285.425 458.512 300.268 473.245 303.765C487.978 307.263 502.742 298.091 506.22 283.279Z" fill="#FFC5A1"/>
<path d="M482.629 277.412C482.905 275.7 481.748 274.086 480.045 273.808C478.341 273.53 476.736 274.693 476.46 276.406C476.183 278.118 477.34 279.732 479.043 280.01C480.747 280.288 482.352 279.125 482.629 277.412Z" fill="#FFD5BA"/>
<path d="M486.201 275.793L498.542 274.003C500.599 273.725 502.22 271.856 501.904 270.146C501.627 268.754 501.192 267.362 500.52 266.05C499.531 264.101 498.225 262.431 496.604 261.039C495.259 259.886 492.807 260.363 491.501 261.914L483.63 271.379C481.89 273.606 483.393 276.23 486.201 275.793Z" fill="#FF934F"/>
<path d="M483.828 281.997L491.739 291.7C493.044 293.33 495.457 293.767 496.762 292.614C497.83 291.66 498.78 290.546 499.531 289.314C500.678 287.484 501.43 285.456 501.746 283.349C502.023 281.599 500.401 279.73 498.384 279.412L486.241 277.543C483.472 277.145 482.009 279.809 483.828 281.997Z" fill="#FF934F"/>
<path d="M477.144 283.11L472.674 294.801C471.922 296.75 472.713 299.096 474.375 299.653C475.72 300.09 477.143 300.369 478.607 300.448C480.782 300.528 482.879 300.17 484.857 299.414C486.478 298.778 487.309 296.432 486.557 294.523L482.167 282.991C481.138 280.366 478.172 280.446 477.144 283.11Z" fill="#FF934F"/>
<path d="M472.912 277.94L460.611 280.008C458.554 280.366 456.972 282.235 457.328 283.945C457.604 285.337 458.119 286.689 458.791 288.001C459.82 289.91 461.204 291.58 462.826 292.892C464.21 294.006 466.623 293.489 467.889 291.898L475.523 282.235C477.302 280.008 475.72 277.463 472.912 277.94Z" fill="#FF934F"/>
<path d="M475.285 271.578L467.334 261.915C465.99 260.284 463.616 259.847 462.311 261.04C461.243 261.994 460.333 263.108 459.542 264.34C458.395 266.209 457.683 268.198 457.327 270.305C457.05 272.055 458.712 273.924 460.729 274.202L472.872 276.032C475.641 276.429 477.065 273.765 475.285 271.578Z" fill="#FF934F"/>
<path d="M481.811 270.384L486.043 258.574C486.755 256.585 485.885 254.279 484.224 253.762C482.879 253.325 481.455 253.086 479.992 253.046C477.816 253.006 475.72 253.404 473.782 254.199C472.16 254.875 471.408 257.222 472.16 259.13L476.788 270.543C477.856 273.208 480.862 273.089 481.811 270.384Z" fill="#FF934F"/>
<path d="M411.681 296.591C400.527 308.998 400.171 331.347 412.037 343.277C424.299 355.604 444.155 355.604 456.417 343.277L434.939 320.451L411.681 296.591Z" fill="#EB7B36"/>
<path d="M413.777 298.659C402.623 311.066 402.979 330.154 414.845 342.084C427.107 354.411 446.963 354.411 459.225 342.084L437.747 319.258L413.777 298.659Z" fill="#FF9F63"/>
<path d="M456.416 339.261C456.456 339.221 456.456 339.181 456.495 339.181L437.786 319.298L416.822 301.323C407.013 312.14 407.29 328.881 417.693 339.3C428.372 349.997 445.697 349.997 456.416 339.261Z" fill="#FFC5A1"/>
<path d="M436.481 326.416L435.255 338.902C435.057 340.97 436.442 342.998 438.182 343.117C439.606 343.197 441.03 343.078 442.454 342.76C444.59 342.282 446.489 341.368 448.229 340.135C449.653 339.101 449.811 336.596 448.585 334.965L441.307 325.024C439.646 322.717 436.758 323.592 436.481 326.416Z" fill="#FF934F"/>
<path d="M430.983 322.439L419.591 327.529C417.693 328.364 416.625 330.591 417.416 332.142C418.049 333.414 418.84 334.607 419.829 335.721C421.292 337.351 423.032 338.584 424.971 339.459C426.553 340.175 428.807 339.101 429.638 337.232L434.622 325.938C435.729 323.393 433.593 321.286 430.983 322.439Z" fill="#FF934F"/>
<path d="M431.657 315.798L421.491 308.521C419.79 307.288 417.338 307.526 416.389 308.958C415.598 310.151 415.004 311.463 414.569 312.855C413.936 314.923 413.739 317.07 413.976 319.178C414.174 320.928 416.231 322.32 418.248 322.081L430.431 320.689C433.278 320.371 433.951 317.428 431.657 315.798Z" fill="#FF934F"/>
<path d="M435.334 317.19C435.176 317.309 434.978 317.429 434.82 317.588C433.594 318.82 433.594 320.769 434.82 322.002C436.046 323.234 437.984 323.234 439.211 322.002C439.408 321.803 439.567 321.564 439.685 321.326L437.747 319.258L435.334 317.19Z" fill="#FFD5BA"/>
<path d="M451.868 227.397L443.166 224.534L498.067 124.362C498.819 123.01 500.203 122.135 501.746 122.015C503.289 121.896 504.792 122.612 505.701 123.845L512.979 133.747L522.393 119.987C523.224 118.755 524.648 117.999 526.151 117.999H567.01V127.145H528.524L516.856 144.205C516.025 145.438 514.641 146.154 513.177 146.194C511.753 146.233 510.329 145.517 509.459 144.324L502.616 134.979L451.868 227.397Z" fill="#EB5764"/>
<path d="M426.791 225.448L399.934 274.878L407.924 279.252L438.064 223.698C433.871 223.42 430.43 224.255 426.791 225.448Z" fill="#EB5764"/>
<path opacity="0.33" d="M508.827 217.773L491.818 216.501C488.14 216.222 485.371 213.001 485.648 209.303L486.914 192.203C487.191 188.505 490.394 185.721 494.073 186L511.081 187.272C514.76 187.551 517.529 190.772 517.252 194.47L515.986 211.57C515.709 215.268 512.505 218.051 508.827 217.773Z" fill="white"/>
<path opacity="0.33" d="M500.165 335.244L483.156 333.971C479.478 333.693 476.709 330.472 476.986 326.773L484.106 230.26C484.383 226.562 487.586 223.778 491.265 224.056L508.273 225.329C511.952 225.607 514.721 228.828 514.444 232.527L507.324 329.04C507.008 332.778 503.804 335.522 500.165 335.244Z" fill="white"/>
<path d="M325.531 180.745C321.26 192.039 328.221 194.345 331.504 182.654C335.183 185.756 338.545 185.239 338.545 185.756C340.246 193.351 343.133 190.249 344.518 184.761C345.902 179.274 349.976 178.677 349.976 181.063C349.976 189.573 346.693 194.266 344.201 196.453C341.709 198.64 341.432 201.94 341.432 201.94L341.551 213.155L339.296 216.217C339.296 216.217 337.754 220.074 337.556 220.75C337.358 221.466 336.448 221.943 335.46 221.943C334.471 221.943 333.759 223.335 332.493 222.46C331.188 221.545 331.9 221.744 328.103 222.46C324.305 223.176 322.723 219.756 319.954 219.676C317.186 219.557 315.564 217.887 315.485 215.58C315.366 213.274 317.779 193.59 319.48 187.784C321.181 181.978 321.378 178.081 321.378 178.081L325.531 180.745Z" fill="#75C97B"/>
<path d="M331.782 152.352C330.397 148.256 327.312 151.437 327.312 151.437C310.699 146.426 315.762 160.146 315.366 160.146C304.331 168.258 317.542 177.444 317.858 177.643C314.892 182.654 320.746 181.222 320.746 181.222C324.306 184.722 325.413 182.813 325.413 182.813C330.476 184.324 330.872 183.608 330.872 183.608C332.968 192.118 340.919 187.625 341.195 186.511C347.247 190.806 347.643 185.398 348.355 185.318C362.159 185.915 357.413 179.83 357.413 179.83C366.866 175.933 357.61 168.417 357.61 168.417C359.509 159.629 353.141 162.611 353.141 162.611C356.068 140.263 334.867 140.859 331.782 152.352Z" fill="#8FD995"/>
<path d="M346.297 214.308C345.15 210.49 345.309 209.973 343.924 207.547C342.54 205.161 342.382 201.105 341.947 200.787C340.206 201.344 340.839 206.593 340.918 207.269C340.958 207.985 339.336 215.779 339.336 216.097C339.534 217.012 340.364 220.193 340.364 220.193C340.364 220.193 344.241 220.193 344.478 219.835C344.715 219.557 346.297 214.308 346.297 214.308Z" fill="#FFB69F"/>
<path d="M386.406 369.199C386.248 371.466 386.169 374.13 387.672 376.755C389.175 379.379 389.372 383.435 389.372 384.27H357.848C359.43 380.97 366.035 379.26 370.663 376.476C375.291 373.693 375.726 371.823 376.122 370.273C376.517 368.682 386.406 369.199 386.406 369.199Z" fill="#FF8762"/>
<path d="M388.225 377.868C385.931 379.18 380.67 381.168 372.561 379.18C371.849 378.106 372.008 377.152 371.217 376.158C371.058 376.277 370.9 376.357 370.702 376.476C366.074 379.26 359.429 380.969 357.887 384.27H389.411C389.411 383.554 389.253 380.413 388.225 377.868Z" fill="#2B1710"/>
<path d="M413.302 369.199C413.144 371.466 413.065 374.13 414.568 376.755C416.071 379.379 416.269 383.435 416.269 384.27H384.744C386.326 380.97 392.932 379.26 397.56 376.476C402.188 373.693 402.623 371.823 403.018 370.273C403.374 368.682 413.302 369.199 413.302 369.199Z" fill="#FF8762"/>
<path d="M415.082 377.868C412.788 379.18 407.527 381.168 399.419 379.18C398.707 378.106 398.865 377.152 398.074 376.158C397.916 376.277 397.757 376.357 397.56 376.476C392.932 379.26 386.287 380.969 384.744 384.27H416.269C416.269 383.554 416.111 380.413 415.082 377.868Z" fill="#4A281C"/>
<path d="M409.744 255.506C409.744 255.506 414.806 306.566 414.806 306.884C414.806 307.203 414.292 311.975 415.004 321.28C415.716 330.585 417.575 371.465 417.575 371.465C417.575 371.465 409.823 374.647 397.877 371.863C397.877 371.863 396.493 334.999 396.018 327.802C395.583 320.604 392.3 271.731 392.3 271.731C392.3 271.731 390.401 314.201 390.718 319.212C391.034 324.223 393.091 371.306 393.012 371.704C377.784 375.601 372.048 369.994 372.048 369.994C372.048 369.994 370.862 311.776 371.89 303.981C372.918 296.187 382.332 246.24 382.332 246.24L396.809 245.485L409.744 255.506Z" fill="#425B95"/>
<path d="M385.971 252.126H402.267C402.267 252.126 402.465 246.797 402.228 246.718C401.99 246.678 386.722 248.786 386.722 248.786L385.971 252.126Z" fill="#2B1710"/>
<path d="M387.434 249.978H403.572L404.917 216.455L383.953 215.7L387.434 249.978Z" fill="#FFEBC7"/>
<path d="M431.695 250.098C430.192 243.099 421.451 219.995 419.75 216.813C418.049 213.632 402.069 206.315 402.069 206.315L399.3 219.12L401.199 222.381C398.905 242.224 398.034 311.179 398.311 313.088C408.239 311.179 415.992 312.889 417.812 311.378C416.625 295.472 416.032 284.655 415.676 277.06C420.462 278.929 425.643 279.724 425.643 279.724C425.643 279.724 433.198 257.097 431.695 250.098ZM415.28 269.822C415.003 264.533 414.726 261.63 414.133 259.403C412.63 253.995 411.048 248.189 411.048 246.598C411.048 245.008 412.63 236.816 412.63 236.816L418.089 251.49L415.28 269.822Z" fill="white"/>
<path d="M389.056 222.023C389.808 231.805 388.067 263.42 386.564 281.394C385.061 299.369 385.576 312.77 385.259 312.691C374.817 309.589 368.251 310.305 367.578 310.185C370.664 289.785 369.279 274.912 372.048 262.306C374.817 249.7 380.513 242.224 379.207 237.412C375.212 240.315 359.509 245.724 358.718 245.406C357.927 245.087 334.946 227.63 335.144 225.999C339.534 217.092 346.298 214.308 346.298 214.308C346.298 214.308 360.3 228.783 362.318 228.505C364.295 228.187 377.348 210.331 379.919 208.9C382.49 207.508 391.153 205.758 391.153 205.758L389.056 222.023Z" fill="white"/>
<path d="M391.508 175.138C385.654 174.024 387.869 175.695 387.078 176.331C386.287 176.967 383.637 177.444 384.547 178.677C385.456 179.91 385.733 180.864 384.032 181.421C382.332 181.978 383.835 182.773 383.716 183.727C383.597 184.682 380.67 183.727 381.62 185.557C382.569 187.386 383.202 188.102 380.512 189.772C377.822 191.402 379.088 192.158 379.681 193.152C380.275 194.146 379.365 194.266 378.851 195.26C378.297 196.254 379.405 196.572 379.642 197.169C379.879 197.765 374.974 197.049 377.783 198.918C380.631 200.748 379.958 200.231 378.89 200.668C377.783 201.105 378.139 202.298 379.088 202.855C378.693 202.259 379.484 202.656 380.393 201.066C381.303 199.475 379.365 198.719 379.879 198.123C380.433 197.526 380.947 196.333 381.62 196.214C382.806 197.049 379.325 197.725 380.908 198.958C382.49 200.191 382.529 200.509 381.936 201.105C381.343 201.702 381.896 202.895 382.055 202.855C382.45 202.696 382.015 202.815 384.388 203.491C386.762 204.207 386.682 202.537 389.254 203.372C391.825 204.207 396.017 203.054 396.808 203.332C397.599 203.571 399.498 204.366 400.606 204.167C401.713 203.969 401.555 202.935 402.504 203.849C403.454 204.804 405.431 204.804 407.29 204.207C409.149 203.611 408.833 203.65 410.217 203.77C411.602 203.889 411.364 204.883 411.76 203.452C412.155 202.02 412.393 199.117 411.325 198.6C414.568 200.748 411.958 203.889 413.065 203.929C414.173 203.969 415.201 204.565 415.438 203.293C415.676 201.98 416.467 202.298 416.942 201.543C417.416 200.787 415.834 198.64 416.15 197.407C416.467 196.174 418.049 195.896 416.744 194.862C415.438 193.828 415.003 193.152 415.359 191.601C415.715 190.05 411.681 190.607 411.443 188.738C411.206 186.909 411.404 184.483 410.732 184.125C410.059 183.767 409.743 183.767 409.703 182.534C409.664 181.302 409.545 181.739 408.596 180.904C407.646 180.069 408.596 178.995 407.172 178.359C405.748 177.723 406.025 178.399 405.392 176.927C404.759 175.416 404.877 174.74 403.295 174.86C401.713 175.019 401.159 174.223 400.329 173.945C399.498 173.706 398.232 174.74 397.204 174.462C396.176 174.144 395.147 172.712 394.316 172.911C393.446 173.189 391.429 174.74 391.508 175.138Z" fill="#2B1710"/>
<path d="M390.915 177.405C390.401 178.598 392.102 178.041 392.695 178.916C393.249 179.751 393.565 180.626 394.752 180.825C395.938 180.984 394.712 182.773 396.334 182.893C397.916 183.012 398.312 182.535 398.232 183.648C398.114 184.801 398.668 185.199 399.103 185.557C399.538 185.915 398.668 186.273 398.984 186.989C399.3 187.704 399.498 188.301 399.775 188.42C400.21 187.346 403.098 186.71 403.335 188.977C403.572 191.244 402.03 192.794 400.131 192.158C399.221 194.703 399.142 195.141 399.933 196.095C400.724 197.049 400.883 197.01 399.617 198.004C398.351 199.038 398.43 198.879 399.103 199.833C399.736 200.827 398.391 201.185 398.232 202.458C398.074 203.73 400.685 204.168 400.804 204.247C401.001 206.156 402.109 206.315 402.109 206.315C402.109 206.315 401.318 222.222 401.199 222.341C392.26 223.176 389.056 221.983 389.056 221.983C388.621 210.57 391.152 205.758 391.152 205.758C392.339 205.798 392.932 204.764 392.576 199.754C389.649 199.793 387.118 194.067 386.801 190.846C386.485 187.665 386.287 182.813 387.316 180.387C388.304 178.041 390.915 177.405 390.915 177.405Z" fill="#FFB69F"/>
<path d="M389.609 193.629C390.282 192.118 393.604 192.397 395.463 193.47C393.565 196.373 390.836 196.334 389.609 193.629Z" fill="#E0B3A8"/>
<path d="M390.322 191.442C390.006 191.442 389.729 191.403 389.61 191.363C389.571 191.323 389.531 191.323 389.531 191.283C389.492 191.164 389.61 191.045 389.768 190.766C390.401 189.891 391.865 187.784 390.085 184.523C390.045 184.483 390.085 184.404 390.124 184.404C390.164 184.364 390.243 184.404 390.243 184.443C392.102 187.784 390.599 189.971 389.927 190.886C389.848 191.005 389.729 191.164 389.729 191.204C390.006 191.323 390.995 191.244 391.588 191.164C391.627 191.164 391.707 191.204 391.707 191.244C391.707 191.283 391.667 191.363 391.627 191.363C391.509 191.363 390.876 191.442 390.322 191.442Z" fill="#2B1710"/>
<path d="M392.181 194.067C391.192 194.067 390.124 193.947 389.214 193.55C389.175 193.51 389.135 193.47 389.175 193.43C389.214 193.391 389.254 193.351 389.293 193.391C391.983 194.504 395.741 193.47 396.057 193.231C396.097 193.192 396.176 193.192 396.176 193.231C396.215 193.271 396.215 193.351 396.176 193.351C395.938 193.51 394.158 194.067 392.181 194.067Z" fill="#2B1710"/>
<path d="M392.339 196.93C391.943 196.93 391.469 196.89 390.915 196.731C390.875 196.731 390.836 196.652 390.836 196.612C390.836 196.572 390.915 196.532 390.955 196.532C392.458 196.97 393.407 196.572 393.447 196.572C393.486 196.532 393.565 196.572 393.565 196.612C393.605 196.652 393.565 196.731 393.526 196.731C393.486 196.771 393.051 196.93 392.339 196.93Z" fill="#E0B3A8"/>
<path d="M393.328 199.714C393.288 199.714 393.249 199.674 393.249 199.674C393.209 199.634 393.249 199.555 393.288 199.555C397.995 197.407 398.866 195.021 399.024 194.067C399.024 194.027 399.063 193.987 399.142 193.987C399.182 193.987 399.221 194.027 399.221 194.107C399.024 195.3 397.995 197.606 393.328 199.714C393.367 199.714 393.367 199.714 393.328 199.714Z" fill="#E0B3A8"/>
<path d="M400.844 191.482C400.804 191.482 400.804 191.482 400.765 191.482C400.725 191.482 400.686 191.442 400.686 191.363C400.686 191.323 400.725 191.283 400.804 191.283C401.081 191.323 401.358 191.124 401.556 190.846C401.714 190.567 401.754 190.289 401.635 190.09C401.477 189.851 401.16 189.772 400.646 189.851C400.606 189.851 400.606 189.851 400.567 189.812C400.527 189.772 400.527 189.772 400.527 189.732C400.527 189.692 400.725 188.38 401.437 188.102C401.754 187.982 402.07 188.102 402.466 188.38C402.505 188.42 402.505 188.46 402.466 188.499C402.426 188.539 402.386 188.539 402.347 188.499C402.03 188.221 401.754 188.141 401.516 188.261C401.042 188.46 400.844 189.295 400.765 189.613C401.398 189.573 401.674 189.772 401.793 189.971C401.951 190.209 401.912 190.607 401.714 190.925C401.516 191.283 401.16 191.482 400.844 191.482Z" fill="#E0B3A8"/>
<path d="M379.168 236.895C379.129 236.895 379.089 236.855 379.089 236.816C379.089 236.776 378.337 231.765 377.467 230.135C376.993 229.26 377.546 226.516 378.298 223.017C378.97 219.756 379.722 216.097 379.841 212.916C379.841 212.876 379.88 212.836 379.959 212.836C379.999 212.836 380.038 212.876 380.038 212.916C379.92 216.058 379.168 219.756 378.456 223.017C377.784 226.317 377.19 229.18 377.626 229.976C378.535 231.606 379.247 236.498 379.287 236.696C379.287 236.855 379.247 236.895 379.168 236.895Z" fill="#C9C9C9"/>
<path d="M359.589 231.646H359.549C359.51 231.606 359.51 231.567 359.51 231.527C359.945 230.891 360.301 230.294 360.617 229.817C361.131 228.982 361.25 228.743 361.408 228.783C361.527 228.823 361.527 228.982 361.527 229.022C361.527 229.658 361.804 231.169 361.804 231.209C361.804 231.249 361.764 231.328 361.725 231.328C361.685 231.328 361.606 231.288 361.606 231.248C361.606 231.169 361.29 229.698 361.29 229.022C361.171 229.141 360.934 229.539 360.736 229.896C360.459 230.374 360.064 230.97 359.628 231.646C359.628 231.646 359.628 231.646 359.589 231.646Z" fill="#C9C9C9"/>
<path d="M338.585 227.431C338.546 227.431 338.546 227.431 338.506 227.391C338.467 227.351 338.467 227.311 338.506 227.272L348.513 217.171C348.553 217.131 348.593 217.131 348.632 217.171C348.672 217.211 348.672 217.25 348.632 217.29L338.625 227.391C338.664 227.431 338.625 227.431 338.585 227.431Z" fill="#C9C9C9"/>
<path d="M412.63 230.692C412.551 230.692 412.511 230.652 412.551 230.572C412.551 230.532 413.302 224.766 419.354 218.165C419.394 218.125 419.433 218.125 419.473 218.165C419.512 218.205 419.512 218.245 419.473 218.284C413.46 224.846 412.709 230.532 412.709 230.612C412.709 230.652 412.669 230.692 412.63 230.692Z" fill="#C9C9C9"/>
<path d="M421.727 252.524H421.688C420.699 252.046 419.908 251.49 419.393 251.132C419.156 250.973 418.879 250.814 418.76 250.734C418.998 251.331 419.552 252.365 419.591 252.365C419.631 252.404 419.591 252.484 419.552 252.484C419.512 252.524 419.433 252.484 419.433 252.444C419.393 252.404 418.84 251.37 418.602 250.774C418.563 250.734 418.523 250.575 418.602 250.496C418.721 250.416 418.879 250.496 419.472 250.933C419.987 251.291 420.778 251.808 421.767 252.285C421.806 252.325 421.846 252.365 421.806 252.404C421.767 252.484 421.767 252.524 421.727 252.524Z" fill="#C9C9C9"/>
<path d="M425.129 277.179C425.05 277.179 419.829 275.708 415.161 273.401C415.122 273.361 415.082 273.322 415.122 273.282C415.161 273.242 415.201 273.202 415.241 273.242C419.868 275.549 425.09 276.98 425.129 276.98C425.169 276.98 425.208 277.06 425.208 277.099C425.208 277.139 425.208 277.179 425.129 277.179Z" fill="#C9C9C9"/>
<path d="M326.363 166.827C325.176 166.827 323.99 166.151 323.475 165.077C322.763 163.646 323.357 161.816 325.137 160.106C324.306 159.828 323.436 158.595 323.634 157.521C323.752 156.845 324.425 155.732 327.589 156.249C327.629 156.249 327.668 156.289 327.668 156.368C327.668 156.408 327.629 156.448 327.549 156.448C324.543 155.971 323.95 156.925 323.831 157.561C323.634 158.595 324.583 159.828 325.374 159.987C325.414 159.987 325.453 160.027 325.453 160.067C325.453 160.106 325.453 160.146 325.414 160.146C322.961 162.492 323.278 164.202 323.673 165.037C324.227 166.151 325.572 166.827 326.837 166.628C327.985 166.429 328.736 165.594 328.934 164.242C328.934 164.202 328.973 164.162 329.053 164.162C332.177 164.6 333.443 163.566 333.918 162.93C334.432 162.254 334.471 161.379 334.115 160.584C333.641 159.55 332.533 158.874 331.188 158.754C331.149 158.754 331.109 158.714 331.109 158.635C331.109 158.595 331.149 158.555 331.228 158.555C332.652 158.635 333.799 159.391 334.313 160.504C334.709 161.379 334.63 162.333 334.076 163.049C333.601 163.725 332.296 164.759 329.132 164.361C328.894 165.713 328.103 166.588 326.877 166.787C326.679 166.787 326.521 166.827 326.363 166.827Z" fill="white"/>
<path d="M343.094 171.599C342.066 171.599 340.839 171.439 339.376 171.042C339.336 171.042 339.297 170.962 339.297 170.922C339.297 170.883 339.376 170.843 339.416 170.843C343.767 171.996 346.694 171.32 347.485 168.934C348.276 166.548 346.417 162.77 342.738 161.299C342.699 161.299 342.699 161.259 342.659 161.219C342.659 161.18 342.659 161.14 342.699 161.14C343.45 160.742 343.885 160.066 343.885 159.271C343.885 158.356 343.371 157.481 342.58 157.084C341.749 156.646 340.76 156.805 339.772 157.561C339.732 157.601 339.653 157.601 339.653 157.521C339.613 157.481 339.613 157.402 339.692 157.402C340.721 156.646 341.789 156.487 342.699 156.925C343.529 157.362 344.123 158.277 344.123 159.271C344.123 160.106 343.727 160.782 343.015 161.219C346.654 162.77 348.473 166.588 347.682 169.014C347.366 169.889 346.377 171.599 343.094 171.599Z" fill="white"/>
<path d="M340.009 182.455C339.851 182.455 339.653 182.415 339.495 182.375C338.427 182.097 337.478 181.023 337.834 179.472C337.834 179.433 337.913 179.393 337.953 179.393C337.992 179.393 338.032 179.472 338.032 179.512C337.715 180.904 338.585 181.938 339.574 182.176C340.484 182.415 341.71 181.978 342.185 180.109C342.185 180.069 342.225 180.029 342.304 180.029C344.202 180.148 345.468 179.631 345.705 178.637C345.903 177.882 345.389 177.007 344.479 176.609C344.44 176.569 344.4 176.53 344.44 176.49C344.479 176.45 344.519 176.41 344.558 176.45C345.547 176.887 346.101 177.842 345.903 178.677C345.626 179.751 344.321 180.347 342.343 180.228C341.869 181.898 340.88 182.455 340.009 182.455Z" fill="white"/>
<path d="M396.097 187.585C396.097 188.301 395.741 188.897 395.266 188.897C394.792 188.897 394.436 188.301 394.436 187.585C394.436 186.869 394.792 186.272 395.266 186.272C395.741 186.272 396.097 186.869 396.097 187.585Z" fill="#2B1710"/>
<path d="M389.254 188.977C389.713 188.977 390.085 188.389 390.085 187.664C390.085 186.94 389.713 186.352 389.254 186.352C388.796 186.352 388.424 186.94 388.424 187.664C388.424 188.389 388.796 188.977 389.254 188.977Z" fill="#2B1710"/>
<path d="M393.09 184.722C395.74 184.125 397.797 184.96 397.797 184.96C395.582 182.892 393.288 183.767 393.09 184.722Z" fill="#2B1710"/>
<path d="M386.801 184.761C388.264 184.006 389.846 184.443 389.846 184.443C388.146 183.012 386.959 183.767 386.801 184.761Z" fill="#2B1710"/>
<path d="M415.993 277.219C414.015 279.485 414.134 282.349 413.541 284.257C412.947 286.166 413.145 286.087 414.174 285.212C415.202 284.297 415.954 281.354 416.824 281.951C417.654 282.547 417.18 297.142 419.513 292.41C420.819 293.404 420.937 292.569 420.937 292.569C422.44 291.932 423.073 287.319 423.073 284.417C423.073 281.514 422.915 279.207 422.915 279.207C420.384 278.531 415.993 277.219 415.993 277.219Z" fill="#FFB69F"/>
<path d="M419.671 292.29C419.631 292.29 419.592 292.25 419.592 292.171C419.829 287.717 419.829 285.172 419.829 285.132C419.829 285.093 419.869 285.053 419.908 285.053C419.948 285.053 419.987 285.093 419.987 285.132C419.987 285.172 419.987 287.717 419.75 292.171C419.79 292.25 419.71 292.29 419.671 292.29Z" fill="#E0B3A8"/>
<path d="M420.739 292.489C420.7 292.489 420.7 292.489 420.739 292.489C420.66 292.489 420.62 292.409 420.66 292.369C421.57 289.109 421.609 287.12 421.609 287.081C421.609 287.041 421.649 287.001 421.688 287.001C421.728 287.001 421.768 287.041 421.768 287.081C421.768 287.12 421.768 289.148 420.818 292.409C420.818 292.449 420.779 292.489 420.739 292.489Z" fill="#E0B3A8"/>
<path d="M200.658 117.442C207.264 114.778 211.931 118.675 212.564 121.3C206.314 123.765 201.449 119.232 200.658 117.442Z" fill="#8FD995"/>
<path d="M215.333 125.077C198.404 122.254 198.562 136.57 204.258 146.909C209.914 157.249 222.888 158.68 230.008 147.625C237.128 136.57 231.353 117.045 215.333 125.077Z" fill="#FF934F"/>
<path d="M204.337 126.668C198.997 130.565 200.263 139.711 204.258 146.909C209.914 157.248 222.888 158.68 230.008 147.625C231.313 145.597 232.184 143.29 232.619 140.904C220.95 141.461 205.564 134.82 204.337 126.668Z" fill="#ED7930"/>
<path d="M218.301 241.355C218.301 241.355 219.487 246.167 219.29 247.598C217.668 252.211 218.855 255.83 218.855 255.83H249.549C245.119 247.757 234.241 245.888 231.195 242.508C228.15 239.168 227.517 236.702 227.517 236.702L218.301 241.355Z" fill="#FF8762"/>
<path d="M195.714 210.297L206.789 210.735L215.452 243.423C228.584 245.411 230.957 238.611 230.957 238.611L225.301 216.421C225.301 216.421 230.522 186.994 226.725 183.097C222.928 179.2 172.694 178.484 172.694 178.484L162.884 178.126L158.217 188.664L195.714 210.297Z" fill="#425B95"/>
<path d="M171.785 176.257L172.655 178.524C172.655 178.524 170.084 184.051 162.925 185.085C155.766 186.119 160.947 180.432 160.947 180.432L171.785 176.257Z" fill="#2B1710"/>
<path d="M169.767 168.463C172.654 175.422 172.417 175.7 170.756 177.609C167.235 181.625 161.856 183.057 161.856 183.057C161.856 183.057 157.268 169.377 157.268 169.099C157.268 168.821 159.799 161.583 159.799 161.583L169.767 168.463Z" fill="#9ED6C6"/>
<path d="M143.859 130.685C134.643 136.292 131.281 145.995 132.19 156.294C133.1 166.634 134.01 176.019 133.456 183.892C132.902 191.766 134.247 206.162 144.531 208.786C154.815 211.411 195.675 210.218 195.675 210.218C188.199 197.89 169.45 187.949 166.682 185.761C163.873 183.574 164.506 182.302 163.24 179.876C161.975 177.45 161.342 166.674 161.342 166.674C161.342 166.674 175.66 172.638 179.181 171.008C182.701 169.378 202.597 152.994 202.597 152.994C199.986 145.836 195.952 140.229 195.952 140.229L184.165 146.75C184.165 146.75 159.404 130.287 156.002 130.406C152.64 130.605 143.859 130.685 143.859 130.685Z" fill="white"/>
<path d="M142.751 119.113C141.05 116.051 139.547 110.006 141.722 109.012C142.83 106.149 147.141 104.558 149.91 104.558C152.719 104.558 156.516 103.564 157.109 104.28C157.702 104.995 157.861 107.262 157.861 107.421C158.81 109.847 160.234 113.903 157.228 115.056C154.222 116.249 142.751 119.113 142.751 119.113Z" fill="#2B1710"/>
<path d="M150.504 108.257C148.685 109.052 147.261 107.899 147.3 109.251C147.34 110.603 146.509 111.199 146.272 112.193C146.035 113.188 147.063 115.892 147.221 116.727C147.34 117.522 145.718 118.119 145.679 117.999C143.622 115.852 141.842 117.045 142.198 119.312C142.554 121.578 145.085 122.016 145.085 122.016C145.402 125.396 144.69 130.049 143.859 130.725C152.719 134.701 156.873 140.626 156.873 140.626H161.975C161.698 139.115 156.873 131.162 156.042 130.486C155.172 129.81 155.646 127.861 155.646 127.861C155.646 127.861 158.573 127.464 158.89 126.43C159.206 125.396 160.116 120.027 159.602 118.278C159.088 116.528 158.811 113.983 158.85 112.591C158.89 111.199 157.229 107.302 157.229 107.302C155.449 107.461 152.522 106.666 150.504 108.257Z" fill="#FFB69F"/>
<path d="M156.239 119.789L156.199 119.63C157.307 119.232 158.454 118.755 158.691 118.596C158.691 118.596 158.651 118.556 158.612 118.556C156.357 116.687 155.289 114.858 155.527 113.267L155.685 113.307C155.447 114.858 156.476 116.607 158.691 118.437C158.77 118.477 158.81 118.516 158.81 118.556C158.849 118.596 158.849 118.636 158.849 118.675C158.81 118.834 157.425 119.391 156.239 119.789Z" fill="#2B1710"/>
<path d="M154.421 122.373C153.867 122.373 153.273 122.334 152.641 122.175L152.68 122.016C155.014 122.532 156.952 121.936 157.98 121.22C158.416 120.902 158.613 120.663 158.613 120.504L158.772 120.544C158.732 120.783 158.495 121.101 158.06 121.379C157.308 121.896 156.003 122.373 154.421 122.373Z" fill="#2B1710"/>
<path d="M155.686 124.282V124.123C157.228 124.044 157.901 123.288 157.94 123.288L158.059 123.407C158.019 123.407 157.307 124.203 155.686 124.282Z" fill="#E0B3A8"/>
<path d="M155.409 127.861C155.212 127.822 150.465 127.146 149.16 126.35C148.29 125.833 147.855 124.441 147.459 123.248C147.261 122.572 147.063 121.976 146.826 121.539L146.984 121.459C147.222 121.896 147.419 122.533 147.657 123.209C148.013 124.402 148.448 125.714 149.279 126.231C150.584 126.987 155.409 127.702 155.449 127.702L155.409 127.861Z" fill="#E0B3A8"/>
<path d="M145.045 120.783C144.293 120.743 143.818 120.146 143.818 119.629C143.818 119.192 144.095 118.715 144.926 118.595C144.728 118.277 144.293 117.919 143.818 117.84C143.462 117.8 143.106 117.919 142.83 118.238L142.711 118.118C143.106 117.681 143.542 117.641 143.858 117.681C144.451 117.76 144.966 118.238 145.124 118.635L145.045 118.755C144.372 118.834 143.977 119.152 143.977 119.629C143.977 120.067 144.372 120.584 145.045 120.624V120.783Z" fill="#E0B3A8"/>
<path d="M160.195 146.114C160.037 145.995 144.69 135.456 138.124 138.121L138.045 137.962C140.853 136.808 145.442 137.842 151.691 140.944C156.359 143.251 160.235 145.955 160.274 145.995L160.195 146.114Z" fill="#C9C9C9"/>
<path d="M173.682 149.892C173.682 149.852 171.783 144.205 170.043 140.785L170.201 140.706C171.942 144.125 173.84 149.772 173.84 149.812L173.682 149.892Z" fill="#C9C9C9"/>
<path d="M176.808 151.363C176.057 151.363 165.338 148.381 164.111 148.023L164.151 147.864C169.016 149.216 176.413 151.244 176.808 151.204C177.243 151.165 182.267 148.659 184.126 147.665L184.205 147.824C183.928 147.983 177.362 151.284 176.808 151.363Z" fill="#C9C9C9"/>
<path d="M176.57 155.499L176.412 155.459C176.61 153.709 176.61 151.761 176.61 151.721L176.768 151.681L177.52 153.431L177.361 153.51L176.768 152.119C176.729 152.834 176.689 154.226 176.57 155.499Z" fill="#C9C9C9"/>
<path d="M159.642 166.157C159.484 166.117 145.244 163.015 139.904 160.589L139.983 160.43C145.323 162.856 159.563 165.958 159.681 165.997L159.642 166.157Z" fill="#C9C9C9"/>
<path d="M224.628 215.069C224.589 214.871 220.04 195.504 219.367 193.635C218.814 192.124 185.39 184.131 172.535 181.188L172.575 181.029C174.473 181.467 218.814 191.647 219.526 193.596C220.198 195.465 224.747 214.871 224.786 215.069H224.628Z" fill="#B0B0B0"/>
<path d="M207.303 210.217C207.264 210.217 207.224 210.217 207.185 210.178C207.106 210.058 207.185 209.82 207.382 209.184C207.62 208.508 207.936 207.474 208.055 206.4L208.213 206.44C208.094 207.513 207.738 208.547 207.541 209.223C207.422 209.541 207.303 209.899 207.303 210.019C207.501 209.939 208.253 209.382 208.925 208.826L209.044 208.945C208.727 209.263 207.58 210.217 207.303 210.217Z" fill="#C9C9C9"/>
<path d="M152.412 118.21C152.802 118.069 152.933 117.435 152.704 116.794C152.475 116.154 151.973 115.749 151.582 115.89C151.192 116.031 151.061 116.665 151.29 117.306C151.519 117.946 152.021 118.351 152.412 118.21Z" fill="#2B1710"/>
<path d="M157.901 115.136C158.138 115.772 158.019 116.409 157.624 116.568C157.228 116.727 156.754 116.289 156.516 115.653C156.279 115.017 156.398 114.381 156.793 114.221C157.149 114.062 157.663 114.46 157.901 115.136Z" fill="#2B1710"/>
<path d="M148.289 115.653C149.634 113.585 152.917 113.227 152.838 113.188C150.069 112.313 148.408 113.903 148.289 115.653Z" fill="#2B1710"/>
<path d="M155.923 113.028C156.872 112.312 158.612 113.068 158.415 112.829C157.386 111.597 155.883 112.591 155.923 113.028Z" fill="#2B1710"/>
<path d="M196.545 141.382C196.901 138.558 197.771 136.491 198.681 135.218C199.591 133.946 199.788 131.202 199.947 131.202C201.291 131.719 201.529 133.747 201.252 134.86C200.975 135.974 201.489 136.451 204.812 135.735C208.134 135.019 210.903 133.707 211.022 134.423C211.14 135.139 203.309 137.962 205.207 138.479C207.106 139.036 211.852 136.888 212.644 136.968C213.395 137.047 212.446 138.558 212.446 138.558C213.237 139.235 211.852 140.706 211.852 140.706C212.248 142.654 209.875 145.001 207.185 145.876C204.495 146.75 201.529 148.58 201.291 149.335C198.404 143.49 196.545 141.382 196.545 141.382Z" fill="#FFB69F"/>
<path d="M207.502 141.422L207.463 141.263C207.502 141.263 209.757 140.626 211.933 138.598L212.051 138.717C209.876 140.746 207.542 141.422 207.502 141.422Z" fill="#E0B3A8"/>
<path d="M207.937 143.927L207.857 143.768C207.857 143.768 209.835 142.893 211.299 140.706L211.457 140.785C209.954 143.012 207.937 143.887 207.937 143.927Z" fill="#E0B3A8"/>
<path d="M156.873 140.626C159.919 144.643 160.789 146.074 160.789 146.074C160.789 146.074 163.755 148.103 163.755 147.904C163.083 142.814 161.936 140.626 161.936 140.626H156.873Z" fill="#9ED6C6"/>
<path d="M231.194 242.508C231.155 242.468 231.115 242.389 231.076 242.349C229.058 244.457 229.414 247.32 226.962 249.03C225.143 250.263 221.78 249.03 219.249 247.718C217.706 252.291 218.853 255.83 218.853 255.83H249.548C245.157 247.797 234.24 245.888 231.194 242.508Z" fill="#2B1710"/>
<path d="M215.966 126.032C215.175 121.419 212.248 118.954 212.248 118.954C213.276 118.954 215.294 118.397 215.768 118.477C217.588 122.413 215.966 126.032 215.966 126.032Z" fill="#D67B42"/>
<path d="M213.632 122.294C211.733 120.584 209.36 120.306 209.32 120.306L209.36 119.948C209.479 119.948 211.852 120.266 213.829 122.016L213.632 122.294Z" fill="#7BBA80"/>
<path d="M36.9817 272.214H20.8435C19.3009 272.214 18.0352 270.941 18.0352 269.39V252.649C18.0352 251.098 19.3009 249.825 20.8435 249.825H36.9421C38.4847 249.825 39.7505 251.098 39.7505 252.649V269.39C39.7505 270.941 38.5243 272.214 36.9817 272.214ZM20.8435 250.382C19.6173 250.382 18.5889 251.376 18.5889 252.649V269.39C18.5889 270.623 19.5778 271.657 20.8435 271.657H36.9421C38.1683 271.657 39.1967 270.663 39.1967 269.39V252.649C39.1967 251.416 38.2078 250.382 36.9421 250.382H20.8435Z" fill="#E1FFF7"/>
<path d="M35.2013 256.784H22.623V256.506C22.623 253.722 24.8776 251.456 27.6464 251.456H30.1779C32.9467 251.456 35.2013 253.722 35.2013 256.506V256.784ZM23.2164 256.188H34.6475C34.4893 253.842 32.5512 252.012 30.2175 252.012H27.686C25.2732 252.012 23.335 253.881 23.2164 256.188Z" fill="#E1FFF7"/>
<path d="M268.849 39.2616C266.555 39.2616 264.656 37.3925 264.656 35.0463C264.656 32.7398 266.515 30.8311 268.849 30.8311C271.143 30.8311 273.042 32.7001 273.042 35.0463C273.042 37.3925 271.143 39.2616 268.849 39.2616ZM268.849 31.4276C266.871 31.4276 265.25 33.058 265.25 35.0463C265.25 37.0346 266.871 38.6651 268.849 38.6651C270.827 38.6651 272.448 37.0346 272.448 35.0463C272.448 33.058 270.827 31.4276 268.849 31.4276Z" fill="#E1FFF7"/>
<path d="M273.557 28.4847C272.014 28.4847 270.709 27.2122 270.709 25.6215C270.709 24.0706 271.975 22.7583 273.557 22.7583C275.139 22.7583 276.405 24.0308 276.405 25.6215C276.405 27.2122 275.139 28.4847 273.557 28.4847ZM273.557 23.3548C272.291 23.3548 271.302 24.3887 271.302 25.6215C271.302 26.8543 272.331 27.8882 273.557 27.8882C274.823 27.8882 275.811 26.8543 275.811 25.6215C275.811 24.3887 274.823 23.3548 273.557 23.3548Z" fill="#E1FFF7"/>
<path d="M279.489 42.5223C277.946 42.5223 276.641 41.2498 276.641 39.6591C276.641 38.1082 277.906 36.7959 279.489 36.7959C281.031 36.7959 282.336 38.0684 282.336 39.6591C282.336 41.2498 281.031 42.5223 279.489 42.5223ZM279.489 37.3924C278.223 37.3924 277.234 38.4263 277.234 39.6591C277.234 40.8919 278.262 41.9258 279.489 41.9258C280.754 41.9258 281.743 40.8919 281.743 39.6591C281.743 38.4263 280.754 37.3924 279.489 37.3924Z" fill="#E1FFF7"/>
<path d="M271.882 27.6377L270.156 31.2598L270.656 31.5003L272.382 27.8783L271.882 27.6377Z" fill="#E1FFF7"/>
<path d="M271.847 37.3788L271.707 37.9175L276.874 39.2725L277.014 38.7338L271.847 37.3788Z" fill="#E1FFF7"/>
<path d="M71.3957 181.864C69.8135 183.534 67.1634 183.614 65.5021 182.023C63.8408 180.432 63.7617 177.768 65.3439 176.098C66.9261 174.428 69.5762 174.348 71.2375 175.939C72.8988 177.53 72.9779 180.194 71.3957 181.864ZM65.7394 176.456C64.355 177.927 64.4341 180.234 65.8581 181.586C67.3216 182.978 69.6158 182.898 70.9606 181.466C72.345 179.995 72.2659 177.689 70.8419 176.337C69.418 174.984 67.1238 175.024 65.7394 176.456Z" fill="#E1FFF7"/>
<path d="M66.886 171.008C65.8181 172.161 63.9986 172.201 62.891 171.127C61.744 170.053 61.7044 168.224 62.7724 167.111C63.8403 165.997 65.6598 165.918 66.7674 166.991C67.8749 168.065 67.954 169.854 66.886 171.008ZM63.1679 167.468C62.2977 168.383 62.3373 169.815 63.247 170.69C64.1568 171.564 65.5807 171.525 66.4509 170.61C67.3211 169.695 67.2816 168.264 66.3718 167.389C65.4621 166.514 64.0381 166.554 63.1679 167.468Z" fill="#E1FFF7"/>
<path d="M81.0462 176.336C79.9782 177.49 78.1587 177.529 77.0512 176.456C75.9041 175.382 75.8646 173.553 76.9325 172.439C78.0005 171.286 79.82 171.246 80.9275 172.32C82.0746 173.394 82.1141 175.223 81.0462 176.336ZM77.3676 172.837C76.4974 173.752 76.537 175.183 77.4467 176.058C78.3565 176.933 79.7804 176.893 80.6506 175.978C81.5208 175.064 81.4813 173.632 80.5715 172.757C79.6618 171.883 78.2378 171.922 77.3676 172.837Z" fill="#E1FFF7"/>
<path d="M65.6015 171.448L65.084 171.646L66.5062 175.399L67.0237 175.201L65.6015 171.448Z" fill="#E1FFF7"/>
<path d="M76.6324 175.556L72.0957 178.388L72.3878 178.861L76.9245 176.029L76.6324 175.556Z" fill="#E1FFF7"/>
<path d="M43.8254 360.018C42.2432 361.689 39.5931 361.768 37.9318 360.177C36.2705 358.587 36.1914 355.922 37.7736 354.252C39.3558 352.582 42.0059 352.503 43.6672 354.093C45.3284 355.684 45.4076 358.348 43.8254 360.018ZM38.1691 354.61C36.7847 356.081 36.8638 358.388 38.2878 359.74C39.7513 361.132 42.0454 361.052 43.3903 359.621C44.7747 358.149 44.6956 355.843 43.2716 354.491C41.8081 353.099 39.514 353.179 38.1691 354.61Z" fill="#E1FFF7"/>
<path d="M39.2766 349.162C38.2087 350.315 36.3892 350.355 35.2817 349.281C34.1346 348.208 34.095 346.378 35.163 345.265C36.231 344.112 38.0505 344.072 39.158 345.146C40.3051 346.219 40.3842 348.009 39.2766 349.162ZM35.5981 345.623C34.7279 346.537 34.7674 347.969 35.6772 348.844C36.5869 349.719 38.0109 349.679 38.8811 348.764C39.7513 347.85 39.7117 346.418 38.802 345.543C37.8922 344.668 36.4683 344.708 35.5981 345.623Z" fill="#E1FFF7"/>
<path d="M53.4759 354.491C52.4079 355.644 50.5884 355.684 49.4809 354.61C48.3338 353.536 48.2942 351.707 49.3622 350.594C50.4302 349.44 52.2497 349.401 53.3572 350.474C54.5043 351.548 54.5438 353.337 53.4759 354.491ZM49.7973 350.951C48.9271 351.866 48.9667 353.298 49.8764 354.173C50.7862 355.047 52.2101 355.008 53.0803 354.093C53.9505 353.178 53.911 351.747 53.0012 350.872C52.0915 349.997 50.6279 350.037 49.7973 350.951Z" fill="#E1FFF7"/>
<path d="M38.0292 349.603L37.5117 349.801L38.9339 353.554L39.4514 353.356L38.0292 349.603Z" fill="#E1FFF7"/>
<path d="M49.0113 353.701L44.4746 356.533L44.7667 357.006L49.3034 354.174L49.0113 353.701Z" fill="#E1FFF7"/>
<path d="M226.923 17.7874C226.805 17.7874 226.646 17.7874 226.528 17.7476C224.748 17.4295 222.651 15.2026 221.544 12.3791C220.753 10.351 221.307 8.12411 222.928 6.97088C224.431 5.85742 226.37 6.05625 228.149 7.44808C229.929 6.05625 231.868 5.85742 233.371 6.97088C234.953 8.12411 235.507 10.351 234.755 12.3791C233.648 15.1628 231.591 17.4295 229.771 17.7476C229.138 17.8669 228.545 17.7078 228.149 17.2704C227.833 17.6283 227.398 17.7874 226.923 17.7874ZM227.952 16.7137H228.426L228.505 16.7932C228.822 17.1511 229.217 17.2704 229.732 17.1909C231.076 16.9523 233.133 15.123 234.28 12.1803C234.992 10.3908 234.478 8.44224 233.094 7.44808C231.749 6.49368 229.969 6.69251 228.347 8.04458L228.149 8.20364L227.952 8.04458C226.33 6.69251 224.55 6.45392 223.205 7.44808C221.821 8.44224 221.346 10.3908 222.019 12.1803C223.166 15.123 225.222 16.9523 226.567 17.1909C227.081 17.2704 227.477 17.1511 227.793 16.7932L227.952 16.7137Z" fill="#E1FFF7"/>
<path d="M227.872 7.76636C227.199 5.5792 228.663 3.74994 228.702 3.67041L229.137 4.02831C229.137 4.02831 227.793 5.73827 228.386 7.6073L227.872 7.76636Z" fill="#E1FFF7"/>
<path d="M227.952 5.69828L227.557 5.65852C225.856 5.49945 224.63 4.98249 223.957 4.14739C223.246 3.27253 223.325 2.31813 223.364 2.27836L223.404 2.03976L223.641 2C226.924 1.68186 227.913 5.26085 227.913 5.30062L227.952 5.69828ZM223.918 2.55673C223.918 2.83509 224.037 3.31229 224.432 3.78949C224.986 4.46552 225.896 4.86319 227.201 5.06202C226.845 4.22692 225.935 2.51696 223.918 2.55673Z" fill="#E1FFF7"/>
<path d="M607.671 242.946C606.445 242.946 605.337 242.23 604.862 241.116C604.111 241.673 603.162 241.951 602.252 241.951C599.76 241.951 597.703 239.884 597.703 237.378C597.703 234.873 599.76 232.805 602.252 232.805C602.529 232.805 602.806 232.845 603.082 232.885C603.043 232.646 603.003 232.407 603.003 232.169C603.003 230.419 604.427 228.948 606.207 228.948C607.908 228.948 609.332 230.3 609.372 232.01C609.965 231.692 610.637 231.493 611.31 231.493C613.485 231.493 615.265 233.282 615.265 235.469C615.265 237.855 613.169 239.764 610.756 239.406C610.756 239.526 610.796 239.685 610.796 239.804C610.756 241.554 609.372 242.946 607.671 242.946ZM605.139 240.202L605.258 240.599C605.574 241.673 606.563 242.389 607.671 242.389C609.055 242.389 610.202 241.236 610.202 239.844C610.202 239.605 610.163 239.367 610.123 239.168L610.004 238.691L610.479 238.81C612.694 239.406 614.751 237.696 614.711 235.509C614.711 233.64 613.208 232.089 611.31 232.089C610.558 232.089 609.846 232.328 609.253 232.805L608.699 233.243L608.778 232.566C608.778 232.447 608.818 232.328 608.818 232.209C608.818 230.737 607.631 229.584 606.207 229.584C604.783 229.584 603.597 230.777 603.597 232.209C603.597 232.567 603.676 232.885 603.794 233.203L604.032 233.759L603.478 233.561C603.082 233.441 602.687 233.362 602.291 233.362C600.076 233.362 598.296 235.151 598.296 237.378C598.296 239.605 600.076 241.395 602.291 241.395C603.241 241.395 604.15 241.077 604.862 240.44L605.139 240.202Z" fill="#E1FFF7"/>
<path d="M607.988 249.666C607.711 249.666 607.434 249.587 607.197 249.388C606.682 248.95 606.089 248.911 605.258 249.229C604.507 249.507 604.072 249.706 603.716 249.507C603.558 249.428 603.439 249.268 603.36 249.03L603.32 248.911L603.399 248.791C603.399 248.751 605.021 246.286 603.676 241.395L604.23 241.236C605.496 245.849 604.309 248.394 603.993 248.99C603.993 248.99 603.993 248.99 604.032 249.03C604.19 249.109 604.744 248.871 605.14 248.712C606.168 248.314 606.959 248.394 607.632 248.95C608.027 249.268 608.621 249.03 609.174 248.791C609.293 248.751 609.412 248.712 609.491 248.672C609.807 248.553 610.282 248.553 610.677 248.553C609.609 244.854 610.045 241.077 610.045 240.917L610.598 240.997C610.598 241.037 610.124 245.093 611.31 248.791L611.389 248.911L611.231 249.268H610.836V249.229C610.559 249.189 610.045 249.149 609.649 249.268C609.57 249.308 609.451 249.348 609.333 249.388C608.897 249.467 608.462 249.666 607.988 249.666Z" fill="#E1FFF7"/>
<path d="M32.3544 110.284C31.1282 110.284 30.0207 109.569 29.546 108.455C28.7945 109.012 27.8452 109.29 26.9355 109.29C24.4435 109.29 22.3867 107.222 22.3867 104.717C22.3867 102.212 24.4435 100.144 26.9355 100.144C27.2123 100.144 27.4892 100.184 27.7661 100.224C27.7265 99.9849 27.687 99.7463 27.687 99.5077C27.687 97.758 29.1109 96.2866 30.8909 96.2866C32.5917 96.2866 34.0157 97.6387 34.0552 99.3486C34.6485 99.0305 35.321 98.8317 35.9934 98.8317C38.1689 98.8317 39.9488 100.621 39.9488 102.808C39.9488 105.194 37.8524 107.103 35.4396 106.745C35.4396 106.865 35.4792 107.024 35.4792 107.143C35.4396 108.853 34.0552 110.284 32.3544 110.284ZM29.7834 107.501L29.902 107.898C30.2185 108.972 31.2073 109.688 32.3148 109.688C33.6992 109.688 34.8463 108.535 34.8463 107.143C34.8463 106.904 34.8068 106.666 34.7672 106.467L34.6485 105.99L35.1232 106.109C37.3382 106.705 39.3555 104.995 39.3555 102.808C39.3555 100.939 37.8524 99.3884 35.9538 99.3884C35.2023 99.3884 34.4903 99.627 33.897 100.104L33.3433 100.542L33.4224 99.8656C33.4224 99.7463 33.4619 99.627 33.4619 99.5077C33.4619 98.0363 32.2753 96.8831 30.8513 96.8831C29.3878 96.8831 28.2408 98.0761 28.2408 99.5077C28.2408 99.8656 28.3199 100.184 28.4385 100.502L28.6759 101.059L28.1221 100.86C27.7265 100.74 27.331 100.661 26.9355 100.661C24.7204 100.661 22.9405 102.45 22.9405 104.677C22.9405 106.904 24.7204 108.694 26.9355 108.694C27.8848 108.694 28.7945 108.376 29.5065 107.739L29.7834 107.501Z" fill="#E1FFF7"/>
<path d="M32.6713 116.965C32.3944 116.965 32.1176 116.886 31.8802 116.687C31.366 116.25 30.7727 116.21 29.9421 116.528C29.1905 116.806 28.7554 117.005 28.3994 116.806C28.2412 116.727 28.1226 116.568 28.0435 116.329L28.0039 116.21L28.083 116.091C28.083 116.051 29.7047 113.585 28.3599 108.694L28.9137 108.535C30.1794 113.148 28.9928 115.693 28.6763 116.289C28.6763 116.289 28.6763 116.289 28.7159 116.329C28.8741 116.409 29.4279 116.17 29.8234 116.011C30.8518 115.613 31.6429 115.693 32.3153 116.25C32.7109 116.568 33.3042 116.329 33.8579 116.091C33.9766 116.051 34.0953 116.011 34.1744 115.971C34.4908 115.852 34.9655 115.852 35.361 115.852C34.293 112.154 34.7281 108.376 34.7281 108.217L35.2819 108.296C35.2819 108.336 34.8072 112.392 35.9939 116.091L36.073 116.21L35.9148 116.568H35.5192V116.528C35.2423 116.488 34.7281 116.448 34.3326 116.568C34.2535 116.608 34.1348 116.647 34.0162 116.687C33.5811 116.767 33.1064 116.965 32.6713 116.965Z" fill="#E1FFF7"/>
<path d="M205.088 62.4056C201.845 62.4056 198.799 60.457 197.533 57.2757C196.703 55.2476 196.742 53.0207 197.573 50.9926C198.443 48.9645 199.986 47.4136 202.042 46.5785C206.196 44.8686 210.982 46.9364 212.643 51.1119C214.344 55.2874 212.287 60.0991 208.134 61.7693C207.145 62.2068 206.117 62.4056 205.088 62.4056ZM205.049 46.5785C204.099 46.5785 203.15 46.7376 202.201 47.1352C200.302 47.8908 198.839 49.3622 198.047 51.2312C197.256 53.1002 197.256 55.1681 198.008 57.0769C199.59 60.974 204.02 62.8828 207.896 61.2921C211.773 59.7015 213.671 55.2476 212.089 51.3505C210.903 48.4078 208.055 46.5785 205.049 46.5785Z" fill="#E1FFF7"/>
<path d="M205.087 60.934C204.217 60.934 203.307 60.7352 202.477 60.3773C200.815 59.6615 199.55 58.389 198.877 56.7188C197.493 53.2989 199.154 49.362 202.556 47.9701C205.957 46.5783 209.873 48.2485 211.258 51.6684C212.642 55.0884 210.981 59.0252 207.579 60.4171C206.788 60.775 205.918 60.934 205.087 60.934ZM205.087 48.0497C204.336 48.0497 203.545 48.2087 202.793 48.4871C199.668 49.7596 198.126 53.3386 199.391 56.52C199.985 58.0311 201.171 59.2241 202.674 59.9001C204.177 60.5364 205.839 60.5761 207.381 59.9399C210.506 58.6673 212.049 55.0884 210.783 51.907C209.794 49.521 207.5 48.0497 205.087 48.0497Z" fill="#E1FFF7"/>
<path d="M205.088 55.9635C204.416 55.9635 203.743 55.5659 203.466 54.8501C203.308 54.4126 203.308 53.9354 203.466 53.498C203.664 53.0606 203.981 52.7424 204.416 52.5436C204.851 52.3845 205.325 52.3845 205.76 52.5436C206.196 52.7424 206.512 53.0606 206.71 53.498C206.868 53.9354 206.868 54.4126 206.71 54.8501C206.512 55.2875 206.196 55.6056 205.76 55.8045C205.523 55.9238 205.286 55.9635 205.088 55.9635ZM205.088 53.0208C204.93 53.0208 204.772 53.0606 204.653 53.1003C204.376 53.2196 204.139 53.4582 204.02 53.7366C203.901 54.015 203.901 54.3331 204.02 54.6512C204.257 55.2477 204.969 55.5659 205.563 55.2875C205.84 55.1682 206.077 54.9296 206.196 54.6512C206.314 54.3729 206.314 54.0547 206.196 53.7366C206.077 53.4582 205.84 53.2196 205.563 53.1003C205.404 53.0606 205.246 53.0208 205.088 53.0208Z" fill="#E1FFF7"/>
<path d="M202.916 48.142L202.402 48.3506L204.254 52.9595L204.768 52.751L202.916 48.142Z" fill="#E1FFF7"/>
<path d="M210.895 51.5642L206.311 53.4258L206.518 53.942L211.102 52.0804L210.895 51.5642Z" fill="#E1FFF7"/>
<path d="M205.887 55.4897L205.373 55.6982L207.225 60.3072L207.739 60.0986L205.887 55.4897Z" fill="#E1FFF7"/>
<path d="M203.608 54.5012L199.023 56.3628L199.231 56.879L203.815 55.0174L203.608 54.5012Z" fill="#E1FFF7"/>
<path d="M199.314 51.4376L199.092 51.9478L203.622 53.9391L203.844 53.4289L199.314 51.4376Z" fill="#E1FFF7"/>
<path d="M207.193 48.096L205.182 52.7241L205.689 52.947L207.7 48.3188L207.193 48.096Z" fill="#E1FFF7"/>
<path d="M206.517 54.5749L206.271 55.0737L210.737 57.2989L210.983 56.8001L206.517 54.5749Z" fill="#E1FFF7"/>
<path d="M204.116 55.4553L202.715 60.1396L203.245 60.2999L204.646 55.6156L204.116 55.4553Z" fill="#E1FFF7"/>
<path d="M86.0322 361.092C83.382 361.092 81.2461 358.945 81.2461 356.28C81.2461 353.815 83.2634 348.009 86.0322 348.009C88.801 348.009 90.8182 353.815 90.8182 356.28C90.8182 358.945 88.6823 361.092 86.0322 361.092ZM86.0322 348.566C83.8171 348.566 81.7999 353.815 81.7999 356.28C81.7999 358.626 83.6985 360.535 86.0322 360.535C88.3659 360.535 90.2645 358.626 90.2645 356.28C90.2645 353.815 88.2472 348.566 86.0322 348.566Z" fill="#E1FFF7"/>
<path d="M86.5862 358.905C85.4391 358.905 84.0943 358.348 83.4219 356.956L83.9361 356.718C84.6085 358.07 85.9534 358.507 87.0213 358.308L87.1004 358.865C86.9422 358.865 86.7444 358.905 86.5862 358.905Z" fill="#E1FFF7"/>
<path d="M83.0258 355.644C82.9467 355.047 82.9467 354.332 83.0654 353.616L83.6192 353.695C83.5005 354.371 83.5005 355.008 83.5796 355.564L83.0258 355.644Z" fill="#E1FFF7"/>
<path d="M597.388 119.311C594.738 119.311 592.602 117.164 592.602 114.499C592.602 112.034 594.619 106.228 597.388 106.228C600.156 106.228 602.174 112.034 602.174 114.499C602.174 117.164 600.038 119.311 597.388 119.311ZM597.388 106.785C595.173 106.785 593.155 112.034 593.155 114.499C593.155 116.846 595.054 118.754 597.388 118.754C599.721 118.754 601.62 116.846 601.62 114.499C601.62 112.034 599.603 106.785 597.388 106.785Z" fill="#E1FFF7"/>
<path d="M597.942 117.124C596.795 117.124 595.45 116.567 594.777 115.176L595.292 114.937C595.964 116.289 597.309 116.727 598.377 116.528L598.456 117.084C598.298 117.124 598.1 117.124 597.942 117.124Z" fill="#E1FFF7"/>
<path d="M594.381 113.863C594.302 113.267 594.302 112.551 594.421 111.835L594.975 111.914C594.856 112.591 594.856 113.227 594.935 113.784L594.381 113.863Z" fill="#E1FFF7"/>
<path d="M361.054 25.8996C358.68 25.8996 356.742 23.951 356.742 21.565C356.742 19.179 358.68 17.2305 361.054 17.2305C363.427 17.2305 365.365 19.179 365.365 21.565C365.405 23.951 363.466 25.8996 361.054 25.8996ZM361.054 17.7474C358.957 17.7474 357.296 19.4574 357.296 21.5253C357.296 23.5931 358.997 25.3031 361.054 25.3031C363.15 25.3031 364.811 23.5931 364.811 21.5253C364.811 19.4574 363.15 17.7474 361.054 17.7474Z" fill="#E1FFF7"/>
<path d="M361.33 24.7066C360.301 24.7066 359.115 24.1896 358.521 22.9569L359.036 22.7183C359.589 23.8715 360.776 24.2294 361.725 24.1101L361.804 24.6668C361.646 24.7066 361.488 24.7066 361.33 24.7066Z" fill="#E1FFF7"/>
<path d="M358.166 21.8437C358.087 21.287 358.087 20.6905 358.206 20.0542L358.76 20.1337C358.681 20.7302 358.641 21.287 358.72 21.7642L358.166 21.8437Z" fill="#E1FFF7"/>
<path d="M360.658 32.2624C360.42 32.2624 360.183 32.2624 359.946 32.2226C356.663 31.9442 353.617 29.9559 352.707 27.4506C351.165 23.2751 352.391 21.6049 353.498 20.1336C354.21 19.1792 354.804 18.3838 354.685 16.9125C354.487 14.5663 355.199 12.4984 356.623 11.4247C357.454 10.7884 358.957 10.1522 361.172 10.9873C362.319 11.4247 362.991 12.1803 363.664 12.8961C364.455 13.7709 365.206 14.606 366.789 14.7651C368.845 14.9639 370.744 15.9979 371.772 17.4294C372.643 18.6224 372.88 20.1336 372.524 21.7242C371.931 24.3488 370.981 24.8658 369.874 25.4225C368.885 25.9793 367.738 26.6155 366.353 29.081C365.285 31.1091 363.189 32.2624 360.658 32.2624ZM359.155 11.1861C358.324 11.1861 357.612 11.4247 356.979 11.9019C355.713 12.8961 355.08 14.7651 355.239 16.9125C355.397 18.5827 354.645 19.5768 353.933 20.5312C352.905 21.9231 351.797 23.3944 353.221 27.2916C354.052 29.598 356.9 31.4273 359.985 31.7056C362.635 31.9045 364.771 30.8705 365.879 28.8822C367.342 26.2576 368.608 25.5816 369.636 25.0249C370.665 24.4681 371.456 24.0307 372.01 21.6845C372.366 20.2529 372.128 18.9406 371.337 17.8669C370.388 16.5148 368.608 15.6002 366.749 15.4014C364.969 15.2423 364.099 14.2879 363.268 13.3335C362.635 12.6177 362.002 11.9417 361.014 11.5838C360.341 11.3054 359.708 11.1861 359.155 11.1861Z" fill="#E1FFF7"/>
<path d="M553.484 87.6169H541.578L542.646 84.5151H552.456L553.484 87.6169ZM542.33 87.0602H552.693L552.02 85.0719H543.002L542.33 87.0602Z" fill="#E1FFF7"/>
<path d="M551.665 100.74H543.438L541.658 87.3784L542.212 87.2988L543.913 100.143H551.191L552.892 87.2988L553.445 87.3784L551.665 100.74Z" fill="#E1FFF7"/>
<path d="M550.003 84.8335L549.488 84.6347L551.664 79.3457H554.709V79.9024H552.02L550.003 84.8335Z" fill="#E1FFF7"/>
<path d="M163.675 75.6472H151.77L152.837 72.5454H162.647L163.675 75.6472ZM152.521 75.0905H162.884L162.212 73.1021H153.193L152.521 75.0905Z" fill="#E1FFF7"/>
<path d="M161.855 88.7702H153.628L151.848 75.4086L152.441 75.3291L154.102 88.2135H161.38L163.081 75.3291L163.635 75.4086L161.855 88.7702Z" fill="#E1FFF7"/>
<path d="M160.194 72.9035L159.68 72.6649L161.855 67.376H164.94V67.9327H162.211L160.194 72.9035Z" fill="#E1FFF7"/>
</g>
<defs>
<clipPath id="clip0_498_34568">
<rect width="678" height="402" fill="white"/>
</clipPath>
</defs>
</svg>
