<svg xmlns="http://www.w3.org/2000/svg" width="411" height="371" fill="none"><path fill="#8FDDE5" d="M217.727 135.664c1.068-4.591-1.791-9.178-6.385-10.245-4.594-1.067-9.184 1.789-10.252 6.38-1.068 4.591 1.791 9.178 6.385 10.245 4.594 1.067 9.184-1.789 10.252-6.38ZM226.152 99.344a4.147 4.147 0 0 1-4.158 4.155 4.146 4.146 0 0 1-4.158-4.155 4.147 4.147 0 0 1 4.158-4.154c2.36 0 4.158 1.796 4.158 4.154ZM242.075 58.884a9.317 9.317 0 0 0 0-13.181 9.332 9.332 0 0 0-13.191 0 9.317 9.317 0 0 0 0 13.181 9.332 9.332 0 0 0 13.191 0ZM210.303 255.885c0 2.583-2.135 4.716-4.72 4.716s-4.72-2.133-4.72-4.716 2.135-4.717 4.72-4.717 4.72 2.134 4.72 4.717ZM184.418 241.2a9.427 9.427 0 0 0 0-13.34c-3.686-3.683-9.663-3.683-13.349 0a9.429 9.429 0 0 0 0 13.34c3.686 3.684 9.663 3.684 13.349 0ZM354.259 47.576a6.04 6.04 0 0 1-6.068 6.064 6.04 6.04 0 0 1-6.068-6.064 6.04 6.04 0 0 1 6.068-6.064 6.04 6.04 0 0 1 6.068 6.064Z"/><path fill="#EF4545" d="M237.702 270.82c-1.573-11.791 3.259-24.144 12.473-31.667 9.215-7.524 22.363-9.77 33.6-5.728 11.013 3.931 20.116 15.048 18.655 26.727"/><path fill="#66B06C" d="M224.667 243.981c1.685-.786 4.045.449 3.933 2.246 1.348-5.278 2.921-10.892 6.742-14.823 1.686-1.797 4.158-3.144 6.518-2.358 1.798.674 2.922 2.695 3.034 4.716.112 2.022-.674 3.931-1.573 5.615a33.337 33.337 0 0 1-4.945 7.299c1.012-.898 2.135-1.909 3.596-2.133 1.349-.113 2.81 1.01 2.697 2.47-.674 5.727-13.372 15.609-18.879 13.139-5.394-2.246-6.068-13.588-1.123-16.171ZM114.205 267.002c-3.034-3.593-5.618-7.524-6.967-12.015-.674-2.359-.899-4.829-.562-7.3.45-3.705 4.495-6.064 7.867-4.604a21.09 21.09 0 0 1 6.854 4.829c-.224-3.594-.224-7.861 3.147-9.658 2.023-1.123 4.495-.786 6.518.337 4.158 2.471 5.506 7.075 8.091 10.781 1.46-1.685 2.921-3.369 4.495-5.166.449-.449.899-1.011 1.46-1.011.675-.112 1.349.45 1.911.899 5.731 5.053 9.889 11.903 11.687 19.315"/><path fill="#820032" d="M287.031 235.784c-.562 2.246-2.023 4.155-3.596 5.839a149.95 149.95 0 0 1-10.001 10.668c1.348-.786 2.809-1.684 4.382-1.909 2.472-.337 5.507 1.123 4.383 4.829-.337 1.011-.899 1.797-1.573 2.583-5.844 6.064-12.249 11.566-18.992 16.62-.562.449-1.348.673-2.022.673h-.338a3.488 3.488 0 0 1-2.022-1.01c-.45-.45-.675-.899-.899-1.46-2.697-7.299-6.293-18.754-5.282-24.818.112-.786.337-1.796 1.011-2.358 1.237-1.123 3.259-.112 4.271 1.123 1.123 1.235 1.798 2.92 3.259 3.594-.899-3.931-1.012-7.973-.45-11.904.337-2.47 1.124-5.165 3.259-6.625s5.731-.562 6.068 1.909c-.112-7.749 3.596-15.385 9.777-19.989a4.93 4.93 0 0 1 3.034-1.01c2.135.224 2.809 2.021 3.034 3.818.899 5.502-.674 11.229-4.046 15.609 2.697-2.695 7.642 0 6.743 3.818Z"/><path fill="#A01F53" d="M281.752 225.228c-.899.449-1.798 1.011-2.809 1.46l-1.349.674c-.337.112-.561.337-.899.449-.561 1.572-1.236 3.032-1.798 4.604-1.573 3.93-3.146 7.748-4.719 11.679 2.809-1.572 5.394-3.818 8.203-5.503.562-.337 1.236 0 1.461.562.225.561 0 1.123-.562 1.46-3.484 2.133-6.518 4.941-10.338 6.513-2.023 4.941-3.934 9.882-5.619 14.823 2.023-.899 3.933-2.022 5.956-2.92.562-.225 1.236 0 1.461.562.224.561 0 1.235-.562 1.459-2.585 1.236-5.057 2.695-7.754 3.594a182.484 182.484 0 0 0-3.034 10.443 3.488 3.488 0 0 1-2.023-1.01c.899-3.369 1.91-6.738 3.034-10.107v-.112c-1.011-2.695-2.697-5.166-4.045-7.749-.225-.561 0-1.235.562-1.459.561-.225 1.236 0 1.46.561.899 1.909 2.136 3.706 3.035 5.615a362.929 362.929 0 0 1 5.393-14.149s0-.113-.112-.113c-.787-3.032-1.798-6.064-2.585-9.208-.337-1.348 1.798-1.797 2.136-.449.561 2.133 1.236 4.267 1.798 6.401 2.247-5.503 4.495-10.893 6.63-16.396a7.744 7.744 0 0 1-.562-1.459c-.337-1.011-.674-1.909-1.012-2.92-.224-.562-.112-1.235.562-1.46.45-.224 1.236 0 1.461.562.225.786.562 1.459.787 2.246.562-1.573 1.236-3.257 1.798-4.829.449-1.348 2.584-.562 2.135.786-.562 1.572-1.236 3.256-1.798 4.829.899-.562 1.91-1.011 2.809-1.573.562-.336 1.236 0 1.461.562.225.561 0 1.235-.562 1.572Z"/><path fill="#75C97B" d="M98.133 249.372c.337-.337.562-.674.787-1.011.337-.562.45-1.123.562-1.684.337-3.145-2.922-6.289-4.27-8.872-2.136-4.267-3.597-8.759-4.159-13.475-.449-3.482-1.236-7.861-4.607-8.647-3.483-.786-5.956 3.032-7.529 6.176.899-8.871.899-17.855-.112-26.839-.338-2.695-.675-5.39-2.248-7.523-2.135-2.92-6.405-3.931-9.664-2.471-2.81 1.348-4.607 4.38-4.495 7.412-.787-6.289-1.686-12.577-4.158-18.305-1.798-4.154-5.057-8.309-9.664-8.646-3.709-.337-7.192 2.021-9.552 4.941-4.27 5.278-5.843 12.577-4.72 19.315 1.012 6.737 4.495 12.914 8.99 18.079-4.832-.674-8.99 4.267-9.102 9.096 0 4.829 2.922 9.208 6.405 12.577 7.417 7.075 17.643 11.118 27.982 10.781-2.697.337-3.821 4.155-2.473 6.513 1.349 2.358 4.046 3.706 6.63 4.379 5.282 1.685 20.453 3.594 25.397-1.796Z"/><path fill="#66B06C" d="M98.134 249.372c.338-.337.562-.674.787-1.011.337-.562.45-1.123.562-1.684a107.711 107.711 0 0 1-9.552-6.289c-.45-2.358-.787-4.829-1.236-7.187-.112-.786-1.011-1.235-1.798-1.123-.787.112-1.236 1.011-1.124 1.797.225 1.235.45 2.583.675 3.93-6.743-5.278-12.924-11.342-18.318-17.855.787-4.716 1.461-9.433 2.248-14.037.112-.786-.674-1.46-1.461-1.572-.899 0-1.46.674-1.573 1.46l-1.686 11.117a121.682 121.682 0 0 1-12.81-20.101c2.022-2.133 3.146-4.941 3.258-7.86.113-1.909-2.921-2.022-2.921-.113-.113 1.797-.675 3.594-1.798 5.054-1.461-3.032-2.697-6.064-3.934-9.096-.674-1.797-3.596-1.123-2.921.673 1.011 2.583 2.023 5.166 3.259 7.749-1.461-.674-2.922-1.46-4.383-2.134-.787-.337-1.573-.224-2.023.449-.337.674-.224 1.685.45 2.022 2.697 1.235 5.281 2.582 7.978 3.818 1.124 2.133 2.136 4.267 3.372 6.401a143.913 143.913 0 0 0 10.45 15.496 123.832 123.832 0 0 1-8.99 1.348c-.786.112-1.46.561-1.573 1.46 0 .674.674 1.572 1.461 1.572 3.82-.337 7.53-.898 11.237-1.685 5.62 6.626 11.8 12.802 18.655 18.192-1.686.225-3.484.337-5.282.225-.787 0-1.46.674-1.573 1.46 0 .786.674 1.572 1.46 1.572a37.491 37.491 0 0 0 8.654-.674c3.258 2.134 6.854 4.492 10.45 6.626Z"/><path fill="#75C97B" d="M247.248 126.969c.338.113.787.337 1.237.337.674.113 1.236.113 1.798 0 3.034-.786 4.832-4.941 6.854-7.074 3.259-3.481 7.08-6.401 11.238-8.535 3.034-1.684 6.967-3.818 6.518-7.299-.45-3.481-4.945-4.604-8.429-4.829 8.653-2.246 17.081-5.39 25.172-9.32 2.36-1.123 4.832-2.47 6.293-4.717 2.023-3.032 1.461-7.411-1.011-9.994-2.248-2.134-5.731-2.807-8.54-1.684 5.618-2.92 11.237-5.952 15.732-10.22 3.259-3.144 6.068-7.635 4.832-12.015-1.011-3.593-4.383-6.064-7.979-7.3-6.405-2.245-13.822-1.122-19.777 2.247-5.956 3.256-10.676 8.646-13.823 14.71-1.011-4.716-7.079-6.962-11.687-5.39-4.607 1.685-7.641 5.952-9.664 10.331-4.158 9.433-4.27 20.438-.449 29.983-1.349-2.358-5.169-2.133-7.08-.112-1.798 2.022-2.023 5.053-1.798 7.749.337 5.502 3.821 20.325 10.563 23.132Z"/><path fill="#66B06C" d="M247.25 126.969c.337.113.787.337 1.236.337.675.112 1.236.112 1.798 0 .675-3.706 1.574-7.524 2.697-11.117 2.135-1.235 4.158-2.358 6.293-3.594.675-.449.787-1.347.45-2.021-.45-.674-1.349-.786-2.023-.449-1.124.674-2.247 1.347-3.371 1.909 2.697-8.085 6.18-15.946 10.451-23.358 4.719-.898 9.327-1.909 14.047-2.807.786-.112 1.123-1.235.899-1.909-.225-.786-1.124-1.123-1.911-.898-3.708.786-7.304 1.46-11.013 2.246 4.158-6.738 8.99-13.14 14.497-18.978 2.697 1.123 5.731 1.235 8.54.337 1.798-.562.899-3.37-.899-2.808-1.798.562-3.596.562-5.394.112 2.36-2.358 4.72-4.604 7.192-6.737 1.461-1.236-.225-3.706-1.685-2.47-2.136 1.796-4.158 3.705-6.181 5.726.112-1.572.337-3.256.449-4.829.113-.786-.337-1.572-1.123-1.796-.675-.113-1.686.337-1.798 1.123-.225 2.92-.562 5.84-.787 8.759-1.685 1.796-3.259 3.48-4.832 5.39-4.045 4.829-7.641 9.882-10.9 15.16-1.574-2.583-3.034-5.278-4.383-7.973-.337-.674-1.011-1.235-1.91-.898-.675.224-1.236 1.123-.899 1.909a107.392 107.392 0 0 0 5.506 9.994c-4.383 7.524-7.866 15.497-10.563 23.807a36.535 36.535 0 0 1-2.023-4.829 1.42 1.42 0 0 0-1.91-.899 1.417 1.417 0 0 0-.899 1.909c.899 2.696 2.135 5.391 3.708 7.861-1.573 3.594-2.472 7.636-3.259 11.791ZM132.294 155.717c-.45.112-.787.112-1.236 0-.675 0-1.237-.225-1.686-.449-2.809-1.46-3.484-5.952-4.945-8.535-2.359-4.155-5.281-7.86-8.765-11.005-2.584-2.358-5.843-5.502-4.495-8.647 1.349-3.256 5.844-3.256 9.327-2.695a128.717 128.717 0 0 1-22.138-15.16c-2.022-1.684-4.045-3.593-4.944-6.063-1.236-3.37.337-7.524 3.484-9.433 2.697-1.573 6.18-1.348 8.765.449-4.72-4.155-9.44-8.422-12.81-13.813-2.36-3.818-3.934-8.87-1.799-12.801 1.798-3.257 5.731-4.829 9.44-5.166 6.742-.561 13.597 2.246 18.654 6.963 4.944 4.604 8.203 11.005 9.889 17.63 2.135-4.38 8.653-5.053 12.698-2.358 4.046 2.695 5.956 7.636 6.855 12.352 1.686 10.107-.787 20.887-6.743 29.197 1.798-2.021 5.619-.786 6.855 1.572 1.236 2.471.787 5.39-.112 7.973-2.135 5.39-9.102 18.866-16.294 19.989Z"/><path fill="#75C97B" d="M132.292 155.717a2.315 2.315 0 0 1-1.236 0c-.674 0-1.236-.225-1.685-.45.224-3.818.224-7.636.112-11.454-1.798-1.684-3.484-3.369-5.282-5.053-.562-.562-.449-1.572.113-2.134.562-.561 1.573-.449 2.135.113.899.898 1.91 1.796 2.809 2.695-.562-8.535-2.135-16.957-4.495-25.267-4.27-2.021-8.54-4.042-12.923-6.064-.674-.337-.899-1.46-.449-2.021.449-.786 1.348-.786 2.022-.449 3.372 1.572 6.743 3.256 10.114 4.828a126.249 126.249 0 0 0-9.439-21.897 12.408 12.408 0 0 1-8.429-1.685c-1.573-1.01 0-3.48 1.574-2.47a8.532 8.532 0 0 0 5.169 1.347c-1.686-2.807-3.484-5.614-5.394-8.31-1.124-1.572 1.124-3.593 2.135-2.02 1.573 2.245 3.147 4.603 4.607 7.074.225-1.572.45-3.257.787-4.829.112-.786.674-1.46 1.573-1.46.787 0 1.574.786 1.461 1.572l-1.348 8.76a87.654 87.654 0 0 1 3.371 6.4c2.697 5.615 5.057 11.454 6.855 17.406 2.135-2.133 4.27-4.379 6.18-6.738.562-.673 1.349-.898 2.023-.449.562.337 1.011 1.46.45 2.022-2.473 2.919-5.057 5.727-7.754 8.309 2.36 8.31 3.933 16.957 4.495 25.604 1.123-1.348 2.247-2.695 3.146-4.267.45-.674 1.349-.899 2.023-.45.674.45.899 1.348.449 2.022a39.45 39.45 0 0 1-5.393 6.737c.449 4.155.449 8.423.224 12.578Z"/><path fill="#66B06C" d="M302.984 260.939c.337.224.674.449 1.124.561a4.505 4.505 0 0 0 1.685.337c3.147-.112 5.732-3.93 8.091-5.615a40.69 40.69 0 0 1 12.699-6.288c3.371-1.011 7.641-2.471 7.754-5.952.224-3.481-3.933-5.39-7.305-6.401a132.035 132.035 0 0 0 26.521-4.38c2.584-.673 5.169-1.572 7.079-3.481 2.473-2.583 2.922-6.962.899-9.994-1.685-2.583-5.057-3.818-8.091-3.257 6.069-1.684 12.137-3.593 17.418-7.074 3.821-2.471 7.417-6.401 7.08-10.893-.225-3.706-3.147-6.738-6.405-8.647-5.956-3.369-13.373-3.705-19.778-1.572-6.518 2.134-12.137 6.513-16.407 11.791-.112-4.828-5.619-8.197-10.451-7.524-4.832.674-8.653 4.38-11.462 8.31-5.844 8.422-8.091 19.203-6.181 29.31-.786-2.583-4.719-3.145-6.854-1.46-2.136 1.684-2.922 4.604-3.259 7.299-.899 5.727-.337 20.887 5.843 24.93Z"/><path fill="#75C97B" d="M302.982 260.938c.338.225.675.45 1.124.562a4.526 4.526 0 0 0 1.686.337 147.128 147.128 0 0 1 4.72-10.444c2.247-.786 4.607-1.572 6.854-2.358.787-.225 1.012-1.235.787-1.909-.337-.786-1.236-1.011-1.91-.786-1.237.449-2.473.786-3.709 1.235 4.158-7.524 9.103-14.486 14.721-20.999 4.72 0 9.552 0 14.272-.112.787 0 1.348-.899 1.236-1.685-.112-.898-.899-1.347-1.686-1.235-3.708 0-7.529 0-11.237.112a120.194 120.194 0 0 1 17.867-15.834c2.473 1.685 5.394 2.359 8.316 2.022 1.911-.225 1.573-3.144-.337-2.92a9.44 9.44 0 0 1-5.281-.898c2.696-1.909 5.506-3.594 8.428-5.278 1.685-.899.561-3.706-1.124-2.695-2.472 1.347-4.832 2.919-7.192 4.379l1.348-4.716c.225-.786 0-1.572-.786-1.909-.675-.337-1.686 0-1.911.786-.786 2.807-1.685 5.615-2.472 8.534-1.91 1.348-3.933 2.808-5.731 4.38-4.832 3.93-9.439 8.198-13.597 12.802-1.012-2.808-2.023-5.727-2.81-8.647-.224-.786-.786-1.348-1.685-1.235-.675.112-1.461.898-1.236 1.684 1.011 3.706 2.135 7.299 3.483 10.78-5.731 6.514-10.675 13.7-14.946 21.337-.449-1.685-.899-3.369-1.123-5.166-.113-.786-.899-1.348-1.686-1.235-.787.112-1.348.898-1.236 1.684.337 2.808 1.124 5.727 2.135 8.422-2.023 3.257-3.821 7.075-5.282 11.005Z"/><path fill="#EF4545" d="M316.694 89.126c-1.685-2.358-4.382-3.818-7.192-3.818-2.921-.113-5.618 1.123-7.416 3.369-11.687 14.261-38.882 47.388-50.119 60.864-1.798 2.246-2.473 5.053-1.911 7.861.562 2.807 2.472 5.165 5.057 6.401 6.518 3.144 16.631 6.737 28.206 5.727 7.529-.674 14.609-3.032 21.126-7.3 5.394-3.481 10.564-8.085 15.283-14.037 18.093-22.234 5.844-46.602-3.034-59.067Z"/><path fill="#FF9292" d="M302.981 92.27c-11.125 13.476-36.747 44.694-47.647 57.945-2.809 3.369-1.686 8.422 2.248 10.331 12.024 5.84 36.971 12.914 58.996-14.149 16.519-20.326 4.832-42.785-3.034-53.677-2.472-3.706-7.754-3.93-10.563-.45Z"/><path fill="#EF4545" d="m300.514 106.981-33.263 38.181c-2.81 3.256-1.349 8.197 2.809 9.096 9.664 2.133 25.397 3.144 36.185-9.096 10.788-12.241 7.529-27.625 3.933-36.833-1.461-3.931-6.743-4.604-9.664-1.348Z"/><path fill="#FF9292" d="M293.883 146.509c-2.697-4.38-8.203-12.914-8.203-10.219.112 3.481 2.022 9.208 3.371 12.577.562 1.572 2.36 2.134 3.821 1.46 1.461-.786 1.91-2.47 1.011-3.818ZM307.931 122.703c-5.169.786-15.171 2.582-12.586 3.481 3.259 1.235 9.327 1.684 12.923 1.796 1.573.113 2.922-1.347 2.81-2.919-.225-1.46-1.574-2.583-3.147-2.358ZM302.985 110.35c-3.933 3.481-11.349 10.331-8.765 9.77 3.484-.674 8.765-3.594 11.912-5.39a2.604 2.604 0 0 0 .787-3.931c-1.012-1.347-2.81-1.46-3.934-.449ZM303.993 137.975c-4.27-2.92-12.811-8.31-11.687-5.952 1.573 3.144 5.731 7.524 8.203 10.107 1.124 1.123 3.034 1.01 4.046-.225 1.011-1.347.674-3.144-.562-3.93ZM278.935 150.776c.561-5.165 1.685-15.272 0-13.026-2.136 2.807-4.158 8.422-5.282 11.903-.562 1.572.449 3.145 2.023 3.481 1.685.225 3.146-.786 3.259-2.358Z"/><path fill="#EF4545" d="M144.986 229.944c2.473-.898 4.383-2.807 5.17-5.278.786-2.47.337-5.165-1.124-7.299-9.552-13.588-31.465-45.255-40.455-58.169-1.461-2.134-3.821-3.369-6.293-3.593-2.585-.113-5.057.898-6.742 2.807-4.383 4.829-9.89 12.802-11.912 23.021-1.236 6.625-.899 13.363 1.124 20.101 1.685 5.502 4.495 11.117 8.315 16.619 14.946 21.112 38.994 16.508 51.917 11.791Z"/><path fill="#FF9292" d="M145.659 217.367c-8.99-12.914-29.779-42.672-38.432-55.361-2.248-3.257-6.855-3.482-9.44-.562-7.978 8.984-20.227 28.86-2.135 54.464 13.597 19.314 35.848 14.598 47.197 10.555 3.709-1.347 5.17-5.839 2.81-9.096Z"/><path fill="#EF4545" d="m133.525 211.64-24.947-38.068c-2.135-3.256-6.742-3.144-8.54.225-4.27 7.748-8.99 21.111-1.012 33.576 7.979 12.353 22.138 13.251 30.903 12.353 3.821-.45 5.731-4.829 3.596-8.086Z"/><path fill="#FF9292" d="M100.938 196.256c4.495-1.348 13.148-3.931 10.9-4.492-3.034-.786-8.428-.449-11.687-.225a2.363 2.363 0 0 0-2.135 2.92c.225 1.348 1.573 2.246 2.922 1.797ZM118.13 214.111c.561-4.604 1.46-13.7 0-11.791-1.911 2.582-3.709 7.636-4.72 10.668-.45 1.347.449 2.807 1.798 3.144 1.348.337 2.697-.562 2.922-2.021ZM130.044 212.988c-2.022-4.155-6.18-12.353-6.293-9.882-.224 3.144 1.012 8.422 1.798 11.566.338 1.46 1.911 2.134 3.259 1.684 1.236-.673 1.911-2.133 1.236-3.368ZM105.88 207.036c3.596-3.032 10.339-9.096 7.979-8.647-3.146.562-7.866 3.032-10.788 4.717-1.236.674-1.573 2.358-.787 3.593.899 1.011 2.585 1.236 3.596.337ZM100.936 182.331c4.271 1.797 12.811 5.166 11.35 3.257-1.91-2.471-6.293-5.615-8.99-7.524a2.45 2.45 0 0 0-3.483.898c-.787 1.236-.225 2.808 1.123 3.369Z"/><path fill="#EF4545" d="M351.769 2.321A6.836 6.836 0 0 0 346.15.749c-2.023.337-3.708 1.684-4.607 3.481-5.956 11.679-19.778 38.517-25.509 49.522-.899 1.797-1.012 3.819-.113 5.727.787 1.797 2.473 3.145 4.383 3.706 4.945 1.236 12.474 2.134 20.34-.224 5.057-1.572 9.664-4.268 13.485-8.198 3.259-3.256 6.068-7.187 8.428-11.903 9.327-18.417-2.809-33.352-10.788-40.539Z"/><path fill="#FF9292" d="M342.777 6.476c-5.619 11.005-18.654 36.384-24.273 47.052-1.348 2.695.112 6.064 3.147 6.738 9.214 2.245 27.531 3.369 38.656-18.642 8.316-16.507-3.034-30.207-10.113-36.608-2.36-2.021-6.069-1.347-7.417 1.46Z"/><path fill="#EF4545" d="m343.342 16.92-17.306 31.33c-1.461 2.695.337 5.84 3.259 5.84 6.967.112 17.98-1.573 23.711-11.68 5.619-10.106 1.011-20.212-2.81-26.052-1.685-2.358-5.394-2.133-6.854.562Z"/><path fill="#FF9292" d="M344.577 45.218c-2.584-2.583-7.641-7.636-7.191-5.84.561 2.36 2.809 6.065 4.157 8.199.675 1.01 1.911 1.122 2.81.449 1.011-.674 1.011-2.022.224-2.808ZM350.755 26.802c-3.371 1.347-10.114 4.042-8.203 4.267 2.472.337 6.63-.225 9.214-.674 1.124-.225 1.798-1.348 1.461-2.47-.337-1.011-1.461-1.573-2.472-1.123ZM345.476 18.94c-2.135 2.92-6.292 8.76-4.607 8.086 2.248-1.01 5.506-3.818 7.417-5.503.899-.786.786-2.133-.113-2.807-.786-.786-2.022-.674-2.697.225ZM350.31 37.806c-3.371-1.347-10.114-3.818-8.99-2.358 1.573 1.91 5.057 4.38 7.192 5.727 1.011.674 2.248.225 2.697-.786.562-.898.112-2.133-.899-2.583ZM334.91 50.496c-.337-3.594-1.123-10.78-1.91-8.984-1.011 2.246-1.573 6.513-1.91 8.984-.113 1.123.786 2.133 1.91 2.133 1.236-.112 2.023-1.122 1.91-2.133Z"/><path fill="#889920" d="M97.118 148.081c4.383.112 8.428-3.369 9.777-7.524 1.348-4.155.562-8.871-1.236-12.802-3.934-8.871-19.104-18.079-24.835-5.502-3.933 8.759 6.742 25.491 16.294 25.828Z"/><path fill="#EF4545" d="M87.565 120.456c-.787.337-1.349.898-1.91 1.46l-1.124 1.123c-.787.674-1.798 1.572-1.573 2.695.112.786.899 1.348 1.685 1.46.787.112 1.573-.225 2.36-.674 1.349-.786 2.36-2.021 2.81-3.481.224-.674.337-1.46 0-2.134-.45-.561-1.461-.673-2.248-.449Z"/><path fill="#889920" d="M301.417 19.615c.337 3.93 3.933 7.075 7.754 7.86 3.933.787 7.979-.449 11.35-2.582 7.417-4.492 14.047-19.09 2.135-22.796-8.316-2.47-22.025 8.871-21.239 17.518Z"/><path fill="#EF4545" d="M325.021 8.049c-.338-.674-.899-1.123-1.574-1.572l-1.123-.899c-.675-.674-1.574-1.347-2.585-1.123-.674.225-1.124 1.01-1.124 1.685 0 .673.337 1.46.787 2.021.899 1.123 2.023 1.797 3.371 2.134.674.112 1.349.112 1.91-.225.675-.45.675-1.348.338-2.021Z"/><path fill="#889920" d="M320.746 89.687c.337 3.818 3.821 6.85 7.529 7.636 3.821.787 7.754-.449 11.013-2.47 7.192-4.38 13.597-18.529 2.135-22.122-8.091-2.47-21.464 8.534-20.677 16.956Z"/><path fill="#EF4545" d="M343.56 78.346c-.338-.674-.9-1.123-1.461-1.573l-1.124-.898c-.674-.674-1.573-1.347-2.472-1.01-.675.224-1.124 1.01-1.124 1.684 0 .674.337 1.347.787 1.909.786 1.01 2.022 1.797 3.258 2.021.675.113 1.349.113 1.798-.224.675-.337.675-1.236.338-1.91Z"/><path fill="#889920" d="M152.973 40.614c-10.226 8.87-16.631-3.594-17.643-7.412-2.135-8.422 3.372-23.47 14.384-17.743 7.754 3.93 9.777 19.54 3.259 25.155Z"/><path fill="#EF4545" d="M143.983 18.042c.674-.225 1.461-.113 2.247 0l1.461.112c1.012 0 2.135.112 2.585 1.01.337.674.112 1.46-.45 2.022-.562.561-1.236.786-2.022.898a5.437 5.437 0 0 1-3.934-.898c-.561-.337-1.123-.898-1.123-1.46-.113-.898.562-1.46 1.236-1.684Z"/><path fill="#889920" d="M334.905 176.491c-12.137 5.952-15.171-7.748-15.058-11.791.112-8.759 9.327-21.785 18.542-13.475 6.405 5.952 4.27 21.448-3.484 25.266Z"/><path fill="#EF4545" d="M332.097 152.348c.787 0 1.461.224 2.135.561l1.349.562c.899.224 2.022.673 2.247 1.684.112.674-.225 1.46-.899 1.797a3.592 3.592 0 0 1-2.135.337c-1.349-.225-2.585-.899-3.596-1.797-.45-.449-.787-1.123-.674-1.797.112-.898.899-1.347 1.573-1.347Z"/><path fill="#889920" d="M209.27 186.037c-6.293 12.016-16.857 2.808-19.104-.449-5.057-7.075-5.506-23.021 6.855-21.785 8.653.786 16.182 14.486 12.249 22.234Z"/><path fill="#EF4545" d="M192.638 168.182c.562-.449 1.348-.673 2.023-.898l1.348-.337c.899-.337 2.023-.674 2.809 0 .562.449.675 1.348.338 2.021-.338.674-.899 1.123-1.574 1.573-1.236.673-2.584.898-3.933.673-.674-.112-1.348-.337-1.573-1.01-.337-.674 0-1.46.562-2.022Z"/><path fill="#006937" d="m219.833 170.09 76.527 28.86-2.697 4.941s-17.756.786-41.129-9.208c-23.374-9.994-35.061-20.213-35.061-20.213l2.36-4.38Z"/><path fill="#A8D070" d="M219.832 170.09c1.461 3.482 30.903 18.192 46.411 22.684 6.742 2.021 23.037 6.176 30.116 6.064-1.124-2.021-14.496-13.251-32.364-20.999-14.721-6.064-33.038-9.433-44.163-7.749Z"/><path fill="#E4F6C4" d="M226.574 172.673c1.012 3.257 26.183 14.262 39.556 17.631 5.844 1.46 18.542 6.288 24.835 5.727-.899-1.909-13.373-10.556-28.768-16.732-12.474-5.166-25.621-8.984-35.623-6.626Z"/><path fill="#A8D070" d="M249.946 177.502s-19.328-5.503-19.665-3.706c-.338 1.797 15.957 4.941 19.665 3.706ZM267.93 185.25s18.766 7.524 19.216 8.76c.449 1.235-11.8-1.46-19.216-8.76ZM254.107 179.86s-8.99-.112-7.641 1.797c1.348 1.797 5.956-.112 7.641-1.797ZM262.309 183.454s4.719 8.085 5.506 5.951c.787-2.133-2.135-4.155-5.506-5.951ZM258.381 181.32s-4.495 0-4.945 1.797c-.449 1.796 6.743 4.042 7.305 3.368.674-.673-2.36-5.165-2.36-5.165Z"/><path fill="#006937" d="m202.303 73.404 51.018-58.618 3.483 4.043s-5.169 16.058-21.8 33.576c-16.632 17.518-29.555 24.593-29.555 24.593l-3.146-3.594Z"/><path fill="#A8D070" d="M202.303 73.404c3.596-.112 26.408-21.56 35.622-33.8 4.046-5.39 13.148-18.417 15.396-24.818-2.248.337-16.632 8.535-29.442 21.898-10.339 11.005-19.441 26.165-21.576 36.72Z"/><path fill="#E4F6C4" d="M206.91 68.239c3.259.112 21.351-18.641 28.88-29.422 3.259-4.716 11.687-14.486 13.373-20.213-2.023.112-13.822 8.422-24.498 19.989-8.877 9.545-16.631 19.876-17.755 29.646Z"/><path fill="#A8D070" d="M218.933 48.924s-11.237 15.497-9.777 16.283c1.349.898 9.552-12.465 9.777-16.283ZM231.633 35.56s12.923-14.26 14.159-14.26c1.349 0-5.057 9.994-14.159 14.26ZM222.307 46.004s-3.034 7.973-.899 7.412c2.135-.562 1.91-5.278.899-7.412ZM228.26 39.94s8.765-1.46 7.079-2.92c-1.573-1.46-4.27.45-7.079 2.92ZM224.999 42.748s-1.461 4.042 0 5.053c1.461 1.01 5.843-4.604 5.394-5.39-.337-.898-5.394.337-5.394.337Z"/><path fill="#EF4545" d="M9.02 191.764c.786 1.797 2.472 3.032 4.157 3.706a11.932 11.932 0 0 0 7.642.449c3.034-.899 5.73-3.032 6.967-6.176 2.921-7.3-3.709-12.353-9.89-12.241-5.28.225-11.461 8.647-8.877 14.262ZM156.902 53.08c-1.91.224-3.596 1.347-4.832 2.806a12.775 12.775 0 0 0-2.922 7.075c-.112 3.144 1.012 6.401 3.596 8.535 5.956 5.053 12.923.449 14.721-5.503 1.574-5.053-4.382-13.588-10.563-12.914ZM276.357 18.716c-1.91.225-3.596 1.348-4.832 2.808a12.774 12.774 0 0 0-2.922 7.074c-.112 3.145 1.012 6.401 3.596 8.535 5.956 5.053 12.923.449 14.721-5.503 1.686-5.053-4.382-13.587-10.563-12.914ZM75.543 143.477c-1.91.224-3.596 1.347-4.832 2.807a12.777 12.777 0 0 0-2.922 7.075c-.112 3.144 1.011 6.401 3.596 8.534 5.956 5.054 12.923.45 14.72-5.502 1.574-5.053-4.382-13.476-10.562-12.914ZM305.91 171.551c-1.91.224-3.596 1.347-4.832 2.807a12.777 12.777 0 0 0-2.922 7.075c-.112 3.144 1.011 6.401 3.596 8.534 5.956 5.054 12.923.449 14.721-5.502 1.573-5.053-4.382-13.588-10.563-12.914ZM208.818 212.651c-1.91.225-3.596 1.348-4.832 2.808a12.771 12.771 0 0 0-2.922 7.074c-.112 3.145 1.012 6.401 3.596 8.535 5.956 5.053 12.923.449 14.721-5.503 1.574-5.053-4.382-13.475-10.563-12.914Z"/><path fill="#006937" d="M155.442 129.103c1.798 11.566 11.013 21.224 22.138 24.817 11.125 3.593 23.711 1.348 33.6-4.829 5.169-3.256 9.889-7.748 11.912-13.475 3.371-9.433-.899-20.213-7.867-27.4-9.664-9.882-26.857-15.61-40.567-11.791-12.473 3.48-21.126 20.55-19.216 32.678Z"/><path fill="#A8D070" d="M157.69 128.765c1.685 10.781 10.226 19.877 20.677 23.246 10.338 3.369 22.137 1.235 31.352-4.492 4.832-3.032 9.215-7.299 11.237-12.69 3.259-8.871-.786-18.978-7.416-25.603-8.99-9.208-25.172-14.598-37.87-11.005-11.687 3.257-19.778 19.315-17.98 30.544Z"/><path fill="#E4F6C4" d="M164.767 128.092c1.348 8.422 7.978 15.497 16.069 18.08 8.091 2.582 17.194 1.01 24.385-3.482 3.821-2.358 7.192-5.614 8.766-9.882 2.472-6.85-.675-14.71-5.731-19.988-6.968-7.187-19.554-11.342-29.555-8.535-9.102 2.471-15.283 14.936-13.934 23.807Z"/><path fill="#A8D070" d="M187.807 131.349s-8.091 13.251-1.573 13.7c6.405.449 1.573-13.7 1.573-13.7ZM193.426 130.001s1.461 14.486 7.978 11.791c6.518-2.47-7.978-11.791-7.978-11.791ZM195.557 124.611s14.159-6.626 16.294.786c2.135 7.411-16.294-.786-16.294-.786ZM192.635 121.916s10.9-8.31 7.641-11.117c-3.371-2.92-7.641 11.117-7.641 11.117ZM188.817 121.916s1.685-14.823-2.248-14.599c-3.933.113 2.248 14.599 2.248 14.599ZM183.645 123.151s-7.979-14.711-11.35-11.454c-3.372 3.256 11.35 11.454 11.35 11.454ZM182.635 126.52s-13.934-4.379-13.26 1.011c.787 5.39 13.26-1.011 13.26-1.011ZM183.649 130.001s-13.822 3.593-10.338 7.187c3.484 3.706 10.338-7.187 10.338-7.187Z"/><path fill="#820032" d="M200.956 201.534c3.484 0 6.855.337 10.114 1.123 8.653 1.909 16.744 9.096 16.744 17.967 0 4.267-1.91 8.31-4.046 11.903-4.944 8.31-11.799 15.497-20.115 20.326-6.63 3.818-14.271 5.952-21.8 5.952-2.023 0-4.046-.113-6.069-.45-4.157-.673-8.315-2.021-11.687-4.716-8.315-6.513-9.551-19.427-4.944-28.972 7.304-14.936 25.172-23.133 41.803-23.133Zm0-4.043c-16.406 0-36.746 7.861-45.287 25.267-5.843 12.015-3.258 26.614 6.069 33.801 3.596 2.807 8.091 4.604 13.485 5.502 2.135.337 4.382.562 6.63.562 8.091 0 16.406-2.246 23.823-6.401 8.541-4.941 16.07-12.353 21.576-21.673 2.135-3.594 4.607-8.422 4.607-13.925 0-5.165-2.247-10.219-6.293-14.374-3.596-3.705-8.428-6.288-13.597-7.411-3.484-.899-7.192-1.348-11.013-1.348Z"/><path fill="#E9D5DE" d="M181.962 260.714c-2.135 0-4.271-.113-6.406-.449-5.057-.786-9.327-2.471-12.586-5.054-9.776-7.636-10.113-21.897-5.506-31.443 9.552-19.539 35.51-27.175 54.165-23.02 8.877 2.021 18.317 9.657 18.317 19.876 0 5.054-2.36 9.545-4.271 12.914-5.394 8.984-12.586 16.283-20.901 21-7.192 4.042-15.171 6.176-22.812 6.176Zm19.103-57.271c-15.507 0-32.813 7.299-40.005 21.898-4.045 8.197-3.484 20.437 4.383 26.614 2.697 2.133 6.405 3.593 10.788 4.267 8.765 1.347 18.204-.449 26.52-5.278 7.641-4.379 14.384-11.117 19.441-19.539 1.798-2.92 3.708-6.85 3.821-10.893 0-8.198-7.754-14.374-15.171-16.058a46.556 46.556 0 0 0-9.777-1.011Z"/><path fill="#F48D1C" d="M326.703 253.976c0 3.593-.225 7.299-.562 10.78-.674 6.401-1.91 12.689-3.708 18.753-.113.562-.337 1.011-.45 1.573-.786 2.695-1.798 5.277-2.809 7.86-.112.449-.337.786-.45 1.235-1.573 3.706-3.258 7.412-5.169 10.893-1.461 2.695-3.146 5.278-4.832 7.861-2.472 3.706-5.281 7.299-8.203 10.668l-2.697 3.032-2.023 2.021c-5.057 5.054-10.676 9.658-16.744 13.588-16.631 10.893-36.521 17.294-57.873 17.294h-38.319c-21.352 0-41.242-6.401-57.873-17.294-7.979-5.278-15.283-11.566-21.576-18.753-2.922-3.369-5.731-6.963-8.204-10.668a183.939 183.939 0 0 1-4.832-7.861 121.775 121.775 0 0 1-5.281-10.893c-.113-.449-.337-.786-.45-1.235-1.011-2.583-2.022-5.166-2.81-7.861-.111-.561-.336-1.01-.449-1.572a102.623 102.623 0 0 1-3.708-18.753c-.337-3.594-.562-7.187-.562-10.781h249.584v.113Z"/><path fill="#fff" d="M326.141 264.756c-.674 6.401-1.91 12.689-3.708 18.753H81.277a102.614 102.614 0 0 1-3.709-18.753h248.573ZM318.719 294.178c-1.574 3.705-3.259 7.411-5.17 10.892-1.46 2.695-3.146 5.278-4.832 7.861H94.981a183.837 183.837 0 0 1-4.832-7.861 121.834 121.834 0 0 1-5.282-10.892H318.72ZM300.405 323.599l-2.697 3.032-2.023 2.021c-5.057 5.054-10.675 9.658-16.744 13.588H124.763c-7.978-5.278-15.283-11.566-21.575-18.753h197.217v.112Z"/><path fill="#D87512" d="m297.71 326.631-2.023 2.021c-19.104 19.091-45.512 30.882-74.729 30.882h-38.32c-58.322 0-105.632-47.277-105.632-105.558h41.354c3.259 12.24 9.102 23.469 17.98 32.678 21.463 22.346 51.355 39.079 82.258 40.763 25.396 1.348 47.759-1.572 79.112-.786Z" opacity=".25"/><path fill="#D87512" d="M251.749 370.089H151.96a7.047 7.047 0 0 1-7.079-7.074 7.047 7.047 0 0 1 7.079-7.075h99.789a7.048 7.048 0 0 1 7.08 7.075c0 3.818-3.147 7.074-7.08 7.074Z"/><path fill="#75C97B" d="M106.339 41.063c.787-1.46 3.146-1.91 3.933-.562-1.91-4.491-3.933-9.32-3.484-14.149.225-2.133 1.237-4.604 3.259-5.278 1.686-.561 3.596.337 4.72 1.685 1.124 1.347 1.686 3.144 2.023 4.828.562 2.583.674 5.278.562 7.973.224-1.235.449-2.582 1.348-3.48.899-.9 2.585-.787 3.259.224 2.697 4.38-.787 18.416-5.956 19.764-4.944 1.235-11.687-6.401-9.664-11.005ZM175.781 241.062c.562-1.123 2.472-1.572 3.259-.449-1.574-3.706-3.259-7.524-2.81-11.567.225-1.797 1.012-3.706 2.697-4.267 1.349-.449 2.922.224 3.821 1.347s1.348 2.583 1.573 3.931c.45 2.133.562 4.267.45 6.513.112-1.011.337-2.134 1.123-2.807.787-.674 2.136-.674 2.585.224 2.135 3.594-.674 14.935-4.832 16.058-4.046.899-9.552-5.277-7.866-8.983Z"/><path fill="#66B06C" d="M30.257 152.236c-1.236-.674-3.259 0-3.259 1.46-.674-4.38-1.46-8.872-4.157-12.353-1.237-1.572-3.035-2.92-4.945-2.358-1.573.449-2.585 1.909-2.81 3.481-.224 1.572.226 3.144.787 4.604.9 2.246 2.023 4.267 3.372 6.289-.787-.786-1.574-1.685-2.697-1.909-1.124-.225-2.36.561-2.248 1.796.112 4.604 9.44 13.476 13.934 12.016 4.383-1.572 5.844-10.556 2.023-13.026Z"/><path fill="#F48D1C" d="M134.094 160.433c-6.181-.674-7.192 6.401-1.011 13.813 1.46 1.684 4.27.898 4.607-1.236.787-5.053 1.011-12.015-3.596-12.577ZM349.515 126.969c-3.933-4.716-9.664-.224-10.226 9.321-.113 2.246 2.472 3.594 4.27 2.246 3.933-3.032 8.878-7.973 5.956-11.567ZM410.42 157.514c.45-6.177-6.742-6.85-13.822-.337-1.686 1.572-.787 4.267 1.461 4.604 4.944.337 12.024.337 12.361-4.267ZM215.786 83.174c-6.068-1.123-7.529 5.952-1.798 13.7 1.349 1.797 4.158 1.235 4.72-1.01 1.011-4.83 1.686-11.904-2.922-12.69ZM140.048 55.661c-4.72-2.245-7.53 3.145-4.608 10.78.674 1.798 3.147 1.91 4.046.225 2.022-3.818 4.158-9.32.562-11.005ZM231.296 3.22c-6.18.111-6.18 7.41.899 13.812 1.686 1.46 4.383.336 4.383-1.91.112-5.053-.674-12.015-5.282-11.903ZM240.399 142.354c-3.933-4.829-9.664-.449-10.338 9.096-.225 2.246 2.359 3.706 4.157 2.358 4.046-2.919 9.103-7.748 6.181-11.454ZM290.628 210.63c-6.18.112-6.18 7.411.899 13.812 1.686 1.46 4.383.337 4.383-1.909.112-5.053-.562-12.016-5.282-11.903ZM3.849 156.952c-5.731 2.246-3.371 9.096 5.506 12.69 2.135.898 4.27-1.123 3.484-3.257-1.573-4.716-4.72-11.117-8.99-9.433Z"/><path fill="#820032" d="M391.878 149.204c-1.685 1.684-3.933 2.47-6.068 3.144-4.607 1.46-9.327 2.808-14.047 3.931 1.573 0 3.259 0 4.72.673 2.247 1.011 4.045 3.818 1.236 6.401a6.133 6.133 0 0 1-2.697 1.348c-8.203 2.021-16.519 3.481-24.835 4.267-.786.112-1.461-.112-2.135-.449-.112-.113-.225-.112-.337-.225-.674-.449-1.011-1.123-1.236-1.909a4.225 4.225 0 0 1 0-1.684c1.573-7.636 4.495-19.315 8.428-23.919.562-.674 1.236-1.348 2.023-1.46 1.685-.225 2.809 1.572 3.146 3.144.225 1.572 0 3.369.899 4.829 1.349-3.818 3.259-7.299 5.844-10.331 1.573-1.909 3.708-3.818 6.18-3.931 2.472-.112 5.169 2.471 4.158 4.829 3.933-6.625 11.125-11.342 18.767-12.016 1.123-.112 2.247.113 3.034.786 1.685 1.236 1.348 3.257.674 4.829-2.135 5.166-6.405 9.321-11.687 11.23 3.933-1.235 6.743 3.706 3.933 6.513Z"/><path fill="#A01F53" d="M392.889 137.412c-1.011 0-2.135-.112-3.146-.112-.45 0-1.012 0-1.461-.112-.337 0-.674 0-.899-.112-1.349 1.01-2.585 2.021-3.933 2.919l-10.114 7.412c3.259.112 6.518-.449 9.777-.449.561 0 1.011.673 1.011 1.235-.112.674-.674 1.011-1.236 1.011-4.046 0-8.203.786-12.249.112-4.27 3.144-8.428 6.401-12.586 9.657 2.135.337 4.383.337 6.518.562.562.112 1.011.673 1.011 1.235-.112.561-.674 1.011-1.236 1.011-2.809-.337-5.731-.337-8.54-.899-2.81 2.358-5.507 4.717-8.091 7.299-.675-.449-1.012-1.122-1.236-1.909 2.472-2.47 5.169-4.828 7.866-7.074h.112c.562-2.808.337-5.84.674-8.647 0-.561.675-1.011 1.236-1.011.562.113 1.012.674 1.012 1.236-.225 2.133-.113 4.267-.337 6.4a489.075 489.075 0 0 1 12.024-9.32v-.112c.899-3.032 1.685-6.177 2.584-9.209.45-1.347 2.473-.561 2.136.786-.675 2.134-1.237 4.268-1.798 6.401 4.719-3.481 9.551-6.962 14.159-10.555 0-.562.224-1.123.337-1.573.225-1.01.449-2.021.562-3.032.112-.561.562-1.01 1.236-1.01.562.112 1.124.674 1.011 1.235-.112.786-.337 1.572-.449 2.358 1.348-1.01 2.697-2.133 4.045-3.256 1.124-.899 2.472.786 1.349 1.684-1.349 1.123-2.697 2.134-4.046 3.144 1.012 0 2.135.113 3.147.113.562 0 1.011.673 1.011 1.235-.225 1.011-.787 1.347-1.461 1.347Z"/><path fill="#820032" d="M167.348 164.813c.45 2.134-.112 4.155-.561 6.176-1.124 4.267-2.473 8.422-3.933 12.577.786-1.235 1.685-2.47 2.809-3.256 1.91-1.236 4.944-1.236 5.506 2.246.113.898 0 1.796-.337 2.695-2.472 7.187-5.394 14.149-8.99 20.887-.337.561-.786 1.123-1.461 1.347-.112 0-.224.113-.337.113a3.129 3.129 0 0 1-2.023 0c-.449-.113-.899-.45-1.348-.787-5.057-4.941-12.474-12.914-14.047-18.079-.225-.786-.449-1.572-.112-2.246.562-1.348 2.584-1.348 3.933-.786 1.348.561 2.584 1.684 4.158 1.684-2.248-2.807-3.933-6.064-5.057-9.545-.674-2.133-1.124-4.716 0-6.625 1.124-2.022 4.382-2.695 5.731-.786-3.147-6.177-3.147-13.925.112-20.101a4.414 4.414 0 0 1 2.023-2.022c1.798-.673 3.034.562 3.933 1.909 2.81 4.155 3.933 9.433 2.81 14.262 1.348-3.369 6.517-3.144 7.191.337Z"/><path fill="#A01F53" d="m158.923 158.3-1.685 2.358c-.225.337-.562.786-.787 1.123-.225.225-.337.449-.562.674.113 1.46.225 2.92.337 4.492.225 3.818.45 7.524.674 11.342 1.686-2.359 2.922-5.166 4.495-7.636.338-.45 1.012-.45 1.461-.113.45.337.45 1.011.113 1.46-2.023 3.032-3.372 6.626-5.844 9.321.337 4.716.674 9.545 1.236 14.261 1.349-1.46 2.36-3.144 3.709-4.716.337-.449 1.011-.449 1.461-.113.449.337.449 1.011.112 1.46-1.686 2.022-3.147 4.155-4.945 6.064.45 3.257.899 6.513 1.574 9.658a3.129 3.129 0 0 1-2.023 0c-.562-3.145-1.124-6.289-1.461-9.433v-.112c-1.91-1.797-4.27-3.145-6.293-4.717-.449-.337-.449-1.011-.112-1.46.337-.449 1.011-.449 1.461-.112 1.461 1.123 3.146 2.134 4.719 3.369-.449-4.492-.899-9.096-1.123-13.588 0 0-.113 0-.113-.112-1.798-2.246-3.82-4.267-5.618-6.513-.787-1.011.786-2.134 1.573-1.236 1.236 1.573 2.697 3.032 3.933 4.492-.337-5.278-.674-10.668-1.011-15.946l-1.012-1.01c-.674-.674-1.348-1.236-2.023-1.909-.337-.337-.561-1.011-.112-1.46.337-.337 1.011-.562 1.461-.113.562.45 1.011 1.011 1.573 1.46-.112-1.572-.225-3.144-.449-4.716-.113-1.235 1.91-1.46 2.022-.225.113 1.572.338 3.145.45 4.604l1.685-2.358c.338-.449 1.012-.449 1.461-.112-.112.449 0 1.123-.337 1.572Z"/><path fill="#FFED85" d="M260.739 209.17c-1.124-2.695-3.034-5.054-3.821-7.973l-4.607 1.123c-4.27.898-8.428 2.246-12.361 4.155-.787.337-1.573.786-1.91 1.572-.562 1.123-.113 2.47.337 3.593 1.123 2.808 2.247 5.615 3.259 8.422 4.045-.224 8.203-.449 12.248-.786 2.248-.112 4.608-.337 6.181-1.909 2.135-2.021 1.91-5.502.674-8.197ZM78.692 82.388c-2.135 1.123-3.933 2.695-6.18 3.48l1.123 3.594a38.276 38.276 0 0 0 4.046 9.658c.337.561.674 1.235 1.348 1.46.9.449 2.023 0 2.922-.45 2.135-1.01 4.383-2.02 6.518-3.144-.45-3.256-.9-6.513-1.236-9.77-.225-1.796-.562-3.593-1.798-4.828-1.798-1.572-4.608-1.123-6.743 0ZM234.891 66.442c-2.36-.112-4.72.337-7.08-.112l-.899 3.705c-.899 3.37-1.348 6.85-1.461 10.332 0 .673 0 1.347.45 1.909.562.786 1.685 1.01 2.697 1.123 2.36.224 4.832.449 7.192.673 1.236-3.032 2.584-6.064 3.82-8.983.675-1.573 1.349-3.37.899-5.054-.674-2.358-3.259-3.48-5.618-3.593ZM383.789 171.214c-2.022-1.236-4.382-1.909-6.18-3.369l-2.472 2.807a41.947 41.947 0 0 0-6.069 8.535c-.337.561-.674 1.235-.562 1.909.113 1.01 1.012 1.684 1.911 2.246 2.023 1.347 4.045 2.582 6.068 3.93 2.585-2.021 5.057-4.155 7.642-6.176 1.348-1.123 2.809-2.359 3.146-4.155.337-2.359-1.461-4.604-3.484-5.727Z"/></svg>