<svg xmlns="http://www.w3.org/2000/svg" width="376" height="359" fill="none"><ellipse cx="185.197" cy="343.439" fill="#F9F9F9" rx="181.232" ry="14.84"/><ellipse cx="185.197" cy="340.439" fill="#EEE" rx="133.146" ry="9.548"/><ellipse cx="185.197" cy="338.438" fill="#D9DBDC" rx="97.553" ry="5.973"/><path fill="#8FDDE5" d="M316.827 239.396a4.322 4.322 0 0 0 4.324-4.32 4.322 4.322 0 0 0-4.324-4.321 4.322 4.322 0 0 0-4.323 4.321 4.322 4.322 0 0 0 4.323 4.32ZM348.479 91.166a8.024 8.024 0 0 0-6.635-9.208 8.03 8.03 0 0 0-9.215 6.63c-.712 4.374 2.259 8.497 6.636 9.208 4.377.712 8.502-2.257 9.214-6.63ZM52.894 123.817a7.817 7.817 0 0 0-5.849-9.384 7.817 7.817 0 1 0-3.542 15.229 7.823 7.823 0 0 0 9.391-5.845ZM60.612 90.547a3.799 3.799 0 0 1-3.81 3.806 3.799 3.799 0 0 1-3.808-3.806 3.799 3.799 0 0 1 3.809-3.806c2.162 0 3.809 1.646 3.809 3.806ZM75.197 53.484a8.534 8.534 0 0 0 0-12.074 8.548 8.548 0 0 0-12.083 0 8.534 8.534 0 0 0 0 12.074 8.548 8.548 0 0 0 12.083 0ZM46.092 233.944c0 2.366-1.956 4.321-4.323 4.321-2.368 0-4.324-1.955-4.324-4.321 0-2.365 1.956-4.32 4.324-4.32 2.367 0 4.323 1.955 4.323 4.32ZM22.384 220.493a8.637 8.637 0 0 0 0-12.22 8.65 8.65 0 0 0-12.229 0 8.637 8.637 0 0 0 0 12.22 8.652 8.652 0 0 0 12.229 0ZM341.528 236.516a6.483 6.483 0 0 0 6.485-6.481 6.482 6.482 0 0 0-6.485-6.48 6.482 6.482 0 0 0-6.485 6.48 6.483 6.483 0 0 0 6.485 6.481ZM350.179 56.087c0 2.366-1.853 4.217-4.22 4.217-2.368 0-4.221-1.851-4.221-4.217 0-2.366 1.853-4.218 4.221-4.218 2.367 0 4.22 1.955 4.22 4.218ZM177.961 43.126a5.533 5.533 0 0 1-5.559 5.555 5.533 5.533 0 0 1-5.558-5.555 5.533 5.533 0 0 1 5.558-5.555 5.533 5.533 0 0 1 5.559 5.555Z"/><path fill="#EF4545" d="M217.587 247.625c-1.441-10.801 2.986-22.116 11.427-29.008 8.441-6.892 20.485-8.95 30.779-5.246 10.088 3.6 18.426 13.784 17.087 24.482"/><path fill="#66B06C" d="M205.647 223.04c1.545-.72 3.706.412 3.603 2.057 1.236-4.834 2.677-9.978 6.177-13.578 1.544-1.646 3.808-2.88 5.97-2.16 1.647.617 2.677 2.469 2.78 4.32.103 1.852-.618 3.601-1.442 5.144a30.57 30.57 0 0 1-4.529 6.686c.927-.823 1.956-1.749 3.294-1.955 1.235-.102 2.574.926 2.471 2.264-.618 5.246-12.25 14.298-17.294 12.035-4.941-2.057-5.559-12.447-1.03-14.813ZM104.463 244.128c-2.78-3.292-5.147-6.892-6.383-11.007-.617-2.16-.823-4.423-.514-6.686.412-3.395 4.117-5.555 7.205-4.217a19.296 19.296 0 0 1 6.28 4.423c-.206-3.292-.206-7.201 2.882-8.847 1.853-1.028 4.118-.72 5.971.309 3.808 2.263 5.044 6.48 7.411 9.875 1.338-1.543 2.677-3.086 4.118-4.732.412-.411.823-.926 1.338-.926.618-.103 1.235.412 1.75.823 5.25 4.629 9.059 10.904 10.706 17.693"/><path fill="#820032" d="M262.78 215.531c-.514 2.057-1.853 3.806-3.294 5.349a137.224 137.224 0 0 1-9.161 9.772c1.235-.72 2.573-1.543 4.014-1.748 2.265-.309 5.044 1.028 4.015 4.423-.309.926-.824 1.646-1.441 2.366-5.353 5.555-11.221 10.595-17.397 15.224-.515.412-1.235.617-1.853.617h-.309a3.195 3.195 0 0 1-1.853-.926c-.411-.411-.617-.822-.823-1.337-2.471-6.686-5.765-17.179-4.838-22.733.103-.72.308-1.646.926-2.161 1.132-1.028 2.985-.103 3.912 1.029 1.029 1.132 1.647 2.675 2.985 3.292-.823-3.601-.926-7.304-.412-10.904.309-2.263 1.03-4.732 2.986-6.069 1.955-1.338 5.249-.515 5.558 1.748-.103-7.097 3.294-14.092 8.956-18.31a4.519 4.519 0 0 1 2.779-.926c1.956.206 2.574 1.852 2.78 3.498.823 5.04-.618 10.286-3.706 14.298 2.47-2.469 7 0 6.176 3.498Z"/><path fill="#A01F53" d="M257.945 205.861c-.824.412-1.647.926-2.574 1.338l-1.235.617c-.309.103-.515.309-.824.411-.514 1.441-1.132 2.778-1.647 4.218-1.441 3.6-2.882 7.098-4.323 10.698 2.573-1.44 4.941-3.497 7.515-5.04.514-.309 1.132 0 1.338.514.206.514 0 1.029-.515 1.337-3.191 1.955-5.97 4.526-9.47 5.967-1.853 4.526-3.603 9.052-5.147 13.578 1.853-.823 3.603-1.852 5.455-2.675.515-.205 1.133 0 1.339.515.206.514 0 1.131-.515 1.337-2.368 1.132-4.632 2.469-7.103 3.292a167.271 167.271 0 0 0-2.779 9.567 3.197 3.197 0 0 1-1.853-.926c.823-3.086 1.75-6.172 2.779-9.258v-.103c-.926-2.469-2.47-4.732-3.706-7.098-.205-.514 0-1.132.515-1.337.515-.206 1.132 0 1.338.514.824 1.749 1.956 3.395 2.78 5.143 1.544-4.32 3.191-8.64 4.941-12.961 0 0 0-.103-.103-.103-.721-2.777-1.647-5.555-2.368-8.435-.309-1.234 1.647-1.646 1.956-.411.515 1.954 1.132 3.909 1.647 5.863 2.059-5.04 4.118-9.978 6.074-15.019a7.108 7.108 0 0 1-.515-1.337c-.309-.926-.618-1.749-.927-2.674-.205-.515-.103-1.132.515-1.338.412-.205 1.132 0 1.338.515.206.72.515 1.337.721 2.057.515-1.44 1.132-2.983 1.647-4.423.412-1.235 2.368-.515 1.956.72-.515 1.44-1.133 2.983-1.647 4.423.823-.514 1.75-.926 2.573-1.44.515-.309 1.133 0 1.338.514.206.515 0 1.132-.514 1.44Z"/><path fill="#75C97B" d="M89.739 227.978c.308-.309.514-.617.72-.926.309-.514.412-1.028.515-1.543.309-2.88-2.677-5.76-3.912-8.126-1.956-3.909-3.294-8.024-3.809-12.344-.411-3.189-1.132-7.201-4.22-7.921-3.191-.72-5.456 2.777-6.897 5.658.823-8.127.823-16.356-.103-24.586-.309-2.468-.618-4.937-2.059-6.892-1.956-2.674-5.867-3.6-8.853-2.263-2.573 1.235-4.22 4.012-4.117 6.789-.72-5.76-1.544-11.521-3.809-16.767-1.647-3.806-4.632-7.612-8.853-7.921-3.397-.308-6.588 1.852-8.75 4.527-3.911 4.834-5.352 11.521-4.323 17.693.926 6.172 4.117 11.829 8.235 16.561-4.426-.617-8.235 3.909-8.338 8.332 0 4.424 2.676 8.436 5.868 11.522 6.794 6.48 16.161 10.183 25.632 9.875-2.471.308-3.5 3.806-2.265 5.966 1.235 2.16 3.706 3.395 6.073 4.012 4.838 1.543 18.735 3.292 23.264-1.646Z"/><path fill="#66B06C" d="M89.74 227.978c.31-.308.516-.617.722-.925.308-.515.411-1.029.514-1.543a98.816 98.816 0 0 1-8.75-5.761c-.411-2.16-.72-4.423-1.132-6.583-.103-.721-.926-1.132-1.647-1.029-.72.103-1.132.926-1.03 1.646.206 1.131.412 2.366.618 3.6-6.176-4.835-11.838-10.389-16.779-16.356.72-4.32 1.338-8.641 2.059-12.858.103-.72-.618-1.337-1.338-1.44-.824 0-1.338.617-1.441 1.337L59.99 198.25a111.549 111.549 0 0 1-11.735-18.413c1.853-1.955 2.883-4.527 2.986-7.201.102-1.749-2.677-1.852-2.677-.103-.103 1.646-.617 3.292-1.647 4.629-1.338-2.777-2.47-5.555-3.603-8.332-.617-1.646-3.294-1.029-2.676.617.926 2.366 1.853 4.732 2.985 7.098-1.338-.617-2.676-1.337-4.015-1.955-.72-.308-1.44-.205-1.852.412-.31.617-.206 1.543.411 1.851 2.47 1.132 4.838 2.366 7.309 3.498 1.03 1.954 1.956 3.909 3.088 5.863a131.773 131.773 0 0 0 9.574 14.196c-2.78.514-5.456.926-8.236 1.234-.72.103-1.338.515-1.44 1.338 0 .617.617 1.44 1.337 1.44 3.5-.309 6.897-.823 10.294-1.543 5.147 6.069 10.809 11.727 17.088 16.664-1.544.206-3.19.309-4.838.206-.72 0-1.338.617-1.441 1.337 0 .72.618 1.44 1.338 1.44a34.31 34.31 0 0 0 7.927-.617c2.985 1.955 6.279 4.115 9.573 6.069Z"/><path fill="#75C97B" d="M226.336 115.853c.309.103.721.308 1.132.308.618.103 1.133.103 1.647 0 2.78-.72 4.427-4.526 6.28-6.48 2.985-3.189 6.485-5.864 10.294-7.818 2.779-1.543 6.382-3.498 5.97-6.686-.412-3.19-4.529-4.218-7.72-4.424 7.926-2.057 15.646-4.937 23.058-8.538 2.162-1.028 4.426-2.263 5.765-4.32 1.852-2.778 1.338-6.79-.927-9.155-2.059-1.955-5.25-2.572-7.823-1.543 5.147-2.675 10.294-5.452 14.411-9.361 2.985-2.88 5.559-6.995 4.427-11.007-.927-3.292-4.015-5.555-7.309-6.686-5.868-2.058-12.662-1.03-18.117 2.057-5.456 2.983-9.78 7.92-12.662 13.476-.926-4.32-6.485-6.378-10.706-4.938-4.22 1.543-6.999 5.452-8.852 9.464-3.809 8.64-3.912 18.722-.412 27.465-1.235-2.16-4.735-1.954-6.485-.103-1.647 1.852-1.853 4.63-1.647 7.098.308 5.04 3.5 18.619 9.676 21.191Z"/><path fill="#66B06C" d="M226.338 115.853c.309.103.72.308 1.132.308.618.103 1.132.103 1.647 0 .618-3.394 1.441-6.892 2.471-10.183 1.956-1.132 3.808-2.161 5.764-3.292.618-.412.721-1.235.412-1.852-.412-.617-1.235-.72-1.853-.411-1.029.617-2.059 1.234-3.088 1.748 2.47-7.406 5.662-14.607 9.573-21.396 4.324-.823 8.544-1.749 12.868-2.572.72-.103 1.029-1.131.823-1.748-.206-.72-1.029-1.029-1.75-.823-3.397.72-6.691 1.337-10.088 2.057 3.809-6.172 8.235-12.035 13.279-17.384 2.471 1.028 5.25 1.131 7.824.308 1.647-.514.823-3.086-.824-2.572-1.647.515-3.294.515-4.941.103 2.162-2.16 4.324-4.217 6.588-6.172 1.339-1.131-.206-3.394-1.544-2.263-1.956 1.646-3.809 3.395-5.661 5.246.102-1.44.308-2.983.411-4.423.103-.72-.309-1.44-1.029-1.646-.618-.103-1.544.309-1.647 1.029-.206 2.675-.515 5.349-.721 8.024-1.544 1.645-2.985 3.188-4.426 4.937-3.706 4.423-7 9.053-9.985 13.887a100.672 100.672 0 0 1-4.015-7.303c-.309-.617-.926-1.132-1.75-.823-.617.206-1.132 1.028-.823 1.748a98.527 98.527 0 0 0 5.044 9.156c-4.015 6.892-7.206 14.195-9.677 21.807a33.515 33.515 0 0 1-1.853-4.423 1.298 1.298 0 0 0-1.749-.823 1.298 1.298 0 0 0-.824 1.749c.824 2.469 1.956 4.938 3.397 7.201-1.441 3.291-2.265 6.995-2.985 10.801ZM121.033 142.186c-.411.103-.72.103-1.132 0-.618 0-1.132-.205-1.544-.411-2.573-1.337-3.191-5.452-4.529-7.818-2.162-3.806-4.838-7.201-8.03-10.081-2.367-2.16-5.352-5.041-4.117-7.921 1.235-2.983 5.353-2.983 8.544-2.469-7.206-3.909-14-8.538-20.28-13.887-1.852-1.543-3.705-3.291-4.529-5.555-1.132-3.085.31-6.892 3.192-8.64 2.47-1.44 5.661-1.235 8.029.411-4.324-3.806-8.647-7.715-11.735-12.653-2.162-3.497-3.603-8.126-1.647-11.726 1.647-2.983 5.25-4.424 8.647-4.732 6.176-.515 12.455 2.057 17.088 6.377 4.529 4.218 7.514 10.081 9.058 16.15 1.956-4.011 7.927-4.628 11.632-2.16 3.706 2.47 5.456 6.995 6.28 11.316 1.544 9.258-.721 19.133-6.177 26.745 1.647-1.851 5.147-.72 6.28 1.44 1.132 2.263.72 4.938-.103 7.304-1.956 4.938-8.338 17.282-14.927 18.31Z"/><path fill="#75C97B" d="M121.035 142.186a2.116 2.116 0 0 1-1.133 0c-.617 0-1.132-.206-1.544-.411.206-3.498.206-6.995.103-10.493-1.647-1.543-3.191-3.086-4.838-4.629-.515-.514-.412-1.44.103-1.954.515-.515 1.441-.412 1.956.103.823.823 1.75 1.646 2.573 2.468-.514-7.817-1.956-15.532-4.117-23.145-3.912-1.851-7.824-3.703-11.838-5.555-.618-.308-.824-1.337-.412-1.851.412-.72 1.235-.72 1.853-.411 3.088 1.44 6.176 2.983 9.264 4.423a115.554 115.554 0 0 0-8.647-20.06 11.364 11.364 0 0 1-7.72-1.542c-1.441-.926 0-3.19 1.441-2.263a7.816 7.816 0 0 0 4.735 1.234c-1.544-2.572-3.19-5.143-4.94-7.612-1.03-1.44 1.029-3.292 1.955-1.852 1.441 2.058 2.882 4.218 4.221 6.48.205-1.44.411-2.982.72-4.422.103-.72.618-1.338 1.441-1.338.721 0 1.441.72 1.339 1.44l-1.236 8.024a79.93 79.93 0 0 1 3.088 5.864c2.471 5.143 4.633 10.492 6.28 15.944 1.956-1.955 3.911-4.012 5.661-6.172.515-.617 1.236-.823 1.853-.412.515.309.927 1.338.412 1.852-2.265 2.674-4.632 5.246-7.103 7.612 2.162 7.612 3.603 15.533 4.118 23.454 1.029-1.235 2.059-2.469 2.882-3.909.412-.617 1.235-.823 1.853-.412.618.412.824 1.235.412 1.852a36.125 36.125 0 0 1-4.941 6.172c.411 3.806.411 7.715.206 11.521Z"/><path fill="#66B06C" d="M277.391 238.574c.309.205.618.411 1.029.514.515.206 1.03.309 1.544.309 2.883-.103 5.25-3.601 7.412-5.144a37.289 37.289 0 0 1 11.632-5.76c3.088-.926 7-2.263 7.103-5.452.206-3.189-3.603-4.938-6.691-5.864a120.957 120.957 0 0 0 24.294-4.012c2.367-.617 4.735-1.44 6.485-3.188 2.264-2.366 2.676-6.378.823-9.156-1.544-2.366-4.632-3.497-7.411-2.983 5.558-1.543 11.117-3.291 15.955-6.48 3.5-2.263 6.794-5.864 6.485-9.978-.205-3.395-2.882-6.173-5.867-7.921-5.456-3.086-12.25-3.395-18.117-1.44-5.971 1.954-11.118 5.966-15.03 10.801-.103-4.424-5.147-7.51-9.573-6.892-4.426.617-7.926 4.011-10.5 7.612-5.353 7.715-7.411 17.59-5.661 26.848-.721-2.366-4.324-2.88-6.28-1.337-1.956 1.543-2.676 4.217-2.985 6.686-.823 5.246-.309 19.133 5.353 22.837Z"/><path fill="#75C97B" d="M277.389 238.574c.308.205.617.411 1.029.514a4.128 4.128 0 0 0 1.544.309 134.845 134.845 0 0 1 4.324-9.567c2.058-.72 4.22-1.44 6.279-2.16.72-.206.926-1.132.72-1.749-.308-.72-1.132-.926-1.749-.72-1.133.411-2.265.72-3.397 1.131 3.808-6.892 8.338-13.269 13.485-19.236 4.323 0 8.749 0 13.073-.103.72 0 1.235-.823 1.132-1.543-.103-.823-.823-1.234-1.544-1.131-3.397 0-6.897 0-10.294.103a110.038 110.038 0 0 1 16.368-14.505c2.264 1.543 4.941 2.161 7.617 1.852 1.75-.206 1.441-2.88-.309-2.674a8.66 8.66 0 0 1-4.838-.823c2.471-1.749 5.044-3.292 7.721-4.835 1.544-.823.514-3.395-1.03-2.469-2.265 1.234-4.426 2.675-6.588 4.012l1.235-4.321c.206-.72 0-1.44-.72-1.748-.618-.309-1.544 0-1.75.72-.721 2.571-1.544 5.143-2.265 7.818-1.75 1.234-3.603 2.571-5.25 4.011-4.426 3.601-8.647 7.51-12.455 11.727-.927-2.571-1.853-5.246-2.574-7.92-.206-.721-.721-1.235-1.544-1.132-.618.103-1.338.823-1.132 1.543.926 3.395 1.955 6.686 3.191 9.875-5.25 5.967-9.78 12.55-13.691 19.545-.412-1.543-.824-3.086-1.03-4.732-.103-.72-.823-1.234-1.544-1.131-.72.102-1.235.822-1.132 1.543.309 2.571 1.029 5.246 1.956 7.715-1.853 2.983-3.5 6.48-4.838 10.081Z"/><path fill="#EF4545" d="M289.952 81.187c-1.544-2.16-4.014-3.498-6.588-3.498-2.676-.103-5.147 1.029-6.794 3.086-10.706 13.064-35.617 43.41-45.911 55.754-1.647 2.057-2.265 4.629-1.75 7.201.515 2.571 2.265 4.732 4.632 5.863 5.971 2.88 15.235 6.172 25.838 5.246 6.897-.617 13.382-2.777 19.353-6.686 4.941-3.189 9.676-7.406 14-12.858 16.573-20.368 5.352-42.69-2.78-54.108Z"/><path fill="#FF9292" d="M277.39 84.067c-10.191 12.344-33.661 40.941-43.646 53.079-2.573 3.086-1.544 7.715 2.059 9.464 11.014 5.349 33.867 11.83 54.043-12.961 15.132-18.619 4.426-39.193-2.779-49.17-2.265-3.395-7.103-3.601-9.677-.412Z"/><path fill="#EF4545" d="m275.129 97.543-30.471 34.975c-2.573 2.983-1.235 7.509 2.574 8.332 8.853 1.954 23.264 2.88 33.146-8.332 9.883-11.213 6.897-25.306 3.603-33.74-1.338-3.601-6.176-4.218-8.852-1.235Z"/><path fill="#FF9292" d="M269.058 133.752c-2.471-4.012-7.515-11.83-7.515-9.361.103 3.189 1.853 8.435 3.088 11.521.515 1.44 2.162 1.954 3.5 1.337 1.338-.72 1.75-2.263.927-3.497ZM281.925 111.944c-4.735.72-13.897 2.366-11.529 3.189 2.985 1.131 8.544 1.543 11.838 1.646 1.441.103 2.676-1.235 2.573-2.675-.206-1.337-1.441-2.366-2.882-2.16ZM277.398 100.629c-3.603 3.188-10.397 9.463-8.029 8.949 3.191-.617 8.029-3.292 10.911-4.938a2.384 2.384 0 0 0 .721-3.6c-.927-1.234-2.574-1.337-3.603-.411ZM278.32 125.934c-3.912-2.675-11.735-7.612-10.706-5.452 1.441 2.88 5.25 6.892 7.514 9.258 1.03 1.029 2.78.926 3.706-.206.927-1.234.618-2.88-.514-3.6ZM255.365 137.661c.514-4.732 1.544-13.99 0-11.933-1.956 2.572-3.809 7.715-4.839 10.904-.514 1.44.412 2.881 1.853 3.189 1.544.206 2.883-.72 2.986-2.16Z"/><path fill="#EF4545" d="M132.659 210.182c2.265-.823 4.015-2.572 4.735-4.835.721-2.263.309-4.732-1.029-6.686-8.75-12.447-28.823-41.456-37.058-53.285-1.339-1.955-3.5-3.086-5.765-3.292-2.368-.103-4.632.823-6.176 2.572-4.015 4.423-9.059 11.726-10.912 21.087-1.132 6.07-.823 12.242 1.03 18.414 1.544 5.04 4.117 10.183 7.617 15.224 13.691 19.339 35.72 15.121 47.558 10.801Z"/><path fill="#FF9292" d="M133.274 198.661c-8.235-11.83-27.279-39.09-35.205-50.714-2.059-2.983-6.28-3.188-8.647-.514-7.309 8.229-18.53 26.437-1.956 49.891 12.456 17.693 32.838 13.372 43.235 9.669 3.397-1.234 4.735-5.349 2.573-8.332Z"/><path fill="#EF4545" d="m122.16 193.415-22.852-34.872c-1.956-2.983-6.177-2.881-7.824.205-3.911 7.098-8.235 19.339-.926 30.758 7.309 11.315 20.279 12.138 28.308 11.315 3.5-.411 5.25-4.423 3.294-7.406Z"/><path fill="#FF9292" d="M92.31 179.322c4.118-1.235 12.044-3.601 9.985-4.115-2.779-.72-7.72-.412-10.705-.206a2.164 2.164 0 0 0-1.956 2.675c.206 1.234 1.441 2.057 2.676 1.646ZM108.059 195.678c.515-4.218 1.339-12.55 0-10.801-1.75 2.366-3.397 6.995-4.323 9.772-.412 1.234.412 2.572 1.647 2.88 1.235.309 2.471-.514 2.676-1.851ZM118.971 194.649c-1.853-3.806-5.662-11.315-5.765-9.052-.206 2.88.927 7.715 1.647 10.595.309 1.337 1.75 1.955 2.986 1.543 1.132-.617 1.749-1.954 1.132-3.086ZM96.836 189.197c3.294-2.777 9.47-8.332 7.309-7.92-2.883.514-7.206 2.777-9.882 4.32-1.133.617-1.442 2.16-.721 3.292.823.926 2.367 1.131 3.294.308ZM92.308 166.566c3.912 1.646 11.735 4.732 10.397 2.984-1.75-2.263-5.765-5.144-8.235-6.892a2.244 2.244 0 0 0-3.191.822c-.721 1.132-.206 2.572 1.029 3.086Z"/><path fill="#EF4545" d="M322.078 1.67a6.262 6.262 0 0 0-5.147-1.44c-1.853.309-3.397 1.543-4.22 3.189-5.456 10.698-18.118 35.283-23.368 45.364-.823 1.646-.926 3.498-.103 5.247.721 1.645 2.265 2.88 4.015 3.394 4.529 1.132 11.426 1.955 18.632-.206 4.632-1.44 8.853-3.909 12.353-7.509 2.985-2.983 5.559-6.583 7.72-10.904 8.544-16.87-2.573-30.551-9.882-37.135Z"/><path fill="#FF9292" d="M313.839 5.476c-5.147 10.081-17.088 33.329-22.235 43.101-1.235 2.47.103 5.555 2.883 6.172 8.441 2.058 25.22 3.086 35.411-17.076 7.617-15.121-2.78-27.67-9.265-33.534-2.161-1.852-5.558-1.235-6.794 1.337Z"/><path fill="#EF4545" d="m314.357 15.043-15.853 28.7c-1.338 2.468.309 5.349 2.985 5.349 6.383.102 16.471-1.44 21.721-10.699 5.147-9.258.926-18.516-2.574-23.865-1.544-2.16-4.941-1.954-6.279.515Z"/><path fill="#FF9292" d="M315.489 40.966c-2.368-2.366-7-6.995-6.588-5.35.514 2.16 2.573 5.556 3.808 7.51.618.926 1.75 1.029 2.574.412.926-.618.926-1.852.206-2.572ZM321.151 24.095c-3.088 1.235-9.264 3.703-7.514 3.909 2.264.309 6.073-.206 8.441-.617 1.029-.206 1.647-1.235 1.338-2.263-.309-.926-1.338-1.44-2.265-1.029ZM316.314 16.894c-1.955 2.675-5.764 8.024-4.22 7.407 2.059-.926 5.044-3.498 6.794-5.04a1.648 1.648 0 0 0-.103-2.572c-.721-.72-1.853-.618-2.471.205ZM320.742 34.176c-3.088-1.234-9.264-3.497-8.235-2.16 1.441 1.749 4.632 4.012 6.588 5.246.927.618 2.059.206 2.471-.72.514-.823.103-1.954-.824-2.366ZM306.634 45.8c-.309-3.291-1.03-9.875-1.75-8.23-.927 2.058-1.441 5.967-1.75 8.23-.103 1.029.72 1.955 1.75 1.955 1.132-.103 1.853-1.029 1.75-1.955Z"/><path fill="#889920" d="M88.813 135.192c4.014.102 7.72-3.086 8.955-6.893 1.236-3.806.515-8.126-1.132-11.726-3.603-8.127-17.5-16.562-22.75-5.041-3.603 8.024 6.177 23.351 14.927 23.66Z"/><path fill="#EF4545" d="M80.06 109.886c-.72.309-1.235.823-1.75 1.337l-1.03 1.029c-.72.617-1.646 1.44-1.44 2.469.103.72.823 1.234 1.544 1.337.72.103 1.441-.206 2.162-.617 1.235-.72 2.161-1.852 2.573-3.189.206-.617.309-1.337 0-1.955-.412-.514-1.338-.617-2.059-.411Z"/><path fill="#889920" d="M275.957 17.512c.309 3.6 3.603 6.48 7.103 7.2 3.603.72 7.309-.41 10.397-2.365 6.794-4.115 12.868-17.488 1.956-20.882-7.618-2.263-20.176 8.126-19.456 16.047Z"/><path fill="#EF4545" d="M297.578 6.917c-.308-.618-.823-1.03-1.441-1.44l-1.029-.824c-.618-.617-1.441-1.234-2.368-1.028-.617.206-1.029.926-1.029 1.543 0 .617.309 1.337.721 1.851.823 1.03 1.852 1.646 3.088 1.955.617.103 1.235.103 1.75-.206.617-.411.617-1.234.308-1.851Z"/><path fill="#889920" d="M293.659 81.701c.309 3.498 3.5 6.275 6.897 6.995 3.5.72 7.103-.411 10.088-2.263 6.588-4.012 12.456-16.973 1.956-20.265-7.411-2.263-19.661 7.818-18.941 15.533Z"/><path fill="#EF4545" d="M314.558 71.312c-.309-.617-.823-1.029-1.338-1.44l-1.029-.823c-.618-.617-1.442-1.235-2.265-.926-.618.206-1.03.926-1.03 1.543 0 .617.309 1.234.721 1.749.721.926 1.853 1.646 2.985 1.851.618.103 1.236.103 1.647-.205.618-.309.618-1.132.309-1.749Z"/><path fill="#889920" d="M139.971 36.748c-9.367 8.126-15.235-3.292-16.161-6.79-1.956-7.715 3.088-21.499 13.176-16.253 7.103 3.6 8.956 17.9 2.985 23.043Z"/><path fill="#EF4545" d="M131.739 16.07c.618-.205 1.339-.102 2.059 0l1.338.104c.927 0 1.956.103 2.368.926.309.617.103 1.337-.412 1.851s-1.132.72-1.853.823a4.979 4.979 0 0 1-3.603-.823c-.514-.308-1.029-.823-1.029-1.337-.103-.823.515-1.337 1.132-1.543Z"/><path fill="#889920" d="M306.633 161.217c-11.118 5.452-13.897-7.098-13.794-10.801.103-8.024 8.544-19.956 16.985-12.344 5.867 5.452 3.911 19.647-3.191 23.145Z"/><path fill="#EF4545" d="M304.057 139.101c.72 0 1.338.205 1.956.514l1.235.514c.823.206 1.853.617 2.059 1.543.103.617-.206 1.338-.824 1.646-.617.309-1.338.412-1.956.309-1.235-.206-2.367-.823-3.294-1.646-.411-.412-.72-1.029-.617-1.646.103-.823.823-1.234 1.441-1.234Z"/><path fill="#889920" d="M191.546 169.961c-5.765 11.007-15.441 2.572-17.5-.412-4.632-6.48-5.044-21.087 6.28-19.956 7.926.72 14.823 13.27 11.22 20.368Z"/><path fill="#EF4545" d="M176.314 153.605c.514-.411 1.235-.617 1.853-.823l1.235-.308c.823-.309 1.853-.618 2.573 0 .515.411.618 1.234.309 1.851s-.823 1.029-1.441 1.44c-1.132.617-2.368.823-3.603.617-.617-.102-1.235-.308-1.441-.925-.309-.618 0-1.338.515-1.852Z"/><path fill="#006937" d="m201.222 155.354 70.102 26.436-2.471 4.527s-16.264.72-37.675-8.436c-21.412-9.155-32.117-18.516-32.117-18.516l2.161-4.011Z"/><path fill="#A8D070" d="M201.223 155.353c1.338 3.189 28.308 16.665 42.514 20.78 6.176 1.851 21.102 5.657 27.587 5.554-1.029-1.851-13.279-12.138-29.646-19.236-13.485-5.555-30.264-8.641-40.455-7.098Z"/><path fill="#E4F6C4" d="M207.398 157.719c.927 2.984 23.985 13.064 36.235 16.151 5.353 1.337 16.985 5.76 22.75 5.246-.824-1.749-12.25-9.67-26.353-15.327-11.426-4.732-23.47-8.23-32.632-6.07Z"/><path fill="#A8D070" d="M228.806 162.143s-17.705-5.041-18.014-3.395c-.309 1.646 14.617 4.526 18.014 3.395ZM245.281 169.241s17.191 6.892 17.603 8.023c.412 1.132-10.809-1.337-17.603-8.023ZM232.62 164.303s-8.235-.103-7 1.646c1.236 1.646 5.456-.103 7-1.646ZM240.131 167.595s4.323 7.406 5.044 5.452c.72-1.955-1.956-3.806-5.044-5.452ZM236.534 165.64s-4.117 0-4.529 1.646c-.412 1.646 6.176 3.703 6.691 3.086.618-.617-2.162-4.732-2.162-4.732Z"/><path fill="#006937" d="m185.162 66.785 46.735-53.696 3.191 3.703s-4.736 14.71-19.971 30.757c-15.235 16.048-27.073 22.528-27.073 22.528l-2.882-3.291Z"/><path fill="#A8D070" d="M185.162 66.785c3.294-.102 24.191-19.75 32.632-30.962 3.706-4.938 12.044-16.87 14.103-22.734-2.059.309-15.235 7.818-26.971 20.059-9.47 10.08-17.808 23.968-19.764 33.637Z"/><path fill="#E4F6C4" d="M189.385 62.053c2.985.103 19.558-17.076 26.455-26.951 2.985-4.32 10.706-13.27 12.25-18.516-1.853.103-12.662 7.715-22.441 18.31-8.132 8.744-15.235 18.208-16.264 27.157Z"/><path fill="#A8D070" d="M200.396 44.36s-10.294 14.196-8.956 14.916c1.236.823 8.75-11.418 8.956-14.916ZM212.027 32.119s11.838-13.064 12.971-13.064c1.235 0-4.633 9.155-12.971 13.064ZM203.486 41.686s-2.78 7.304-.824 6.79c1.956-.515 1.75-4.835.824-6.79ZM208.941 36.13s8.03-1.336 6.486-2.674c-1.442-1.337-3.912.412-6.486 2.675ZM205.954 38.702s-1.338 3.704 0 4.63c1.338.925 5.353-4.218 4.941-4.938-.309-.823-4.941.308-4.941.308Z"/><path fill="#EF4545" d="M8.107 175.207c.72 1.646 2.265 2.778 3.809 3.395a10.927 10.927 0 0 0 7 .411c2.779-.823 5.25-2.777 6.382-5.657 2.676-6.687-3.397-11.316-9.059-11.213-4.838.206-10.5 7.921-8.132 13.064ZM143.577 48.166c-1.75.206-3.294 1.235-4.427 2.572a11.704 11.704 0 0 0-2.676 6.48c-.103 2.88.926 5.864 3.294 7.819 5.456 4.628 11.838.411 13.485-5.041 1.441-4.629-4.015-12.447-9.676-11.83ZM253.002 16.689c-1.75.206-3.294 1.234-4.426 2.571a11.696 11.696 0 0 0-2.676 6.481c-.103 2.88.926 5.864 3.294 7.818 5.455 4.629 11.838.411 13.485-5.04 1.544-4.63-4.015-12.447-9.677-11.83ZM69.045 130.974c-1.75.206-3.294 1.235-4.426 2.572a11.702 11.702 0 0 0-2.676 6.48c-.103 2.881.926 5.864 3.294 7.818 5.455 4.629 11.838.412 13.485-5.04 1.44-4.629-4.015-12.344-9.677-11.83ZM280.071 156.691c-1.75.206-3.294 1.235-4.427 2.572a11.703 11.703 0 0 0-2.676 6.481c-.103 2.88.926 5.863 3.294 7.817 5.456 4.629 11.838.412 13.485-5.04 1.441-4.629-4.015-12.447-9.676-11.83ZM191.133 194.34c-1.75.206-3.294 1.235-4.426 2.572a11.707 11.707 0 0 0-2.677 6.481c-.103 2.88.927 5.863 3.294 7.818 5.456 4.629 11.839.411 13.486-5.041 1.441-4.629-4.015-12.344-9.677-11.83Z"/><path fill="#006937" d="M142.232 117.807c1.647 10.595 10.088 19.442 20.279 22.734 10.191 3.292 21.721 1.234 30.779-4.424 4.736-2.983 9.059-7.097 10.912-12.344 3.088-8.64-.824-18.516-7.206-25.1-8.853-9.052-24.602-14.298-37.161-10.8-11.426 3.189-19.353 18.824-17.603 29.934Z"/><path fill="#A8D070" d="M144.29 117.499c1.544 9.875 9.367 18.207 18.941 21.293 9.47 3.086 20.279 1.132 28.72-4.114 4.426-2.778 8.441-6.687 10.294-11.624 2.985-8.127-.721-17.385-6.794-23.454-8.236-8.435-23.059-13.373-34.691-10.081-10.706 2.983-18.117 17.693-16.47 27.98Z"/><path fill="#E4F6C4" d="M150.777 116.881c1.235 7.715 7.308 14.196 14.72 16.562 7.411 2.366 15.75.926 22.338-3.189 3.5-2.16 6.588-5.143 8.029-9.052 2.265-6.275-.618-13.476-5.25-18.311-6.382-6.583-17.911-10.39-27.073-7.818-8.338 2.264-14 13.682-12.764 21.808Z"/><path fill="#A8D070" d="M171.882 119.865s-7.412 12.138-1.441 12.55c5.867.411 1.441-12.55 1.441-12.55ZM177.023 118.63s1.339 13.27 7.309 10.801c5.971-2.263-7.309-10.801-7.309-10.801ZM178.979 113.692s12.97-6.069 14.926.72c1.956 6.79-14.926-.72-14.926-.72ZM176.305 111.224s9.985-7.612 7-10.184c-3.089-2.674-7 10.184-7 10.184ZM172.805 111.224s1.544-13.579-2.059-13.373c-3.602.103 2.059 13.373 2.059 13.373ZM168.069 112.355s-7.308-13.475-10.396-10.492c-3.089 2.983 10.396 10.492 10.396 10.492ZM167.141 115.441s-12.764-4.012-12.147.926c.721 4.938 12.147-.926 12.147-.926ZM168.072 118.63s-12.661 3.292-9.47 6.584c3.191 3.394 9.47-6.584 9.47-6.584Z"/><path fill="#820032" d="M183.926 184.157c3.191 0 6.279.308 9.264 1.028 7.927 1.749 15.338 8.333 15.338 16.459 0 3.909-1.75 7.612-3.705 10.904-4.53 7.612-10.809 14.196-18.427 18.619-6.073 3.498-13.073 5.452-19.97 5.452-1.853 0-3.706-.103-5.559-.411-3.808-.618-7.617-1.852-10.705-4.321-7.618-5.966-8.75-17.796-4.53-26.54 6.691-13.681 23.059-21.19 38.294-21.19Zm0-3.703c-15.029 0-33.661 7.2-41.485 23.145-5.353 11.006-2.985 24.379 5.559 30.963 3.294 2.571 7.412 4.217 12.353 5.04 1.956.309 4.014.515 6.073.515 7.412 0 15.029-2.058 21.823-5.864 7.824-4.526 14.721-11.315 19.765-19.853 1.955-3.292 4.22-7.715 4.22-12.756 0-4.732-2.059-9.361-5.764-13.167-3.295-3.394-7.721-5.76-12.456-6.789-3.191-.823-6.588-1.234-10.088-1.234Z"/><path fill="#E9D5DE" d="M166.525 238.368c-1.956 0-3.911-.103-5.867-.412-4.633-.72-8.544-2.263-11.529-4.629-8.956-6.995-9.265-20.059-5.044-28.803 8.749-17.899 32.528-24.894 49.616-21.088 8.132 1.852 16.779 8.847 16.779 18.208 0 4.629-2.161 8.744-3.911 11.83-4.941 8.229-11.529 14.915-19.147 19.236-6.588 3.703-13.897 5.658-20.897 5.658Zm17.5-52.463c-14.206 0-30.058 6.687-36.646 20.059-3.706 7.51-3.192 18.722 4.014 24.38 2.471 1.954 5.868 3.292 9.882 3.909 8.03 1.234 16.677-.412 24.294-4.835 7-4.012 13.176-10.184 17.809-17.899 1.647-2.674 3.397-6.275 3.5-9.978 0-7.509-7.103-13.167-13.897-14.71a42.68 42.68 0 0 0-8.956-.926Z"/><path fill="#F48D1C" d="M299.121 232.196c0 3.291-.206 6.686-.515 9.875a95.802 95.802 0 0 1-3.397 17.179c-.103.514-.309.926-.412 1.44-.721 2.469-1.647 4.835-2.573 7.201-.103.411-.309.72-.412 1.131-1.441 3.395-2.985 6.789-4.735 9.978-1.339 2.469-2.883 4.835-4.427 7.201-2.264 3.395-4.838 6.686-7.514 9.772l-2.471 2.778-1.853 1.851c-4.632 4.629-9.779 8.847-15.338 12.447-15.235 9.978-33.455 15.842-53.014 15.842h-35.102c-19.558 0-37.779-5.864-53.014-15.842-7.308-4.835-13.999-10.595-19.764-17.179-2.676-3.086-5.25-6.377-7.515-9.772a168.215 168.215 0 0 1-4.426-7.201 111.531 111.531 0 0 1-4.838-9.978c-.103-.411-.309-.72-.412-1.131-.926-2.366-1.853-4.732-2.573-7.201-.103-.514-.31-.926-.412-1.44a94.013 94.013 0 0 1-3.397-17.179c-.309-3.292-.515-6.583-.515-9.875h228.629v.103Z"/><path fill="#fff" d="M298.604 242.071a95.715 95.715 0 0 1-3.397 17.179H74.299a94.021 94.021 0 0 1-3.397-17.179h227.702ZM291.809 269.022c-1.442 3.395-2.986 6.789-4.736 9.978-1.338 2.469-2.882 4.835-4.426 7.201H86.857A168.215 168.215 0 0 1 82.43 279a111.531 111.531 0 0 1-4.838-9.978h214.217ZM275.028 295.973l-2.471 2.778-1.853 1.851c-4.632 4.629-9.779 8.847-15.338 12.447H114.134c-7.309-4.835-14-10.595-19.765-17.179h180.659v.103Z"/><path fill="#D87512" d="m272.56 298.751-1.853 1.851c-17.5 17.488-41.691 28.289-68.455 28.289H167.15c-53.426 0-96.763-43.307-96.763-96.695h37.881c2.986 11.212 8.338 21.499 16.471 29.934 19.661 20.47 47.043 35.798 75.351 37.341 23.265 1.234 43.75-1.44 72.47-.72Z" opacity=".25"/><path fill="#D87512" d="M230.458 338.56h-91.41a6.456 6.456 0 0 1-6.486-6.481c0-3.6 2.883-6.48 6.486-6.48h91.41a6.455 6.455 0 0 1 6.485 6.48c0 3.498-2.882 6.481-6.485 6.481Z"/><path fill="#75C97B" d="M97.255 37.16c.72-1.338 2.883-1.75 3.603-.515-1.75-4.115-3.603-8.538-3.19-12.961.205-1.955 1.131-4.218 2.984-4.835 1.544-.514 3.294.309 4.324 1.543 1.029 1.235 1.544 2.88 1.853 4.423.514 2.366.617 4.835.514 7.304.206-1.132.412-2.366 1.236-3.189.823-.823 2.367-.72 2.985.206 2.47 4.012-.721 16.87-5.456 18.104-4.529 1.132-10.706-5.863-8.853-10.08ZM160.868 220.366c.514-1.029 2.264-1.44 2.985-.412-1.441-3.394-2.985-6.892-2.573-10.595.205-1.646.926-3.394 2.47-3.909 1.235-.411 2.677.206 3.5 1.235.824 1.028 1.235 2.366 1.441 3.6.412 1.954.515 3.909.412 5.966.103-.926.309-1.954 1.029-2.571.721-.618 1.956-.618 2.368.205 1.956 3.292-.618 13.682-4.426 14.71-3.706.823-8.75-4.834-7.206-8.229Z"/><path fill="#66B06C" d="M27.561 138.998c-1.132-.617-2.985 0-2.985 1.337-.617-4.012-1.338-8.126-3.809-11.315-1.132-1.44-2.779-2.675-4.529-2.16-1.441.411-2.367 1.748-2.573 3.189-.206 1.44.206 2.88.72 4.217.824 2.057 1.853 3.909 3.088 5.761-.72-.72-1.44-1.543-2.47-1.749-1.03-.206-2.162.514-2.059 1.646.103 4.217 8.647 12.344 12.764 11.007 4.015-1.441 5.353-9.67 1.853-11.933Z"/><path fill="#F48D1C" d="M122.681 146.507c-5.662-.617-6.588 5.863-.926 12.653 1.338 1.543 3.911.822 4.22-1.132.721-4.629.927-11.007-3.294-11.521ZM320.015 115.853c-3.603-4.321-8.853-.206-9.367 8.538-.103 2.057 2.264 3.291 3.911 2.057 3.603-2.777 8.133-7.304 5.456-10.595ZM375.807 143.832c.412-5.657-6.176-6.274-12.661-.308-1.544 1.44-.721 3.909 1.338 4.217 4.529.309 11.014.309 11.323-3.909ZM197.516 75.735c-5.559-1.029-6.897 5.452-1.647 12.55 1.235 1.645 3.809 1.131 4.323-.926.927-4.424 1.544-10.904-2.676-11.624ZM128.135 50.532c-4.323-2.057-6.897 2.88-4.221 9.876.618 1.645 2.883 1.748 3.706.205 1.853-3.497 3.809-8.538.515-10.08ZM211.721 2.493c-5.662.103-5.662 6.79.823 12.653 1.544 1.337 4.015.309 4.015-1.749.103-4.629-.618-11.006-4.838-10.904ZM220.059 129.945c-3.603-4.423-8.853-.411-9.47 8.333-.206 2.057 2.161 3.394 3.808 2.16 3.706-2.675 8.339-7.098 5.662-10.493ZM266.072 192.489c-5.661.103-5.661 6.789.824 12.652 1.544 1.338 4.015.309 4.015-1.748.102-4.629-.515-11.007-4.839-10.904ZM3.372 143.318c-5.25 2.058-3.088 8.332 5.044 11.624 1.956.823 3.912-1.028 3.191-2.983-1.44-4.32-4.323-10.184-8.235-8.641Z"/><path fill="#820032" d="M358.821 136.221c-1.544 1.543-3.603 2.263-5.559 2.88-4.22 1.337-8.544 2.572-12.867 3.6 1.441 0 2.985 0 4.323.618 2.059.925 3.706 3.497 1.133 5.863a5.607 5.607 0 0 1-2.471 1.234c-7.515 1.852-15.132 3.189-22.75 3.909-.72.103-1.338-.103-1.955-.411-.103-.103-.206-.103-.309-.206-.618-.411-.927-1.029-1.133-1.749a3.929 3.929 0 0 1 0-1.543c1.442-6.995 4.118-17.693 7.721-21.91.515-.618 1.132-1.235 1.853-1.338 1.544-.205 2.573 1.441 2.882 2.881.206 1.44 0 3.086.824 4.423 1.235-3.498 2.985-6.686 5.352-9.464 1.442-1.749 3.397-3.497 5.662-3.6 2.265-.103 4.735 2.263 3.809 4.423 3.603-6.069 10.191-10.389 17.191-11.007 1.029-.103 2.059.103 2.779.72 1.544 1.132 1.235 2.984.618 4.424-1.956 4.732-5.868 8.538-10.706 10.286 3.603-1.131 6.176 3.395 3.603 5.967Z"/><path fill="#A01F53" d="M359.748 125.419c-.926 0-1.956-.103-2.882-.103-.412 0-.926 0-1.338-.103-.309 0-.618 0-.824-.102-1.235.925-2.367 1.851-3.603 2.674l-9.264 6.789c2.985.103 5.97-.411 8.956-.411.514 0 .926.617.926 1.131-.103.618-.618.926-1.132.926-3.706 0-7.515.72-11.221.103-3.911 2.88-7.72 5.864-11.529 8.847 1.956.308 4.015.308 5.971.514.514.103.926.617.926 1.132-.103.514-.618.925-1.132.925-2.574-.308-5.25-.308-7.824-.823-2.573 2.161-5.044 4.321-7.411 6.687-.618-.412-.927-1.029-1.133-1.749 2.265-2.263 4.736-4.423 7.206-6.481h.103c.515-2.571.309-5.349.618-7.92 0-.515.617-.926 1.132-.926.515.103.926.617.926 1.131-.205 1.955-.102 3.909-.308 5.864a447.99 447.99 0 0 1 11.014-8.538v-.103c.824-2.777 1.544-5.658 2.368-8.435.412-1.235 2.264-.514 1.956.72-.618 1.954-1.133 3.909-1.647 5.863 4.323-3.189 8.749-6.377 12.97-9.669 0-.514.206-1.029.309-1.44.206-.926.412-1.852.514-2.778.103-.514.515-.925 1.133-.925.515.102 1.029.617.926 1.131-.103.72-.309 1.44-.411 2.16 1.235-.926 2.47-1.954 3.705-2.983 1.03-.823 2.265.72 1.236 1.543-1.236 1.029-2.471 1.955-3.706 2.88.926 0 1.956.103 2.882.103.515 0 .927.617.927 1.132-.206.926-.721 1.234-1.339 1.234Z"/><path fill="#820032" d="M153.143 150.519c.412 1.954-.103 3.806-.514 5.658-1.03 3.909-2.265 7.715-3.603 11.521.72-1.132 1.544-2.263 2.573-2.983 1.75-1.132 4.53-1.132 5.044 2.057.103.823 0 1.646-.308 2.469-2.265 6.583-4.942 12.961-8.236 19.133-.308.514-.72 1.029-1.338 1.234-.103 0-.206.103-.309.103a2.855 2.855 0 0 1-1.853 0c-.411-.103-.823-.411-1.235-.72-4.632-4.526-11.426-11.83-12.867-16.561-.206-.72-.412-1.441-.103-2.058.515-1.234 2.367-1.234 3.603-.72 1.235.515 2.367 1.543 3.808 1.543-2.058-2.572-3.602-5.555-4.632-8.744-.617-1.954-1.029-4.32 0-6.069 1.03-1.851 4.015-2.469 5.25-.72-2.882-5.657-2.882-12.755.103-18.413a4.04 4.04 0 0 1 1.853-1.852c1.647-.617 2.779.515 3.603 1.749 2.573 3.806 3.603 8.641 2.573 13.064 1.236-3.086 5.971-2.88 6.588.309Z"/><path fill="#A01F53" d="m145.426 144.553-1.544 2.16c-.205.308-.514.72-.72 1.029-.206.205-.309.411-.515.617.103 1.337.206 2.674.309 4.114.206 3.498.412 6.893.618 10.39 1.544-2.16 2.676-4.732 4.117-6.995.309-.411.927-.411 1.338-.103.412.309.412.926.103 1.337-1.853 2.778-3.088 6.07-5.353 8.538.309 4.321.618 8.744 1.133 13.065 1.235-1.338 2.162-2.881 3.397-4.321.309-.411.926-.411 1.338-.103.412.309.412.926.103 1.338-1.544 1.851-2.882 3.806-4.529 5.554.411 2.984.823 5.967 1.441 8.847a2.855 2.855 0 0 1-1.853 0c-.515-2.88-1.03-5.761-1.338-8.641v-.103c-1.75-1.646-3.912-2.88-5.765-4.32-.412-.309-.412-.926-.103-1.337.309-.412.927-.412 1.338-.103 1.339 1.028 2.883 1.954 4.324 3.086-.412-4.115-.824-8.333-1.03-12.447 0 0-.103 0-.103-.103-1.647-2.057-3.5-3.909-5.147-5.966-.72-.926.721-1.955 1.442-1.132 1.132 1.44 2.47 2.777 3.602 4.115-.308-4.835-.617-9.773-.926-14.607l-.926-.926c-.618-.617-1.236-1.132-1.853-1.749-.309-.309-.515-.926-.103-1.337.309-.309.926-.515 1.338-.103.515.411.926.926 1.441 1.337-.103-1.44-.206-2.88-.412-4.32-.103-1.132 1.75-1.338 1.853-.206.103 1.44.309 2.88.412 4.218l1.544-2.161c.309-.411.927-.411 1.338-.102-.103.411 0 1.028-.309 1.44Z"/><path fill="#FFED85" d="M238.692 191.151c-1.029-2.468-2.779-4.629-3.5-7.303l-4.22 1.029c-3.912.823-7.721 2.057-11.324 3.806-.72.308-1.441.72-1.75 1.44-.514 1.028-.103 2.263.309 3.292 1.03 2.571 2.059 5.143 2.985 7.715 3.706-.206 7.515-.412 11.221-.72 2.059-.103 4.22-.309 5.662-1.749 1.955-1.852 1.749-5.041.617-7.51ZM71.933 75.014c-1.956 1.03-3.603 2.47-5.662 3.19l1.03 3.291a35.058 35.058 0 0 0 3.706 8.847c.308.514.617 1.131 1.235 1.337.823.411 1.853 0 2.676-.412 1.956-.925 4.015-1.851 5.97-2.88-.41-2.983-.823-5.966-1.132-8.95-.205-1.645-.514-3.291-1.647-4.423-1.646-1.44-4.22-1.028-6.176 0ZM215.014 60.407c-2.162-.103-4.323.309-6.485-.103l-.824 3.395c-.823 3.086-1.235 6.275-1.338 9.464 0 .617 0 1.234.412 1.748.515.72 1.544.926 2.47 1.029 2.162.206 4.427.412 6.589.617 1.132-2.777 2.367-5.555 3.5-8.23.617-1.44 1.235-3.085.823-4.628-.618-2.16-2.985-3.19-5.147-3.292ZM351.411 156.382c-1.853-1.131-4.015-1.748-5.662-3.086l-2.265 2.572a38.455 38.455 0 0 0-5.558 7.818c-.309.514-.618 1.132-.515 1.749.103.926.926 1.543 1.75 2.057 1.853 1.234 3.706 2.366 5.559 3.6 2.367-1.851 4.632-3.806 6.999-5.657 1.236-1.029 2.574-2.16 2.883-3.806.309-2.161-1.339-4.218-3.191-5.247Z"/></svg>