<svg xmlns="http://www.w3.org/2000/svg" width="722" height="523" fill="none"><path stroke="#F5F5F5" stroke-miterlimit="10" stroke-width="1.5" d="M183.733 68.466c-2.868-.359-5.914-.359-9.051.179-.179 0-.448.09-.627.09-.627.089-1.344.268-1.971.447-.717.18-1.344.359-1.972.538-.179.09-.358.09-.627.18-2.957.985-5.645 2.418-8.065 4.12-8.334 5.914-12.724 15.5-10.395 24.64 3.226 12.632 17.743 19.8 32.529 16.037 14.785-3.763 24.194-16.934 20.968-29.567-2.24-9.138-10.663-15.41-20.789-16.664Z"/><path stroke="#F5F5F5" stroke-miterlimit="10" stroke-width="1.5" d="M169.485 69.9c-2.958.985-5.646 2.418-8.065 4.12-1.165-.178-2.33-.537-3.495-.895-6.81-2.33-9.32-7.437-9.32-7.437s8.424-1.254 15.234 1.075c2.42.807 4.301 1.972 5.646 3.136ZM191.08 54.937s.179 5.734-4.659 11.02a17.288 17.288 0 0 1-2.689 2.419c-2.867-.359-5.914-.359-9.05.18a19.147 19.147 0 0 1 3.494-5.466c4.929-5.286 12.904-8.154 12.904-8.154ZM174.055 68.734c-.628.09-1.344.27-1.972.449a58.7 58.7 0 0 0-1.971.537 17.924 17.924 0 0 1-3.674-6.54c-2.151-6.81-.627-15.232-.627-15.232s5.018 2.688 7.258 9.587c1.165 3.853 1.165 8.153.986 11.2ZM182.835 319.961c-1.971 6.809-8.244 11.379-16.04 12.633-1.613.269-3.405.358-5.108.269a29.193 29.193 0 0 1-7.169-1.165c-2.419-.717-4.57-1.613-6.631-2.777a28.485 28.485 0 0 1-4.122-2.957c-6.004-5.107-8.871-12.454-6.989-19.174l4.749-16.396c1.971-6.809 8.244-11.378 16.04-12.633 1.613-.268 3.316-.358 5.108-.268 1.523.089 3.047.268 4.57.537.806.179 1.702.359 2.509.627.806.269 1.613.448 2.33.807 1.523.537 2.957 1.254 4.301 2.06a28.43 28.43 0 0 1 4.122 2.957c1.523 1.344 2.868 2.778 3.943 4.301 3.226 4.569 4.48 9.855 3.047 14.962l-4.66 16.217Z"/><path stroke="#F5F5F5" stroke-miterlimit="10" stroke-width="1.5" d="M147.887 328.921c-2.33-.09-4.75-.448-7.169-1.165-12.725-3.673-20.61-14.783-17.743-24.997l4.749-16.396c2.868-10.124 15.592-15.411 28.227-11.737 2.42.717 4.66 1.702 6.632 2.777-1.703-.089-3.406 0-5.108.269-7.796 1.165-14.159 5.824-16.04 12.633l-4.75 16.396c-1.971 6.809.986 14.067 6.99 19.174a27.975 27.975 0 0 0 4.212 3.046ZM196.544 323.993c-2.868 10.124-15.592 15.411-28.227 11.737a34.27 34.27 0 0 1-6.631-2.777c1.702.089 3.405 0 5.107-.269 7.796-1.165 14.069-5.824 16.04-12.633l4.75-16.396c1.434-5.107.179-10.393-3.047-14.963-1.075-1.523-2.419-2.956-3.943-4.3-1.254-1.075-2.688-2.061-4.122-2.957 2.33.09 4.749.448 7.169 1.165 6.362 1.792 11.56 5.555 14.696 10.035 3.226 4.479 4.48 9.855 3.047 14.872l-4.839 16.486ZM185.075 269.16c-.18.179-.449.269-.717.448-4.57 2.24-8.782 5.645-12.277 9.766-.717-.269-1.523-.537-2.33-.806-.806-.269-1.702-.448-2.509-.627 2.957-5.824 7.259-11.2 12.725-15.321h.089c1.793-1.344 4.391-.986 5.825.806 1.344 1.792.986 4.39-.806 5.734ZM538.676 34.24c3.136 2.15 3.674 5.107 3.674 5.107s-4.481-.538-7.528-2.688c-3.136-2.15-3.674-5.107-3.674-5.107s4.481.538 7.528 2.688Z"/><path stroke="#F5F5F5" stroke-linecap="round" stroke-linejoin="round" stroke-miterlimit="10" stroke-width="1.5" d="M541.005 29.76c-.627 5.914 2.33 9.677 2.33 9.677s3.943-5.914 4.57-11.827c.628-5.913-2.33-9.676-2.33-9.676s-3.942 5.913-4.57 11.826Z"/><path stroke="#F5F5F5" stroke-miterlimit="10" stroke-width="1.5" d="M550.146 39.078c-3.674-.806-6.273.717-6.273.717s3.405 2.867 7.079 3.763c3.674.806 6.273-.717 6.273-.717s-3.405-2.956-7.079-3.763Z"/><path stroke="#F5F5F5" stroke-miterlimit="10" stroke-width="1.5" d="M553.282 34.24c-3.943 4.48-8.692 4.928-8.692 4.928s1.613-6.9 5.556-11.379c3.942-4.48 8.692-4.928 8.692-4.928s-1.613 6.81-5.556 11.379ZM515.377 53.861c4.122-11.468 16.757-17.381 28.316-13.26 11.47 4.122 17.474 16.844 13.352 28.313-4.122 11.468-29.75 17.112-29.75 17.112s-16.041-20.696-11.918-32.164ZM522.455 99.197l4.749-13.08M518.424 48.127l13.262 4.839M543.156 70.706l10.037 3.763M515.377 53.861l18.011 6.54M427.471 86.653c1.792 3.136.627 6.989-2.33 8.78l-40.414 23.475c-3.047 1.792-6.99.806-8.782-2.24v-.09c-8.244-14.245-3.405-32.433 10.843-40.676 14.248-8.332 32.439-3.494 40.683 10.751Z"/><path stroke="#F5F5F5" stroke-miterlimit="10" stroke-width="1.5" d="M417.972 129.57c-3.943 2.24-8.871.896-11.112-2.957l-.268-.538-7.528-15.5 11.829-6.809 9.767 14.246c2.509 3.852 1.345 9.139-2.688 11.558Z"/><path stroke="#F5F5F5" stroke-miterlimit="10" stroke-width="1.5" d="M417.973 129.57c-2.24 1.344-5.825-.806-8.065-4.659l-.269-.538-7.975-15.141 6.721-3.942 9.23 14.424c2.509 3.943 2.688 8.512.358 9.856ZM379.889 111.024c-1.076-1.792.179-4.48 2.688-6.003 2.509-1.434 6.9-2.061 7.975-.18 1.075 1.792-1.613 5.376-4.122 6.81-2.599 1.433-5.556 1.165-6.541-.627ZM420.751 87.28c-1.076-1.791-3.943-2.15-6.542-.626-2.509 1.433-5.197 5.017-4.122 6.809 1.076 1.792 5.377 1.254 7.975-.18 2.599-1.522 3.764-4.21 2.689-6.002ZM400.786 402.588c13.567-8.453 17.732-26.268 9.304-39.79-8.429-13.523-26.259-17.633-39.826-9.179-13.567 8.453-17.732 26.268-9.304 39.791 8.429 13.522 26.259 17.632 39.826 9.178Z"/><path stroke="#F5F5F5" stroke-miterlimit="10" stroke-width="1.5" d="M390.729 395.132c1.524 5.017 1.972 10.034 1.255 14.873-17.116 3.763-34.59-6.182-39.966-23.206-1.524-5.017-1.972-10.034-1.255-14.873 17.116-3.673 34.59 6.183 39.966 23.206ZM391.178 395.042c1.523 5.018 4.122 9.318 7.437 12.902 16.22-6.809 24.822-24.907 19.445-42.02-1.523-5.018-4.122-9.318-7.437-12.902-16.219 6.899-24.822 24.997-19.445 42.02Z"/><path stroke="#F5F5F5" stroke-miterlimit="10" stroke-width="1.5" d="M389.922 392.802c-1.613-7.436-3.943-14.783-8.333-20.965-4.391-6.182-11.022-11.11-18.46-12.006"/><path stroke="#F5F5F5" stroke-miterlimit="10" stroke-width="1.5" d="M390.37 393.609c-2.241-7.257-4.481-14.694-4.571-22.31-.089-7.615 2.151-15.589 7.797-20.786M484.731 387.696c-5.377-9.229-17.115-12.364-26.345-6.989-9.23 5.286-12.366 17.113-6.99 26.252 1.792 3.046 4.212 5.376 7.079 6.988 0 3.315.807 6.631 2.599 9.587 5.377 9.229 17.116 12.364 26.345 6.989 9.23-5.287 12.366-17.113 6.99-26.252-1.792-3.046-4.212-5.376-7.079-6.988 0-3.226-.896-6.541-2.599-9.587ZM448.707 398.089l8.603-5.017M496.29 409.109l-7.976 4.659M484.73 387.696l-14.337 8.332M460.984 423.624l16.668-9.587M242.248 345.675c-3.315-9.139-8.333-45.963.807-49.278 9.14-3.315 28.944 28.223 32.17 37.362 3.315 9.139-1.434 19.173-10.574 22.399-8.961 3.315-19.087-1.344-22.403-10.483Z"/><path stroke="#F5F5F5" stroke-miterlimit="10" stroke-width="1.5" d="M266.174 309.21s-2.778-7.079-9.14-11.2c-3.943-2.509-8.423-3.315-11.201-3.494-.09-.269-.09-.538-.18-.717-.537-3.673.359-7.168 2.42-9.766l-4.122-3.225c-2.868 3.673-4.122 8.69-3.495 13.708.09.627.179 1.344.358 1.971-1.971 1.971-4.838 5.286-6.272 9.676-2.33 7.168.179 14.425.179 14.425s6.183-4.48 8.513-11.647c.09-.179.09-.269.09-.448.089.179.089.358.179.537 2.688 7.078 9.05 11.289 9.05 11.289s2.061-7.346-.537-14.425c0-.089-.09-.179-.09-.268.09.089.179.089.179.179 6.452 3.942 14.069 3.405 14.069 3.405ZM118.318 139.246l5.466 7.526c4.66 6.361 2.33 15.411-4.749 18.815-6.99 3.405-15.324-.179-17.653-7.615l-1.972-6.362"/><path stroke="#F5F5F5" stroke-miterlimit="10" stroke-width="1.5" d="M126.83 107.619c-2.061-4.211-6.99-6.183-11.291-4.48-3.763-5.107-10.843-6.989-16.757-4.122-1.613.807-2.957 1.882-4.122 3.047-2.688-2.509-6.72-3.226-10.126-1.613-3.315 1.613-5.197 5.017-5.108 8.512-1.254.179-2.509.627-3.674 1.164-6.72 3.226-9.498 11.289-6.272 18.009 1.344 2.867 3.674 4.928 6.272 6.272-1.164 2.419-1.344 5.376-.09 7.974 2.151 4.48 7.528 6.361 12.008 4.211 4.57 4.928 12.008 6.54 18.371 3.494 4.122-1.971 6.899-5.555 8.154-9.587 1.344-.268 2.688-.627 4.032-1.344 7.796-3.763 11.112-13.17 7.259-20.965l-.269-.538a8.688 8.688 0 0 0 1.613-10.034Z"/><path stroke="#F5F5F5" stroke-miterlimit="10" stroke-width="1.5" d="M90.627 128.763c4.57-4.3 4.66-7.526.358-12.006M110.522 109.679c-.18 6.182 2.061 8.601 8.244 8.781M448.436 51.8c-2.151-2.33-1.434-5.913 1.434-7.257 1.792-.806 3.943-.448 5.287.986 2.15 2.33 1.434 5.913-1.434 7.257-1.792.896-3.943.448-5.287-.986ZM453.633 59.505c-2.15-2.33-1.433-5.913 1.434-7.257 1.792-.806 3.943-.448 5.287.986 2.151 2.33 1.434 5.913-1.434 7.257-1.702.896-3.943.448-5.287-.986ZM459.28 67.838c-2.151-2.33-1.434-5.913 1.434-7.257 1.792-.807 3.942-.448 5.287.985 2.15 2.33 1.433 5.914-1.434 7.257-1.792.897-4.033.449-5.287-.985Z"/><path stroke="#F5F5F5" stroke-miterlimit="10" stroke-width="1.5" d="M464.297 75.454c-2.15-2.33-1.433-5.914 1.434-7.258 1.792-.806 3.943-.448 5.287.986 2.151 2.33 1.434 5.913-1.434 7.257-1.792.807-3.942.359-5.287-.985ZM469.495 83.159c-2.151-2.33-1.434-5.914 1.433-7.258 1.793-.806 3.943-.447 5.287.986 2.151 2.33 1.434 5.913-1.433 7.257-1.793.896-3.943.448-5.287-.985ZM475.141 91.401c-2.151-2.33-1.434-5.913 1.434-7.257 1.792-.806 3.943-.448 5.287.986 2.15 2.33 1.434 5.913-1.434 7.257-1.792.896-4.032.448-5.287-.986Z"/><path stroke="#F5F5F5" stroke-miterlimit="10" stroke-width="1.5" d="m485.088 94.896-3.226 2.06c-4.033 2.689-9.499 1.524-12.098-2.508l-27.6-41.93c-2.688-4.033-1.523-9.498 2.51-12.096l3.226-2.061c4.032-2.688 9.498-1.523 12.097 2.509l27.6 41.841c2.688 4.032 1.523 9.497-2.509 12.185Z"/><path stroke="#F5F5F5" stroke-miterlimit="10" stroke-width="1.5" d="m487.327 98.48-3.226 2.06c-4.032 2.688-9.498 1.524-12.097-2.508l-32.259-48.92c-2.689-4.031-1.524-9.497 2.509-12.095l3.226-2.06c4.032-2.689 9.498-1.524 12.097 2.508l32.259 48.92c2.599 4.031 1.524 9.407-2.509 12.095ZM200.307 182.073c-1.971-1.971-3.405-4.301-4.211-6.989 0-.089 0-.089-.09-.179-5.108-17.471-20.072-28.491-33.424-24.639-13.352 3.853-20.073 21.145-14.965 38.616v.09c.806 2.688.806 5.555.179 8.332-1.344 5.645-1.075 11.648.986 17.561 5.287 14.694 20.968 23.385 36.292 19.98 17.742-3.942 28.227-21.951 23.209-39.153-1.344-5.376-4.212-9.946-7.976-13.619Z"/><path stroke="#F5F5F5" stroke-miterlimit="10" stroke-width="1.5" d="M198.157 182.969c-1.793-1.792-3.137-3.943-3.854-6.362v-.179c-4.659-15.948-18.28-26.072-30.557-22.578-12.186 3.494-18.37 19.353-13.71 35.39v.09c.717 2.509.807 5.107.179 7.616a28.972 28.972 0 0 0 .896 16.037c4.839 13.44 19.177 21.414 33.156 18.278 16.219-3.674 25.808-20.07 21.238-35.839a27.35 27.35 0 0 0-7.348-12.453Z"/><path stroke="#F5F5F5" stroke-miterlimit="10" stroke-width="1.5" d="M191.436 187.986c5.556 18.995 2.689 36.466-6.362 39.154-9.051 2.598-20.879-10.662-26.435-29.657-5.556-18.994-2.688-36.465 6.362-39.153 9.051-2.598 20.88 10.662 26.435 29.656Z"/><mask id="a" width="40" height="70" x="155" y="158" maskUnits="userSpaceOnUse" style="mask-type:luminance"><path fill="#fff" d="M191.436 187.986c5.556 18.995 2.689 36.466-6.362 39.154-9.051 2.598-20.879-10.662-26.435-29.657-5.556-18.994-2.688-36.465 6.362-39.153 9.051-2.598 20.88 10.662 26.435 29.656Z"/></mask><g mask="url(#a)"><path stroke="#F5F5F5" stroke-miterlimit="10" stroke-width="1.5" d="M175.755 173.92c.897 3.136-.896 6.451-4.032 7.347-3.136.896-6.452-.896-7.438-4.032-.896-3.136.896-6.451 4.033-7.347 3.226-.986 6.541.806 7.437 4.032Z"/></g><mask id="b" width="40" height="70" x="155" y="158" maskUnits="userSpaceOnUse" style="mask-type:luminance"><path fill="#fff" d="M191.436 187.986c5.556 18.995 2.689 36.466-6.362 39.154-9.051 2.598-20.879-10.662-26.435-29.657-5.556-18.994-2.688-36.465 6.362-39.153 9.051-2.598 20.88 10.662 26.435 29.656Z"/></mask><g mask="url(#b)"><path stroke="#F5F5F5" stroke-miterlimit="10" stroke-width="1.5" d="M179.07 185.299c.896 3.135-.896 6.45-4.033 7.346-3.136.896-6.451-.896-7.437-4.031-.896-3.136.896-6.451 4.032-7.347 3.226-.896 6.542.896 7.438 4.032Z"/></g><mask id="c" width="40" height="70" x="155" y="158" maskUnits="userSpaceOnUse" style="mask-type:luminance"><path fill="#fff" d="M191.436 187.986c5.556 18.995 2.689 36.466-6.362 39.154-9.051 2.598-20.879-10.662-26.435-29.657-5.556-18.994-2.688-36.465 6.362-39.153 9.051-2.598 20.88 10.662 26.435 29.656Z"/></mask><g mask="url(#c)"><path stroke="#F5F5F5" stroke-miterlimit="10" stroke-width="1.5" d="M172.439 162.362c.896 3.136-.896 6.451-4.032 7.347-3.137.896-6.452-.896-7.438-4.032-.896-3.136.896-6.451 4.032-7.347 3.226-.896 6.542.896 7.438 4.032Z"/></g><mask id="d" width="40" height="70" x="155" y="158" maskUnits="userSpaceOnUse" style="mask-type:luminance"><path fill="#fff" d="M191.436 187.986c5.556 18.995 2.689 36.466-6.362 39.154-9.051 2.598-20.879-10.662-26.435-29.657-5.556-18.994-2.688-36.465 6.362-39.153 9.051-2.598 20.88 10.662 26.435 29.656Z"/></mask><g mask="url(#d)"><path stroke="#F5F5F5" stroke-miterlimit="10" stroke-width="1.5" d="M185.791 208.235c.896 3.136-.897 6.451-4.033 7.347-3.136.896-6.452-.896-7.437-4.032-.897-3.136.896-6.451 4.032-7.347 3.226-.896 6.541.896 7.438 4.032Z"/></g><mask id="e" width="40" height="70" x="155" y="158" maskUnits="userSpaceOnUse" style="mask-type:luminance"><path fill="#fff" d="M191.436 187.986c5.556 18.995 2.689 36.466-6.362 39.154-9.051 2.598-20.879-10.662-26.435-29.657-5.556-18.994-2.688-36.465 6.362-39.153 9.051-2.598 20.88 10.662 26.435 29.656Z"/></mask><g mask="url(#e)"><path stroke="#F5F5F5" stroke-miterlimit="10" stroke-width="1.5" d="M189.107 219.703c.896 3.136-.896 6.451-4.032 7.347-3.137.896-6.452-.896-7.438-4.032-.896-3.136.896-6.451 4.032-7.347a5.928 5.928 0 0 1 7.438 4.032Z"/></g><mask id="f" width="40" height="70" x="155" y="158" maskUnits="userSpaceOnUse" style="mask-type:luminance"><path fill="#fff" d="M191.436 187.986c5.556 18.995 2.689 36.466-6.362 39.154-9.051 2.598-20.879-10.662-26.435-29.657-5.556-18.994-2.688-36.465 6.362-39.153 9.051-2.598 20.88 10.662 26.435 29.656Z"/></mask><g mask="url(#f)"><path stroke="#F5F5F5" stroke-miterlimit="10" stroke-width="1.5" d="M182.476 196.766c.896 3.136-.896 6.451-4.032 7.347-3.137.896-6.452-.896-7.438-4.032-.896-3.135.896-6.45 4.033-7.346 3.136-.986 6.451.896 7.437 4.031Z"/></g><mask id="g" width="40" height="70" x="155" y="158" maskUnits="userSpaceOnUse" style="mask-type:luminance"><path fill="#fff" d="M191.436 187.986c5.556 18.995 2.689 36.466-6.362 39.154-9.051 2.598-20.879-10.662-26.435-29.657-5.556-18.994-2.688-36.465 6.362-39.153 9.051-2.598 20.88 10.662 26.435 29.656Z"/></mask><g mask="url(#g)"><path stroke="#F5F5F5" stroke-miterlimit="10" stroke-width="1.5" d="M164.285 177.235c.896 3.136-.896 6.451-4.033 7.347-3.136.896-6.452-.896-7.437-4.032-.896-3.136.896-6.451 4.032-7.347 3.226-.986 6.542.806 7.438 4.032Z"/></g><mask id="h" width="40" height="70" x="155" y="158" maskUnits="userSpaceOnUse" style="mask-type:luminance"><path fill="#fff" d="M191.436 187.986c5.556 18.995 2.689 36.466-6.362 39.154-9.051 2.598-20.879-10.662-26.435-29.657-5.556-18.994-2.688-36.465 6.362-39.153 9.051-2.598 20.88 10.662 26.435 29.656Z"/></mask><g mask="url(#h)"><path stroke="#F5F5F5" stroke-miterlimit="10" stroke-width="1.5" d="M167.601 188.614c.896 3.135-.896 6.45-4.032 7.346-3.137.896-6.452-.896-7.438-4.031-.896-3.136.896-6.451 4.033-7.347 3.225-.896 6.541.896 7.437 4.032Z"/></g><mask id="i" width="40" height="70" x="155" y="158" maskUnits="userSpaceOnUse" style="mask-type:luminance"><path fill="#fff" d="M191.436 187.986c5.556 18.995 2.689 36.466-6.362 39.154-9.051 2.598-20.879-10.662-26.435-29.657-5.556-18.994-2.688-36.465 6.362-39.153 9.051-2.598 20.88 10.662 26.435 29.656Z"/></mask><g mask="url(#i)"><path stroke="#F5F5F5" stroke-miterlimit="10" stroke-width="1.5" d="M160.968 165.766c.896 3.136-.896 6.451-4.032 7.347-3.136.896-6.452-.896-7.438-4.031-.896-3.136.896-6.451 4.033-7.347 3.226-.986 6.541.806 7.437 4.031Z"/></g><mask id="j" width="40" height="70" x="155" y="158" maskUnits="userSpaceOnUse" style="mask-type:luminance"><path fill="#fff" d="M191.436 187.986c5.556 18.995 2.689 36.466-6.362 39.154-9.051 2.598-20.879-10.662-26.435-29.657-5.556-18.994-2.688-36.465 6.362-39.153 9.051-2.598 20.88 10.662 26.435 29.656Z"/></mask><g mask="url(#j)"><path stroke="#F5F5F5" stroke-miterlimit="10" stroke-width="1.5" d="M174.322 211.55c.896 3.136-.896 6.451-4.033 7.347-3.136.896-6.452-.896-7.437-4.032-.896-3.136.896-6.451 4.032-7.347 3.226-.896 6.542.896 7.438 4.032Z"/></g><mask id="k" width="40" height="70" x="155" y="158" maskUnits="userSpaceOnUse" style="mask-type:luminance"><path fill="#fff" d="M191.436 187.986c5.556 18.995 2.689 36.466-6.362 39.154-9.051 2.598-20.879-10.662-26.435-29.657-5.556-18.994-2.688-36.465 6.362-39.153 9.051-2.598 20.88 10.662 26.435 29.656Z"/></mask><g mask="url(#k)"><path stroke="#F5F5F5" stroke-miterlimit="10" stroke-width="1.5" d="M177.636 223.018c.896 3.136-.896 6.451-4.032 7.347-3.137.896-6.452-.896-7.438-4.032-.896-3.135.896-6.45 4.033-7.346a5.927 5.927 0 0 1 7.437 4.031Z"/></g><mask id="l" width="40" height="70" x="155" y="158" maskUnits="userSpaceOnUse" style="mask-type:luminance"><path fill="#fff" d="M191.436 187.986c5.556 18.995 2.689 36.466-6.362 39.154-9.051 2.598-20.879-10.662-26.435-29.657-5.556-18.994-2.688-36.465 6.362-39.153 9.051-2.598 20.88 10.662 26.435 29.656Z"/></mask><g mask="url(#l)"><path stroke="#F5F5F5" stroke-miterlimit="10" stroke-width="1.5" d="M171.005 200.082c.897 3.136-.896 6.451-4.032 7.347-3.136.896-6.452-.896-7.438-4.032-.896-3.136.896-6.451 4.033-7.347 3.136-.896 6.452.896 7.437 4.032Z"/></g><mask id="m" width="40" height="70" x="155" y="158" maskUnits="userSpaceOnUse" style="mask-type:luminance"><path fill="#fff" d="M191.436 187.986c5.556 18.995 2.689 36.466-6.362 39.154-9.051 2.598-20.879-10.662-26.435-29.657-5.556-18.994-2.688-36.465 6.362-39.153 9.051-2.598 20.88 10.662 26.435 29.656Z"/></mask><g mask="url(#m)"><path stroke="#F5F5F5" stroke-miterlimit="10" stroke-width="1.5" d="M187.224 170.515c.896 3.136-.896 6.451-4.032 7.347-3.137.896-6.452-.896-7.438-4.032-.896-3.136.896-6.451 4.033-7.347 3.225-.896 6.541.896 7.437 4.032Z"/></g><mask id="n" width="40" height="70" x="155" y="158" maskUnits="userSpaceOnUse" style="mask-type:luminance"><path fill="#fff" d="M191.436 187.986c5.556 18.995 2.689 36.466-6.362 39.154-9.051 2.598-20.879-10.662-26.435-29.657-5.556-18.994-2.688-36.465 6.362-39.153 9.051-2.598 20.88 10.662 26.435 29.656Z"/></mask><g mask="url(#n)"><path stroke="#F5F5F5" stroke-miterlimit="10" stroke-width="1.5" d="M190.541 181.983c.896 3.136-.897 6.451-4.033 7.347-3.136.896-6.452-.896-7.437-4.032-.897-3.136.896-6.451 4.032-7.347 3.226-.896 6.541.896 7.438 4.032Z"/></g><mask id="o" width="40" height="70" x="155" y="158" maskUnits="userSpaceOnUse" style="mask-type:luminance"><path fill="#fff" d="M191.436 187.986c5.556 18.995 2.689 36.466-6.362 39.154-9.051 2.598-20.879-10.662-26.435-29.657-5.556-18.994-2.688-36.465 6.362-39.153 9.051-2.598 20.88 10.662 26.435 29.656Z"/></mask><g mask="url(#o)"><path stroke="#F5F5F5" stroke-miterlimit="10" stroke-width="1.5" d="M183.91 159.047c.896 3.135-.896 6.451-4.033 7.347-3.136.895-6.452-.896-7.437-4.032-.896-3.136.896-6.451 4.032-7.347 3.226-.896 6.542.896 7.438 4.032Z"/></g><mask id="p" width="40" height="70" x="155" y="158" maskUnits="userSpaceOnUse" style="mask-type:luminance"><path fill="#fff" d="M191.436 187.986c5.556 18.995 2.689 36.466-6.362 39.154-9.051 2.598-20.879-10.662-26.435-29.657-5.556-18.994-2.688-36.465 6.362-39.153 9.051-2.598 20.88 10.662 26.435 29.656Z"/></mask><g mask="url(#p)"><path stroke="#F5F5F5" stroke-miterlimit="10" stroke-width="1.5" d="M197.261 204.92c.896 3.136-.896 6.451-4.032 7.347-3.137.895-6.452-.896-7.438-4.032-.896-3.136.896-6.451 4.033-7.347 3.226-.896 6.541.896 7.437 4.032Z"/></g><mask id="q" width="40" height="70" x="155" y="158" maskUnits="userSpaceOnUse" style="mask-type:luminance"><path fill="#fff" d="M191.436 187.986c5.556 18.995 2.689 36.466-6.362 39.154-9.051 2.598-20.879-10.662-26.435-29.657-5.556-18.994-2.688-36.465 6.362-39.153 9.051-2.598 20.88 10.662 26.435 29.656Z"/></mask><g mask="url(#q)"><path stroke="#F5F5F5" stroke-miterlimit="10" stroke-width="1.5" d="M200.576 216.388c.896 3.136-.896 6.451-4.033 7.347-3.136.896-6.452-.896-7.437-4.032-.896-3.136.896-6.451 4.032-7.347a5.928 5.928 0 0 1 7.438 4.032Z"/></g><mask id="r" width="40" height="70" x="155" y="158" maskUnits="userSpaceOnUse" style="mask-type:luminance"><path fill="#fff" d="M191.436 187.986c5.556 18.995 2.689 36.466-6.362 39.154-9.051 2.598-20.879-10.662-26.435-29.657-5.556-18.994-2.688-36.465 6.362-39.153 9.051-2.598 20.88 10.662 26.435 29.656Z"/></mask><g mask="url(#r)"><path stroke="#F5F5F5" stroke-miterlimit="10" stroke-width="1.5" d="M193.855 193.451c.896 3.136-.896 6.451-4.032 7.347-3.137.896-6.452-.896-7.438-4.031-.896-3.136.896-6.451 4.032-7.347a5.928 5.928 0 0 1 7.438 4.031Z"/></g><path stroke="#F5F5F5" stroke-miterlimit="10" stroke-width="1.5" d="M191.436 187.986c5.556 18.995 2.689 36.466-6.362 39.154-9.051 2.598-20.879-10.662-26.435-29.657-5.556-18.994-2.688-36.465 6.362-39.153 9.051-2.598 20.88 10.662 26.435 29.656ZM567.529 484.011c-6.81 3.405-15.055 1.613-19.894-4.39l-12.455-18.457c-4.66-9.408-.807-20.786 8.513-25.445 9.409-4.659 20.789-.896 25.538 8.511l6.9 21.862c1.524 7.167-1.971 14.604-8.602 17.919Z"/><path stroke="#F5F5F5" stroke-miterlimit="10" stroke-width="1.5" d="M577.923 478.725c-6.81 3.405-15.054 1.613-19.893-4.39l-12.456-18.457c-4.659-9.408-.806-20.786 8.513-25.445 9.409-4.659 20.79-.896 25.539 8.511l6.9 21.862c1.613 7.257-1.882 14.604-8.603 17.919Z"/><path stroke="#F5F5F5" stroke-miterlimit="10" stroke-width="1.5" d="M548.71 433.927c-1.254.627-2.778.09-3.405-1.165-1.882-3.852-2.061-8.601-.448-12.902 1.613-4.39 4.749-7.884 8.602-9.676 1.255-.537 2.778 0 3.316 1.254.538 1.255 0 2.778-1.255 3.316-2.688 1.254-4.839 3.673-6.004 6.809-1.075 3.136-.985 6.361.269 9.049.628 1.165.18 2.688-1.075 3.315ZM548.711 434.017c8.154-1.523 16.667 2.419 20.521 10.214l6.899 21.861c1.165 5.197-.358 10.572-3.853 14.335M297.176 33.702c25.897-17.382 60.666-13.887 82.53 8.333l-6.004 4.838-39.428 32.164-32.349-39.422-4.749-5.913Z"/><path stroke="#F5F5F5" stroke-miterlimit="10" stroke-width="1.5" d="M301.926 39.615c23.119-12.185 51.525-9.318 71.777 7.257l-39.428 32.165-32.349-39.422Z"/><path stroke="#F5F5F5" stroke-miterlimit="10" stroke-width="1.5" d="M333.378 66.404c.18-1.343.986-2.419 1.793-2.329.806.09 1.433 1.254 1.254 2.598-.179 1.344-.986 2.42-1.792 2.33-.807-.09-1.434-1.254-1.255-2.599ZM335.797 44.095c.179-1.344.986-2.42 1.792-2.33.807.09 1.434 1.255 1.255 2.599-.18 1.344-.986 2.419-1.793 2.33-.806-.09-1.344-1.255-1.254-2.599ZM316.531 41.945c.179-1.344.985-2.419 1.792-2.33.806.09 1.434 1.255 1.255 2.599-.18 1.344-.986 2.419-1.793 2.33-.806-.09-1.433-1.255-1.254-2.599ZM355.87 46.335c.179-1.344.986-2.419 1.792-2.33.807.09 1.434 1.255 1.255 2.599-.179 1.344-.986 2.42-1.792 2.33-.896-.09-1.434-1.255-1.255-2.599ZM343.684 56.46c.179-1.345.985-2.42 1.792-2.33.806.09 1.434 1.254 1.254 2.598-.179 1.344-.985 2.42-1.792 2.33-.806 0-1.344-1.165-1.254-2.599ZM325.762 54.489c.179-1.344.985-2.42 1.792-2.33.806.09 1.434 1.254 1.254 2.598-.179 1.344-.985 2.42-1.792 2.33-.806 0-1.344-1.255-1.254-2.599ZM555.7 209.847c-.269 1.792-.807 3.584-1.613 5.197-4.212 8.78-14.696 12.454-23.478 8.243-8.782-4.211-12.456-14.694-8.244-23.474a17.928 17.928 0 0 1 3.046-4.48c-6.989-4.838-9.677-14.156-5.914-22.041 4.212-8.78 14.696-12.454 23.478-8.243 5.108 2.42 8.513 7.079 9.588 12.275 4.75-2.419 10.485-2.688 15.592-.179 8.782 4.211 12.456 14.694 8.244 23.474-3.674 7.884-12.635 11.648-20.699 9.228Z"/><path stroke="#F5F5F5" stroke-miterlimit="10" stroke-width="1.5" d="M552.025 206.264a12.167 12.167 0 0 1-1.165 3.763c-2.957 6.271-10.484 8.87-16.757 5.913-6.273-2.957-8.871-10.483-5.914-16.754a11.574 11.574 0 0 1 2.24-3.226c-5.018-3.404-6.9-10.124-4.212-15.769 2.958-6.271 10.485-8.87 16.757-5.913 3.674 1.792 6.094 5.017 6.9 8.78 3.316-1.702 7.438-1.881 11.112-.179 6.273 2.957 8.871 10.483 5.914 16.755-2.688 5.644-9.05 8.332-14.875 6.63ZM551.758 281.883c-1.972 3.494-3.047 7.974-2.778 12.633.179 4.569 1.702 9.318 4.391 13.26 2.688 4.032 6.72 7.436 11.559 9.587 4.839 2.24 10.395 3.225 15.951 2.598 1.075-.09 1.971.627 2.151 1.702.089.896-.449 1.703-1.255 2.061-6.004 2.15-12.635 2.509-19.176 1.254-6.452-1.344-12.815-4.3-18.102-9.138-5.287-4.839-9.05-11.2-11.201-18.188-2.061-6.989-2.419-14.784-.448-22.399l.179-.807c1.434-5.376 6.99-8.691 12.366-7.257 5.377 1.433 8.693 6.988 7.259 12.364-.09.717-.448 1.613-.896 2.33Z"/><path stroke="#F5F5F5" stroke-miterlimit="10" stroke-width="1.5" d="M557.493 258.408c-2.24-.806-4.75-.627-7.079.448-2.241 1.075-3.943 2.867-4.66 5.018-1.882.089-5.466.716-8.603 2.777-4.48 3.046-6.362 8.243-6.362 8.243s5.466.179 9.947-2.867c.089-.09.179-.09.269-.179 0 .089-.09.269-.09.358-1.613 5.197.09 10.393.09 10.393s4.39-3.225 6.093-8.422c0-.089 0-.089.09-.179 0 .09 0 .09.089.179 1.792 5.107 6.363 8.243 6.363 8.243s1.613-5.197-.18-10.393c-1.165-3.405-3.584-5.913-5.107-7.168.537-1.433 1.702-2.688 3.315-3.494s3.405-.896 4.929-.358a1.393 1.393 0 0 0 1.792-.807c.179-.716-.179-1.523-.896-1.792ZM469.854 167.738l14.875 22.578M473.796 183.328c2.509.537 10.395 6.898 10.395 6.898s-9.768 2.688-12.277 2.151c-2.509-.538-4.122-2.957-3.584-5.466.448-2.508 2.957-4.121 5.466-3.583ZM482.489 177.593c-.538 2.509 2.151 12.275 2.151 12.275s6.362-7.884 6.9-10.393c.537-2.509-1.076-4.928-3.585-5.465-2.509-.538-4.928 1.075-5.466 3.583ZM466.359 172.128c2.509.537 10.394 6.899 10.394 6.899s-9.767 2.688-12.276 2.15c-2.509-.538-4.122-2.957-3.585-5.465.538-2.509 3.047-4.122 5.467-3.584ZM475.141 166.394c-.537 2.508 2.151 12.274 2.151 12.274s6.362-7.884 6.9-10.393c.538-2.508-1.075-4.927-3.584-5.465-2.509-.538-4.929 1.075-5.467 3.584ZM459.818 160.301c1.344 2.151 9.946 7.526 9.946 7.526s-.716-10.124-2.061-12.274c-1.344-2.151-4.211-2.867-6.362-1.523-2.151 1.164-2.867 4.031-1.523 6.271ZM689.488 186.015l23.837-12.812M705.348 183.507c.717-2.419 7.796-9.766 7.796-9.766s1.793 9.945 1.076 12.454c-.717 2.419-3.316 3.852-5.735 3.135-2.509-.806-3.854-3.404-3.137-5.823ZM700.419 174.278c2.419.717 12.366-1.075 12.366-1.075s-7.258-7.078-9.767-7.795c-2.42-.716-5.018.627-5.735 3.136-.717 2.419.717 5.018 3.136 5.734ZM693.61 189.778c.717-2.419 7.796-9.766 7.796-9.766s1.792 9.945 1.075 12.454c-.717 2.419-3.315 3.853-5.735 3.136-2.509-.717-3.943-3.315-3.136-5.824ZM688.682 180.55c2.419.717 12.366-1.075 12.366-1.075s-7.258-7.078-9.767-7.795c-2.42-.717-5.019.627-5.735 3.136-.717 2.419.627 5.017 3.136 5.734ZM681.154 195.333c2.33-1.164 8.334-9.228 8.334-9.228s-10.126-.179-12.456.896c-2.33 1.165-3.226 3.942-2.151 6.182 1.255 2.33 4.033 3.315 6.273 2.15ZM694.059 445.574l-11.112 24.639M682.946 457.222c.896 2.419-.268 12.454-.268 12.454s-7.528-6.81-8.424-9.229c-.896-2.419.269-5.107 2.688-6.003 2.51-.806 5.108.359 6.004 2.778ZM692.534 461.522c-2.419.896-9.229 8.423-9.229 8.423s10.036 1.164 12.455.268c2.42-.896 3.585-3.584 2.689-6.003-.896-2.329-3.585-3.583-5.915-2.688ZM688.503 445.037c.896 2.419-.269 12.454-.269 12.454s-7.527-6.81-8.423-9.229c-.896-2.419.269-5.107 2.688-6.003 2.42-.806 5.108.359 6.004 2.778ZM698.001 449.337c-2.419.896-9.23 8.422-9.23 8.422s10.037 1.165 12.456.269c2.42-.896 3.585-3.584 2.689-6.003-.807-2.329-3.495-3.584-5.915-2.688ZM695.044 433.121c-1.164 2.329-.985 12.453-.985 12.453s8.154-6.002 9.319-8.242c1.165-2.33.179-5.107-2.061-6.182-2.419-1.255-5.197-.359-6.273 1.971ZM338.16 473.588l-11.111 24.639M327.048 485.235c.896 2.419-.269 12.454-.269 12.454s-7.527-6.809-8.423-9.229c-.896-2.419.269-5.107 2.688-6.002 2.509-.807 5.108.358 6.004 2.777ZM336.636 489.536c-2.419.896-9.23 8.422-9.23 8.422s10.037 1.164 12.456.268c2.419-.895 3.584-3.583 2.688-6.002-.896-2.33-3.584-3.584-5.914-2.688ZM332.605 473.05c.896 2.419-.269 12.454-.269 12.454s-7.528-6.81-8.424-9.229c-.896-2.419.269-5.107 2.689-6.003 2.419-.806 5.107.359 6.004 2.778ZM342.103 477.351c-2.42.896-9.23 8.422-9.23 8.422s10.036 1.164 12.456.268c2.419-.896 3.584-3.583 2.688-6.003-.806-2.329-3.495-3.583-5.914-2.687ZM339.146 461.134c-1.165 2.329-.986 12.454-.986 12.454s8.155-6.003 9.32-8.243c1.165-2.33.179-5.107-2.061-6.182-2.42-1.255-5.198-.359-6.273 1.971ZM341.895 116.937l-11.202 24.638M330.782 128.584c.896 2.419-.269 12.454-.269 12.454s-7.527-6.809-8.423-9.228c-.896-2.42.269-5.107 2.688-6.003 2.42-.807 5.108.358 6.004 2.777ZM340.281 132.885c-2.42.896-9.23 8.422-9.23 8.422s10.036 1.165 12.456.269c2.419-.896 3.584-3.584 2.688-6.003-.896-2.33-3.495-3.584-5.914-2.688ZM336.249 116.399c.896 2.419-.269 12.454-.269 12.454s-7.527-6.809-8.423-9.228c-.896-2.42.269-5.107 2.688-6.003 2.509-.807 5.108.358 6.004 2.777ZM345.837 120.7c-2.419.896-9.23 8.422-9.23 8.422s10.037 1.164 12.456.269c2.42-.896 3.585-3.584 2.688-6.003-.896-2.33-3.584-3.584-5.914-2.688ZM342.791 104.483c-1.165 2.329-.986 12.454-.986 12.454s8.154-6.003 9.319-8.243c1.165-2.33.179-5.107-2.061-6.182-2.33-1.254-5.108-.359-6.272 1.971ZM39.55 444.5l16.13 21.771M44.39 459.82c2.508.359 10.752 6.272 10.752 6.272s-9.588 3.225-12.187 2.867c-2.509-.358-4.301-2.688-3.942-5.286.448-2.419 2.777-4.211 5.376-3.853ZM52.723 453.638c-.358 2.509 2.868 12.096 2.868 12.096s5.914-8.243 6.272-10.752c.359-2.508-1.344-4.838-3.943-5.286-2.419-.358-4.749 1.434-5.197 3.942ZM36.414 449.069c2.51.358 10.754 6.271 10.754 6.271s-9.589 3.226-12.187 2.867c-2.51-.358-4.302-2.687-3.943-5.286.448-2.419 2.778-4.211 5.376-3.852ZM44.748 442.887c-.358 2.509 2.868 12.095 2.868 12.095s5.914-8.243 6.273-10.751c.358-2.509-1.344-4.838-3.943-5.286-2.42-.359-4.75 1.433-5.197 3.942ZM29.066 437.601c1.434 2.15 10.395 6.898 10.395 6.898s-1.255-10.034-2.689-12.185c-1.433-2.15-4.301-2.687-6.452-1.164-2.15 1.523-2.688 4.39-1.254 6.451ZM199.503 390.562l-5.019 36.197M189.645 409.915c2.061 2.777 4.391 16.217 4.391 16.217s-12.277-6.003-14.427-8.781c-2.061-2.777-1.524-6.63 1.254-8.78 2.778-1.971 6.721-1.434 8.782 1.344ZM203.534 411.886c-2.778 2.061-8.692 14.335-8.692 14.335s13.441-2.329 16.219-4.39c2.778-2.06 3.316-6.003 1.255-8.78-2.061-2.688-6.004-3.226-8.782-1.165ZM192.155 391.996c2.061 2.777 4.391 16.217 4.391 16.217s-12.277-6.003-14.428-8.781c-2.061-2.777-1.523-6.63 1.255-8.78 2.778-1.971 6.721-1.434 8.782 1.344ZM206.044 393.967c-2.778 2.061-8.692 14.335-8.692 14.335s13.441-2.329 16.219-4.39c2.778-2.06 3.315-6.003 1.254-8.78-2.061-2.688-6.003-3.226-8.781-1.165ZM196.008 374.077c-.628 3.404 3.405 16.485 3.405 16.485s8.244-10.841 8.871-14.245c.627-3.405-1.702-6.63-5.018-7.258a6.219 6.219 0 0 0-7.258 5.018ZM446.108 237.264 441 273.461M436.161 256.617c2.061 2.777 4.39 16.216 4.39 16.216s-12.276-6.002-14.427-8.78c-2.061-2.777-1.523-6.63 1.255-8.78 2.778-1.971 6.721-1.434 8.782 1.344ZM450.139 258.588c-2.777 2.06-8.692 14.335-8.692 14.335s13.442-2.329 16.22-4.39c2.778-2.061 3.315-6.003 1.254-8.781-2.061-2.687-6.004-3.225-8.782-1.164ZM438.67 238.698c2.061 2.777 4.391 16.216 4.391 16.216s-12.276-6.002-14.427-8.78c-2.061-2.777-1.523-6.63 1.255-8.78 2.777-1.971 6.72-1.434 8.781 1.344ZM452.649 240.669c-2.778 2.06-8.692 14.335-8.692 14.335s13.442-2.329 16.219-4.39c2.778-2.061 3.316-6.003 1.255-8.781-2.061-2.598-6.004-3.225-8.782-1.164ZM442.613 220.778c-.627 3.405 3.405 16.486 3.405 16.486s8.244-10.841 8.872-14.246c.627-3.404-1.703-6.63-5.018-7.257-3.406-.627-6.721 1.702-7.259 5.017ZM23.33 96.867c-1.972-3.315-1.345-7.526 1.523-10.035l52.511-46.59c9.857-5.913 22.582-2.687 28.496 7.168 5.914 9.856 2.688 22.668-7.169 28.581l-65.863 24.281c-3.495 1.254-7.527-.09-9.499-3.405ZM77.453 40.243l9.41 15.32M72.166 72.945l6.183 10.393M40.625 72.856l7.348 12.543"/><path stroke="#F5F5F5" stroke-miterlimit="10" stroke-width="1.5" d="M105.502 37.017c1.255 4.928-.806 8.422-.806 8.422s-4.033-4.48-5.287-9.408c-1.255-4.927.806-8.422.806-8.422s4.033 4.48 5.287 9.408Z"/><path stroke="#F5F5F5" stroke-linecap="round" stroke-linejoin="round" stroke-miterlimit="10" stroke-width="1.5" d="M111.865 34.598c-5.915 5.465-6.183 11.916-6.183 11.916s9.229-2.508 15.144-7.974c5.914-5.465 6.183-11.916 6.183-11.916s-9.23 2.509-15.144 7.974Z"/><path stroke="#F5F5F5" stroke-miterlimit="10" stroke-width="1.5" d="M112.941 51.98c-3.047-4.122-6.99-4.749-6.99-4.749s.896 6.003 3.943 10.035c3.047 4.121 6.99 4.748 6.99 4.748s-.986-5.913-3.943-10.035Z"/><path stroke="#F5F5F5" stroke-miterlimit="10" stroke-width="1.5" d="M120.378 49.919c-7.976 1.075-13.173-2.688-13.173-2.688s7.796-5.555 15.771-6.63c7.976-1.075 13.173 2.688 13.173 2.688s-7.796 5.465-15.771 6.63ZM56.307 368.971c1.434-3.405 6.183-3.674 7.976-.359l.09.09c1.254 2.329 2.329 4.659 3.404 6.988 2.151 4.57 4.122 8.87 6.004 12.992 3.764 8.153 7.348 14.962 11.47 19.98 2.061 2.508 4.212 4.748 6.9 6.988 2.689 2.15 5.825 4.301 9.499 6.451 3.674 2.15 7.796 4.301 12.187 6.541 1.075.627 2.24 1.164 3.315 1.702l3.495 1.792.09.089c3.226 1.792 3.046 6.541-.448 7.974h-.09a50.239 50.239 0 0 1-7.886 2.509c-5.376 1.254-11.022 1.792-16.846 1.254-5.825-.448-11.829-2.06-17.564-4.927-5.735-2.867-11.111-7.168-15.233-12.275-4.212-5.107-6.99-10.931-8.782-16.665-1.792-5.734-2.51-11.468-2.42-17.113 0-5.555.807-10.93 2.24-16.216.628-2.599 1.434-5.197 2.6-7.795Z"/><path stroke="#F5F5F5" stroke-miterlimit="10" stroke-width="1.5" d="M121.543 437.243c-5.466 1.075-11.112 1.433-17.116.627-5.914-.717-12.097-2.598-18.1-5.734-6.005-3.136-11.56-7.885-15.951-13.35s-7.528-11.647-9.499-17.65c-1.971-6.093-2.957-12.006-3.136-17.83-.18-5.734.358-11.378 1.613-16.754"/><path stroke="#F5F5F5" stroke-miterlimit="10" stroke-width="1.5" d="M55.143 371.748c.985-3.315 1.702-6.182 2.777-9.408.359-.896.717-1.881 1.613-2.24.717-.268 1.524.09 2.061.538.538.538.897 1.165 1.165 1.881 1.345 2.868 1.882 5.914 3.764 10.931M66.611 368.343c-1.523-2.957 1.165-6.361 4.48-5.644h.09c2.33.537 4.57 1.164 6.81 1.792 4.391 1.254 8.514 2.508 12.367 3.583 7.796 2.24 14.606 3.853 20.341 4.032 2.957.09 5.735-.089 8.872-.537 3.046-.538 6.451-1.434 10.036-2.599 3.584-1.254 7.527-2.777 11.649-4.39 1.075-.358 2.061-.806 3.136-1.254l3.316-1.255s.09 0 .09-.089c3.136-1.165 6.272 1.881 5.197 5.017v.09c-.806 2.419-1.792 4.659-2.957 6.899a49.359 49.359 0 0 1-9.14 12.185c-3.764 3.673-8.424 6.809-13.8 9.049-5.377 2.24-11.47 3.315-17.385 3.046-5.914-.179-11.56-1.702-16.577-3.942a51.249 51.249 0 0 1-13.083-8.422c-3.764-3.315-6.99-7.078-9.768-11.11-1.254-2.061-2.599-4.121-3.674-6.451Z"/><path stroke="#F5F5F5" stroke-miterlimit="10" stroke-width="1.5" d="M151.831 364.401c-2.509 4.39-5.646 8.422-9.678 12.006a47.554 47.554 0 0 1-14.606 8.87 47.74 47.74 0 0 1-18.55 2.956c-6.362-.179-12.366-1.792-17.653-3.942-5.287-2.24-9.946-5.107-13.979-8.422-4.032-3.315-7.527-6.988-10.484-11.02"/><path stroke="#F5F5F5" stroke-miterlimit="10" stroke-width="1.5" d="M67.866 370.762c-1.612-2.598-3.225-4.748-4.749-7.436-.448-.717-.896-1.613-.537-2.419.268-.628.896-.986 1.612-1.076.628-.089 1.345.09 1.972.269 2.778.807 5.197 2.24 9.678 3.853M662.156 218.001c3.495 9.498.717 19.443-6.183 23.385-4.48 6.54-14.606 8.601-23.836 4.39-10.036-4.659-27.51-30.462-27.51-30.462s1.344-.18 3.674-.359c4.929-.448 14.069-1.075 22.402-.806.359-8.333 1.703-17.382 2.509-22.22.359-2.24.628-3.584.628-3.584s24.463 19.353 28.316 29.656Z"/><path stroke="#F5F5F5" stroke-miterlimit="10" stroke-width="1.5" d="M632.317 190.854c.358.358.627.716.985 1.075-.806 4.838-2.15 13.887-2.509 22.22-8.333-.269-17.474.448-22.402.806-.359-.358-.627-.717-.986-.986-10.126-10.93-12.814-24.997-5.914-31.448 6.81-6.361 20.61-2.688 30.826 8.333Z"/><mask id="s" width="37" height="36" x="597" y="179" maskUnits="userSpaceOnUse" style="mask-type:luminance"><path fill="#fff" d="M632.317 190.854c.358.358.627.716.985 1.075-.806 4.838-2.15 13.887-2.509 22.22-8.333-.269-17.474.448-22.402.806-.359-.358-.627-.717-.986-.986-10.126-10.93-12.814-24.997-5.914-31.448 6.81-6.361 20.61-2.688 30.826 8.333Z"/></mask><g stroke="#F5F5F5" stroke-miterlimit="10" stroke-width="1.5" mask="url(#s)"><path d="M607.047 189.152c1.523 1.612 1.433 4.121-.09 5.644-1.613 1.523-4.122 1.523-5.645-.089-1.524-1.613-1.434-4.122.089-5.645 1.524-1.523 4.122-1.523 5.646.09Z"/><path d="M612.601 194.886c1.524 1.613 1.434 4.121-.089 5.644-1.613 1.524-4.122 1.524-5.646-.089-1.523-1.613-1.433-4.122.09-5.645 1.523-1.523 4.122-1.433 5.645.09ZM601.49 183.328c1.523 1.613 1.434 4.121-.09 5.644-1.613 1.524-4.122 1.524-5.645-.089-1.523-1.613-1.434-4.122.09-5.645 1.613-1.523 4.122-1.523 5.645.09ZM623.713 206.533c1.523 1.613 1.433 4.122-.09 5.645-1.613 1.523-4.122 1.523-5.645-.09-1.524-1.613-1.434-4.121.089-5.644 1.524-1.613 4.122-1.524 5.646.089ZM629.269 212.267c1.524 1.613 1.434 4.122-.089 5.645-1.613 1.523-4.122 1.523-5.646-.09-1.523-1.612-1.434-4.121.09-5.644 1.523-1.523 4.122-1.523 5.645.089ZM618.158 200.709c1.523 1.613 1.434 4.122-.09 5.645-1.613 1.523-4.122 1.523-5.645-.09-1.523-1.613-1.434-4.121.09-5.644 1.523-1.523 4.122-1.523 5.645.089ZM601.222 194.706c1.524 1.613 1.434 4.122-.089 5.645-1.613 1.523-4.122 1.523-5.646-.09-1.523-1.612-1.433-4.121.09-5.644 1.613-1.523 4.122-1.523 5.645.089Z"/><path d="M606.777 200.441c1.523 1.612 1.434 4.121-.089 5.644-1.613 1.523-4.123 1.523-5.646-.089-1.523-1.613-1.434-4.122.09-5.645 1.613-1.523 4.122-1.434 5.645.09ZM595.666 188.883c1.523 1.612 1.434 4.121-.09 5.644-1.613 1.523-4.122 1.523-5.645-.089-1.524-1.613-1.434-4.122.089-5.645 1.613-1.523 4.122-1.523 5.646.09ZM617.888 212.088c1.524 1.613 1.434 4.122-.089 5.645-1.613 1.523-4.122 1.523-5.646-.09-1.523-1.612-1.433-4.121.09-5.644 1.613-1.613 4.122-1.523 5.645.089ZM612.334 206.265c1.523 1.612 1.433 4.121-.09 5.644-1.613 1.523-4.122 1.523-5.645-.09-1.524-1.612-1.434-4.121.089-5.644 1.613-1.613 4.122-1.523 5.646.09ZM612.871 183.596c1.523 1.613 1.434 4.122-.09 5.645-1.523 1.523-4.122 1.523-5.645-.09-1.524-1.612-1.434-4.121.089-5.644 1.524-1.523 4.122-1.523 5.646.089ZM618.427 189.42c1.524 1.613 1.434 4.122-.089 5.645-1.613 1.523-4.122 1.523-5.646-.09-1.523-1.613-1.433-4.121.09-5.644 1.523-1.524 4.033-1.524 5.645.089ZM607.314 177.773c1.524 1.613 1.434 4.122-.089 5.645-1.613 1.523-4.122 1.523-5.646-.09-1.523-1.613-1.434-4.121.09-5.645 1.523-1.523 4.122-1.433 5.645.09ZM629.449 200.978c1.523 1.613 1.434 4.121-.09 5.644-1.613 1.524-4.122 1.524-5.645-.089-1.523-1.613-1.434-4.122.09-5.645 1.613-1.612 4.122-1.523 5.645.09ZM635.004 206.712c1.523 1.613 1.433 4.122-.09 5.645-1.613 1.523-4.122 1.523-5.645-.09-1.524-1.613-1.434-4.121.089-5.644 1.613-1.524 4.122-1.524 5.646.089Z"/><path d="M623.892 195.155c1.524 1.612 1.434 4.121-.089 5.644-1.613 1.523-4.122 1.523-5.646-.089-1.523-1.613-1.433-4.122.09-5.645 1.613-1.523 4.122-1.523 5.645.09ZM619.054 177.863c1.524 1.612 1.434 4.121-.089 5.644-1.613 1.523-4.122 1.523-5.646-.089-1.523-1.613-1.433-4.122.09-5.645 1.523-1.523 4.122-1.523 5.645.09ZM624.609 183.686c1.524 1.613 1.434 4.121-.089 5.644-1.613 1.524-4.123 1.524-5.646-.089-1.523-1.613-1.434-4.122.09-5.645 1.523-1.612 4.122-1.523 5.645.09ZM613.498 172.039c1.523 1.612 1.434 4.121-.09 5.644-1.613 1.523-4.122 1.523-5.645-.089-1.524-1.613-1.434-4.122.089-5.645 1.524-1.523 4.122-1.433 5.646.09ZM635.72 195.244c1.524 1.613 1.434 4.121-.089 5.645-1.613 1.523-4.122 1.523-5.646-.09-1.523-1.613-1.433-4.121.09-5.645 1.523-1.612 4.122-1.523 5.645.09Z"/><path d="M641.187 200.978c1.524 1.613 1.434 4.122-.089 5.645-1.613 1.523-4.122 1.523-5.646-.09-1.523-1.612-1.434-4.121.09-5.644 1.613-1.523 4.122-1.523 5.645.089ZM630.166 189.42c1.523 1.613 1.434 4.122-.09 5.645-1.613 1.523-4.122 1.523-5.645-.09-1.524-1.613-1.434-4.121.089-5.644 1.524-1.524 4.033-1.524 5.646.089Z"/></g><path stroke="#F5F5F5" stroke-miterlimit="10" stroke-width="1.5" d="M630.794 213.163c-.269 5.824 0 11.2 1.254 14.515 3.854 10.393 13.711 16.216 22.134 13.17.627-.269 1.165-.448 1.703-.806"/><path stroke="#F5F5F5" stroke-linecap="round" stroke-linejoin="round" stroke-miterlimit="10" stroke-width="1.5" d="M682.589 132.437c0-12.275-9.589-22.579-22.313-24.908v-9.676h-11.201v9.765c-12.725 2.33-22.313 12.634-22.313 24.908 0 10.035 6.362 18.636 15.592 22.757 3.136 4.032 7.527 6.541 12.366 6.541 4.839 0 9.23-2.509 12.366-6.541 9.14-4.211 15.503-12.812 15.503-22.846Z"/><path stroke="#F5F5F5" stroke-linecap="round" stroke-linejoin="round" stroke-miterlimit="10" stroke-width="1.5" d="M642.624 155.552c-4.571-10.662-2.958-23.653 4.122-32.792M666.907 155.194c4.57-10.662 2.957-23.653-4.122-32.792M682.859 77.066c5.493 0 9.946-5.054 9.946-11.289 0-6.234-4.453-11.289-9.946-11.289-5.494 0-9.947 5.055-9.947 11.29 0 6.234 4.453 11.288 9.947 11.288Z"/><path stroke="#F5F5F5" stroke-linecap="round" stroke-linejoin="round" stroke-miterlimit="10" stroke-width="1.5" d="M686.89 74.2c0 1.254-1.523 2.15-3.405 2.15s-3.405-.986-3.405-2.15c0-1.255 1.523-2.15 3.405-2.15s3.405.985 3.405 2.15ZM663.746 67.473c1.709-5.996-1.188-12.078-6.471-13.583-5.283-1.505-10.951 2.135-12.661 8.13-1.709 5.997 1.188 12.078 6.471 13.583 5.283 1.506 10.952-2.134 12.661-8.13Z"/><path stroke="#F5F5F5" stroke-linecap="round" stroke-linejoin="round" stroke-miterlimit="10" stroke-width="1.5" d="M649.167 71.87c-.269 1.075.627 2.33 2.061 2.777 1.433.448 2.957-.09 3.226-1.254.269-1.075-.628-2.33-2.061-2.778-1.524-.358-2.957.18-3.226 1.255Z"/><path stroke="#F5F5F5" stroke-miterlimit="10" stroke-width="1.5" d="M683.127 34.509c-3.853 3.852-10.484 3.404-10.484 3.404s-.269-6.63 3.584-10.393c3.853-3.852 10.484-3.404 10.484-3.404s.269 6.54-3.584 10.393ZM686.712 24.026l-13.98 13.798"/><path stroke="#F5F5F5" stroke-miterlimit="10" stroke-width="1.5" d="M664.579 21.428c7.08 5.644 8.244 16.754 8.244 16.754s-10.394 1.971-17.473-3.673c-7.08-5.645-8.245-16.755-8.245-16.755s10.306-1.97 17.474 3.674ZM647.105 17.754l25.539 20.25M657.23 53.95c1.972-4.031 11.291-13.887 15.324-15.678 2.24 2.419 7.796 13.08 8.871 16.127"/><path stroke="#F5F5F5" stroke-linecap="round" stroke-linejoin="round" stroke-miterlimit="10" stroke-width="1.5" d="M159.257 497.551c4.411 0 7.987-4.058 7.987-9.065 0-5.006-3.576-9.065-7.987-9.065s-7.987 4.059-7.987 9.065c0 5.007 3.576 9.065 7.987 9.065Z"/><path stroke="#F5F5F5" stroke-linecap="round" stroke-linejoin="round" stroke-miterlimit="10" stroke-width="1.5" d="M162.494 495.249c0 1.007-1.223 1.727-2.734 1.727s-2.735-.792-2.735-1.727c0-1.007 1.224-1.727 2.735-1.727s2.734.792 2.734 1.727ZM143.908 489.847c1.373-4.814-.954-9.697-5.196-10.906-4.242-1.209-8.794 1.714-10.166 6.529-1.373 4.814.954 9.698 5.196 10.906 4.242 1.209 8.794-1.714 10.166-6.529Z"/><path stroke="#F5F5F5" stroke-linecap="round" stroke-linejoin="round" stroke-miterlimit="10" stroke-width="1.5" d="M132.2 493.379c-.216.863.504 1.87 1.655 2.23 1.152.36 2.375-.072 2.591-1.007.216-.864-.504-1.871-1.655-2.23-1.224-.288-2.375.143-2.591 1.007Z"/><path stroke="#F5F5F5" stroke-miterlimit="10" stroke-width="1.5" d="M159.471 463.377c-3.094 3.094-8.419 2.734-8.419 2.734s-.216-5.324 2.878-8.345c3.094-3.094 8.419-2.734 8.419-2.734s.216 5.252-2.878 8.345ZM162.35 454.96l-11.225 11.079"/><path stroke="#F5F5F5" stroke-miterlimit="10" stroke-width="1.5" d="M144.574 452.874c5.685 4.532 6.62 13.453 6.62 13.453s-8.347 1.583-14.031-2.949c-5.685-4.533-6.62-13.454-6.62-13.454s8.275-1.583 14.031 2.95ZM130.543 449.924l20.507 16.259M138.676 478.99c1.583-3.238 9.066-11.152 12.304-12.591 1.799 1.943 6.26 10.504 7.124 12.95"/><path stroke="#F5F5F5" stroke-linecap="round" stroke-linejoin="round" stroke-miterlimit="10" stroke-width="1.5" d="M295.119 247.567c5.493 0 9.946-5.054 9.946-11.289 0-6.234-4.453-11.289-9.946-11.289-5.494 0-9.947 5.055-9.947 11.289 0 6.235 4.453 11.289 9.947 11.289Z"/><path stroke="#F5F5F5" stroke-linecap="round" stroke-linejoin="round" stroke-miterlimit="10" stroke-width="1.5" d="M299.15 244.7c0 1.254-1.523 2.15-3.405 2.15s-3.405-.985-3.405-2.15c0-1.254 1.523-2.15 3.405-2.15s3.405.985 3.405 2.15ZM275.968 237.985c1.71-5.996-1.187-12.077-6.47-13.582-5.283-1.506-10.952 2.134-12.661 8.13-1.709 5.996 1.188 12.078 6.471 13.583 5.283 1.506 10.951-2.135 12.66-8.131Z"/><path stroke="#F5F5F5" stroke-linecap="round" stroke-linejoin="round" stroke-miterlimit="10" stroke-width="1.5" d="M261.424 242.46c-.268 1.076.628 2.33 2.062 2.778 1.433.448 2.957-.09 3.225-1.254.269-1.076-.627-2.33-2.061-2.778-1.523-.448-2.957.09-3.226 1.254Z"/><path stroke="#F5F5F5" stroke-miterlimit="10" stroke-width="1.5" d="M295.387 205.01c-3.853 3.852-10.485 3.404-10.485 3.404s-.268-6.63 3.585-10.393c3.853-3.852 10.484-3.404 10.484-3.404s.269 6.63-3.584 10.393ZM298.971 194.617l-13.979 13.708"/><path stroke="#F5F5F5" stroke-miterlimit="10" stroke-width="1.5" d="M276.747 191.929c7.08 5.644 8.244 16.754 8.244 16.754s-10.394 1.971-17.473-3.673c-7.08-5.645-8.245-16.755-8.245-16.755s10.395-1.881 17.474 3.674ZM259.363 188.255l25.539 20.338M269.49 224.452c1.972-4.032 11.291-13.888 15.324-15.68 2.24 2.42 7.796 13.081 8.871 16.128M626.674 314.316c-6.004 2.509-19.983 8.691-30.647 28.582l-6.81-2.868c1.523-4.031 2.778-7.346 2.957-8.153.627-9.049-.09-18.188-2.24-26.968l6.183-1.523c.985 4.032 1.702 8.153 2.061 12.274a61.606 61.606 0 0 1 13.8-17.381l4.211 4.748c-6.004 5.287-10.842 11.827-14.068 19.084 7.527-6.988 16.936-11.558 22.044-13.708l2.509 5.913Z"/><path stroke="#F5F5F5" stroke-miterlimit="10" stroke-width="1.5" d="M588.589 368.701c-1.523 3.494-5.555 5.196-9.05 3.673-3.495-1.523-5.198-5.555-3.674-9.049l12.635-23.653 8.423 3.584-8.334 25.445ZM653.017 406.153c-3.226 7.974-18.28 17.292-26.793 22.13-3.047 1.702-6.99.179-7.976-3.226-2.688-9.407-6.81-26.61-3.494-34.494 4.659-11.289 16.936-16.934 27.51-12.544 10.574 4.211 15.413 16.934 10.753 28.134ZM618.875 384.202l14.875 6.182M652.838 407.048l-9.858-4.031M613.857 398.268l12.635 5.197M642.175 417.711l-9.409-3.853M615.828 416.098l9.678 3.942M654.36 392.803l-9.409-3.853"/><path stroke="#F5F5F5" stroke-miterlimit="10" stroke-width="1.5" d="M649.254 378.915a14.378 14.378 0 0 1-1.344 2.599 16.529 16.529 0 0 0-3.854-2.688 30.647 30.647 0 0 0-1.702-.807c-.359-.179-.717-.268-1.165-.448-1.523-.537-3.047-.806-4.66-.985.18-.806.448-1.702.807-2.598.717-1.792 1.702-3.405 2.778-4.659 2.24-2.688 5.018-3.943 7.258-3.047 2.24.896 3.226 3.763 3.047 7.258 0 1.702-.359 3.494-1.165 5.375Z"/><path stroke="#F5F5F5" stroke-miterlimit="10" stroke-width="1.5" d="M637.515 374.077c-.358.896-.627 1.703-.806 2.599-2.42-.18-4.839.089-7.169.716-.359-.896-.717-1.881-.986-2.956-1.344-5.914.359-11.289 3.764-12.096 2.957-.717 6.362 2.419 8.065 7.078-1.165 1.255-2.151 2.778-2.868 4.659ZM655.437 385.366c-1.075.627-2.061 1.165-3.136 1.613-1.075-2.061-2.599-3.942-4.391-5.465.448-.807.896-1.703 1.344-2.599.717-1.792 1.165-3.673 1.255-5.286 4.48-2.15 9.05-2.061 10.753.538 1.882 2.956-.717 7.974-5.825 11.199ZM244.886 484.964c-3.226 7.974-18.28 17.292-26.793 22.13-3.047 1.703-6.99.179-7.976-3.225-2.688-9.408-6.81-26.61-3.494-34.495 4.659-11.289 16.936-16.933 27.51-12.543 10.574 4.211 15.413 16.934 10.753 28.133ZM210.744 463.013l14.875 6.182M244.707 485.86l-9.857-4.032M205.727 477.08l12.635 5.196M234.044 496.522l-9.409-3.853M207.697 494.909l9.678 3.942M246.229 471.614l-9.409-3.852"/><path stroke="#F5F5F5" stroke-miterlimit="10" stroke-width="1.5" d="M241.123 457.727a14.21 14.21 0 0 1-1.344 2.598 16.544 16.544 0 0 0-3.853-2.688c-.538-.268-1.076-.537-1.703-.806-.358-.179-.717-.269-1.165-.448-1.523-.538-3.047-.806-4.66-.986.18-.806.448-1.702.807-2.598.717-1.792 1.703-3.404 2.778-4.659 2.24-2.688 5.018-3.942 7.258-3.046 2.24.896 3.226 3.763 3.047 7.257 0 1.703-.358 3.494-1.165 5.376Z"/><path stroke="#F5F5F5" stroke-miterlimit="10" stroke-width="1.5" d="M229.384 452.889c-.358.896-.627 1.702-.806 2.598-2.42-.179-4.839.09-7.169.717-.358-.896-.717-1.882-.986-2.957-1.344-5.913.359-11.289 3.764-12.095 2.957-.717 6.362 2.419 8.065 7.078-1.165 1.254-2.151 2.777-2.868 4.659ZM247.306 464.178c-1.075.627-2.061 1.164-3.136 1.612-1.075-2.06-2.599-3.942-4.391-5.465.448-.806.896-1.702 1.344-2.598.717-1.792 1.165-3.674 1.255-5.286 4.48-2.151 9.051-2.061 10.753.537 1.882 2.957-.717 7.974-5.825 11.2ZM404.083 198.2c-3.226 7.974-18.28 17.292-26.793 22.131-3.047 1.702-6.99.179-7.975-3.226-2.689-9.407-6.811-26.61-3.495-34.494 4.66-11.289 16.936-16.934 27.51-12.544 10.574 4.211 15.323 16.844 10.753 28.133ZM369.941 176.249l14.876 6.093M403.814 199.006l-9.767-3.942M364.834 190.226l12.725 5.197M393.241 209.758l-9.409-3.943M366.895 208.145l9.588 3.942M405.427 184.761l-9.409-3.853"/><path stroke="#F5F5F5" stroke-miterlimit="10" stroke-width="1.5" d="M400.32 170.873a14.252 14.252 0 0 1-1.344 2.599c-1.165-1.075-2.419-1.971-3.853-2.688-.538-.269-1.075-.538-1.703-.806-.358-.18-.717-.269-1.165-.448-1.523-.538-3.046-.807-4.659-.986.179-.806.448-1.702.806-2.598.717-1.792 1.703-3.405 2.778-4.659 2.24-2.688 5.018-3.943 7.258-3.047 2.241.896 3.226 3.763 3.047 7.258 0 1.702-.448 3.584-1.165 5.375Z"/><path stroke="#F5F5F5" stroke-miterlimit="10" stroke-width="1.5" d="M388.581 166.035c-.358.896-.627 1.703-.806 2.599-2.419-.18-4.839.089-7.169.716-.358-.896-.717-1.881-.985-2.956-1.345-5.914.358-11.289 3.763-12.096 2.957-.717 6.362 2.419 8.065 7.078-1.165 1.255-2.151 2.867-2.868 4.659ZM406.504 177.414c-1.076.627-2.061 1.165-3.137 1.613-1.075-2.061-2.598-3.942-4.39-5.466.448-.806.896-1.702 1.344-2.598.717-1.792 1.165-3.673 1.254-5.286 4.481-2.15 9.051-2.061 10.753.538 1.882 2.867-.716 7.974-5.824 11.199ZM611.348 107.53c.09-2.42.717-4.659 1.972-6.72l.089-.09c8.065-13.44 6.363-29.298-3.942-35.48-10.216-6.182-25.091-.268-33.246 13.17v.09c-1.254 2.061-3.046 3.763-5.107 5.018-4.302 2.419-8.065 6.182-10.574 10.93-6.273 11.917-2.509 26.879 8.602 34.495 12.904 8.87 30.468 4.928 38.353-8.243a26.348 26.348 0 0 0 3.853-13.17Z"/><path stroke="#F5F5F5" stroke-miterlimit="10" stroke-width="1.5" d="M613.769 108.694a15.892 15.892 0 0 1 2.15-7.526c0-.089.09-.089.09-.179 8.961-14.963 7.079-32.613-4.391-39.422-11.381-6.81-27.958-.269-36.919 14.604v.09c-1.434 2.329-3.316 4.21-5.735 5.555-4.839 2.687-8.961 6.809-11.739 12.095-6.99 13.26-2.778 29.925 9.498 38.437 14.338 9.855 33.873 5.465 42.655-9.139 2.867-4.57 4.211-9.587 4.391-14.515Z"/><path stroke="#F5F5F5" stroke-miterlimit="10" stroke-width="1.5" d="M595.578 110.307c-3.854 6.361-11.381 8.96-16.757 5.734-5.377-3.225-6.631-11.02-2.778-17.471 3.853-6.361 11.38-8.96 16.757-5.734 5.466 3.225 6.631 11.02 2.778 17.471ZM378.184 294.695c.09-2.419.717-4.659 1.972-6.72l.089-.089c8.065-13.44 6.363-29.298-3.942-35.48-10.216-6.182-25.091-.269-33.246 13.17v.09c-1.254 2.061-3.046 3.763-5.107 5.017-4.302 2.419-8.065 6.182-10.574 10.931-6.273 11.916-2.509 26.879 8.602 34.494 12.904 8.87 30.467 4.928 38.353-8.242 2.509-4.211 3.764-8.691 3.853-13.171Z"/><path stroke="#F5F5F5" stroke-miterlimit="10" stroke-width="1.5" d="M380.604 295.86c.09-2.688.807-5.197 2.151-7.526 0-.09.09-.09.09-.179 8.961-14.963 7.079-32.613-4.391-39.423-11.381-6.809-27.958-.268-36.919 14.604v.09c-1.434 2.33-3.316 4.211-5.735 5.555-4.839 2.688-8.961 6.809-11.739 12.095-6.99 13.261-2.778 29.925 9.498 38.437 14.338 9.856 33.873 5.465 42.655-9.139 2.867-4.569 4.211-9.586 4.39-14.514Z"/><path stroke="#F5F5F5" stroke-miterlimit="10" stroke-width="1.5" d="M362.414 297.383c-3.854 6.361-11.381 8.959-16.757 5.734-5.377-3.226-6.632-11.02-2.778-17.471 3.853-6.362 11.38-8.96 16.757-5.734 5.466 3.315 6.631 11.109 2.778 17.471ZM79.517 283.854c-.986-.359-1.524-1.434-1.165-2.419 1.075-3.047 3.584-5.735 6.81-7.168a12.825 12.825 0 0 1 9.947-.448c.985.358 1.523 1.523 1.075 2.509-.358.985-1.523 1.433-2.51 1.075-2.06-.807-4.659-.627-6.899.358-2.33 1.075-4.032 2.867-4.75 5.018-.447.896-1.523 1.433-2.508 1.075ZM88.388 314.496c-.359-1.703-.18-3.494.358-5.197v-.089c3.764-10.931.09-22.131-8.244-24.998-8.334-2.867-18.19 3.674-22.044 14.604v.09c-.627 1.702-1.613 3.226-2.957 4.39-2.778 2.419-4.839 5.645-5.914 9.497-2.688 9.587 2.33 19.801 11.47 23.654 10.663 4.48 22.76-1.075 26.524-11.827 1.165-3.405 1.345-6.809.807-10.124Z"/><path stroke="#F5F5F5" stroke-miterlimit="10" stroke-width="1.5" d="M78.352 268.802c2.15 7.347-.538 14.514-.538 14.514s-6.093-4.659-8.244-12.006c-2.15-7.346.538-14.514.538-14.514s6.183 4.659 8.244 12.006ZM306.914 434.813c10.864-9.072 12.907-24.522 4.564-34.51-8.344-9.989-23.914-10.732-34.777-1.66-10.863 9.071-12.906 24.522-4.563 34.51s23.913 10.731 34.776 1.66Z"/><path stroke="#F5F5F5" stroke-miterlimit="10" stroke-width="1.5" d="M276.566 398.626c8.872-7.347 22.761-5.107 31.005 4.928 8.334 10.034 7.886 24.101-.985 31.448"/><path stroke="#F5F5F5" stroke-miterlimit="10" stroke-width="1.5" d="M276.923 398.357c-8.871 7.347-9.23 21.414-.986 31.449 8.334 10.034 22.224 12.274 31.005 4.927"/><path stroke="#F5F5F5" stroke-miterlimit="10" stroke-width="1.5" d="M276.654 398.626c5.915-4.928 17.474-.717 25.808 9.318s10.215 22.13 4.301 27.058"/><path stroke="#F5F5F5" stroke-miterlimit="10" stroke-width="1.5" d="M276.835 398.447c-5.914 4.928-4.033 17.023 4.301 27.058 8.334 10.034 19.893 14.245 25.808 9.318"/><path stroke="#F5F5F5" stroke-miterlimit="10" stroke-width="1.5" d="M276.654 398.536c3.316-2.777 12.725 3.136 21.059 13.171 8.333 10.035 12.366 20.428 9.05 23.205"/><path stroke="#F5F5F5" stroke-miterlimit="10" stroke-width="1.5" d="M276.834 398.447c-3.316 2.777.716 13.17 9.05 23.205 8.334 10.035 17.743 15.948 21.058 13.171M276.744 398.537l29.84 36.107"/><path stroke="#F5F5F5" stroke-miterlimit="10" stroke-width="1.5" d="M270.383 399.701c2.957-1.433 5.377-.627 5.377-.627s-2.241 3.136-5.198 4.48c-2.957 1.433-5.376.627-5.376.627s2.24-3.046 5.197-4.48ZM268.052 396.028c4.212 2.957 8.244 2.329 8.244 2.329s-2.688-5.465-6.9-8.422c-4.211-2.956-8.244-2.329-8.244-2.329s2.689 5.465 6.9 8.422ZM279.343 391.996c-2.151 2.419-2.061 5.017-2.061 5.017s3.584-1.344 5.735-3.763c2.15-2.419 2.061-5.017 2.061-5.017s-3.585 1.344-5.735 3.763Z"/><path stroke="#F5F5F5" stroke-miterlimit="10" stroke-width="1.5" d="M276.475 388.771c1.703 4.838 0 8.601 0 8.601s-4.481-4.122-6.183-8.96c-1.703-4.838 0-8.601 0-8.601s4.48 4.121 6.183 8.96ZM252.103 162.362l-7.706-4.121.09-.09-3.585-2.061-.089.09-7.438-4.569c6.183-9.946 8.423-22.22 6.362-33.688 1.165-.09 2.42-.359 3.495-.807-2.151 4.928-.358 10.841 4.481 13.619a8.15 8.15 0 0 0 1.254.627 67.425 67.425 0 0 1-1.344 8.512l4.48-7.706c1.793.179 3.674-.179 5.377-.896.717 1.523 1.613 2.957 2.778 4.211l-5.108 8.781c2.42-2.33 5.108-4.48 7.975-6.272.359.269.807.538 1.165.717 4.212 2.419 8.961 2.867 13.263 1.613-10.843 3.852-20.073 11.826-25.45 22.04Z"/><path stroke="#F5F5F5" stroke-miterlimit="10" stroke-width="1.5" d="M296.55 141.128c-2.957 5.107-9.499 6.899-14.696 3.942-2.061-1.165-3.495-2.867-4.391-4.838-4.301 1.254-9.05.806-13.262-1.613-.448-.269-.807-.448-1.165-.717-1.075-.716-1.971-1.612-2.867-2.508-1.165-1.255-2.061-2.688-2.778-4.211-1.703.717-3.495 1.075-5.377.896-1.075-.09-2.061-.359-3.136-.807a8.16 8.16 0 0 1-1.255-.627c-4.839-2.777-6.631-8.691-4.48-13.618-1.165.448-2.33.716-3.495.806a10.902 10.902 0 0 1-5.914-1.434c-5.108-2.956-6.9-9.497-3.943-14.693 2.957-5.107 9.498-6.9 14.696-3.943a12.84 12.84 0 0 1 1.792 1.255c0-.09.09-.09.09-.18 4.659-8.153 15.054-10.93 23.209-6.181a16.452 16.452 0 0 1 7.079 7.974 10.749 10.749 0 0 1 11.649-.628c4.212 2.419 6.183 7.258 5.108 11.827.089.09.269.09.358.179 5.108 2.957 6.9 9.497 3.943 14.694-.538.986-1.255 1.792-1.971 2.509 2.598 3.404 3.046 8.063.806 11.916ZM488.675 307.508c0 8.332-3.853 15.321-8.871 16.933-.717.18-1.434.359-2.151.359-.717 0-1.434-.09-2.151-.359-5.018-1.612-8.871-8.511-8.871-16.933 0-9.497 4.928-17.292 11.022-17.292 6.004 0 11.022 7.705 11.022 17.292Z"/><path stroke="#F5F5F5" stroke-miterlimit="10" stroke-width="1.5" d="M505.343 326.323c-5.108 4.659-11.47 6.361-15.592 4.569-.896-.358-1.613-.896-2.24-1.613-.359-.448-.717-.896-.896-1.433-2.151-4.211.179-11.02 5.735-16.038 6.272-5.644 14.248-6.988 17.832-2.957 3.585 4.032 1.434 11.827-4.839 17.472ZM468.871 328.204a3.958 3.958 0 0 1-.717.985c-.717.807-1.613 1.344-2.688 1.792-4.122 1.524-10.215-.179-15.234-4.748-6.272-5.645-8.423-13.44-4.749-17.471 3.584-4.032 11.56-2.688 17.832 2.956 5.825 5.286 8.065 12.275 5.556 16.486Z"/><path stroke="#F5F5F5" stroke-miterlimit="10" stroke-width="1.5" d="M489.841 330.803c-3.764 5.734-6.004 12.454-6.363 19.263l-3.674-.179v.089h-4.39v-.089l-3.675.179c-.358-6.72-2.509-13.44-6.272-19.084.986-.358 1.971-.986 2.688-1.792.269-.269.538-.627.717-.986a43.593 43.593 0 0 1 6.542 15.948v-19.711c.716.18 1.433.359 2.15.359.717 0 1.523-.09 2.151-.359v19.801a42.571 42.571 0 0 1 6.81-16.396c.269.538.538.986.896 1.434.717.627 1.524 1.164 2.42 1.523ZM477.652 289.768V324.8"/><path stroke="#F5F5F5" stroke-miterlimit="10" stroke-width="1.5" d="M487.51 329.458a65.32 65.32 0 0 1 23.477-19.263M467.796 329.458a65.314 65.314 0 0 0-23.478-19.263M45.553 26.624 62.758 5.75M59.264 18.202c-.27-2.509 3.494-12.006 3.494-12.006s5.467 8.512 5.736 11.11c.268 2.509-1.613 4.838-4.123 5.017-2.598.359-4.838-1.523-5.107-4.12ZM51.2 11.572c2.51-.269 11.112-5.734 11.112-5.734s-9.41-3.763-12.008-3.494c-2.51.269-4.391 2.509-4.122 5.017.269 2.598 2.509 4.48 5.018 4.211ZM50.75 28.595c-.269-2.508 3.495-12.006 3.495-12.006s5.466 8.512 5.735 11.11c.269 2.509-1.613 4.838-4.122 5.018a4.64 4.64 0 0 1-5.108-4.122ZM42.686 21.876c2.51-.269 11.112-5.734 11.112-5.734s-9.41-3.674-12.008-3.494c-2.509.268-4.39 2.508-4.122 5.017.269 2.598 2.51 4.48 5.018 4.21ZM41.342 38.362c1.703-1.882 4.212-11.738 4.212-11.738s-9.41 3.674-11.112 5.555c-1.703 1.882-1.523 4.839.358 6.541 1.972 1.702 4.84 1.523 6.542-.358Z"/><path fill="#F5F5F5" d="m677.121 300.161-.358-.269c-.448-.269-11.201-7.526-12.277-17.83-1.075-10.303 8.065-19.532 8.424-19.89l.358-.269.358.269c.449.269 11.202 7.526 12.277 17.83 1.075 10.303-8.065 19.532-8.423 19.89l-.359.269Zm-11.559-18.278c.896 8.781 9.498 15.411 11.38 16.755 1.613-1.703 8.692-9.946 7.796-18.726-.896-8.78-9.499-15.41-11.38-16.754-1.524 1.792-8.692 10.034-7.796 18.725ZM697.732 307.507c-2.688 1.972-4.928 3.047-5.197 3.136l-.538.269-.179-.538c-.179-.358-3.315-9.497.179-17.65 3.495-8.153 12.367-12.095 12.725-12.275l.538-.268.179.537c.179.359 3.315 9.497-.179 17.651-1.703 4.031-4.839 7.078-7.528 9.138Zm-5.018 1.792c1.972-.985 8.782-4.748 11.65-11.378 2.867-6.63.985-14.156.358-16.307-1.971.986-8.782 4.749-11.649 11.379-2.957 6.72-.986 14.156-.359 16.306ZM665.741 316.198h-.537c-.448 0-10.037.538-16.936-5.107-6.811-5.644-8.155-15.231-8.155-15.679l-.09-.537h.538c.448 0 10.036-.538 16.936 5.107 6.811 5.644 8.155 15.231 8.155 15.679l.089.537Zm-16.757-5.913c5.556 4.569 13.352 4.928 15.503 4.928-.358-2.15-2.151-9.766-7.707-14.335-5.555-4.57-13.351-4.928-15.502-4.928.358 2.15 2.151 9.766 7.706 14.335Z"/><path stroke="#F5F5F5" stroke-miterlimit="10" stroke-width="1.5" d="M720.762 361.355c-29.93-18.009-48.121-53.937-44.984-88.7"/><path stroke="#F5F5F5" stroke-miterlimit="10" stroke-width="1.5" d="M693.161 335.462c-3.674-17.203.179-35.839 10.395-50.174"/><path fill="#F5F5F5" d="M687.069 326.591c-14.875-4.031-28.585-12.633-38.622-24.28l.807-.717c9.946 11.469 23.478 19.891 38.084 23.922l-.269 1.075ZM420.926 460.178l-.358-.268c-.448-.269-11.202-7.527-12.277-17.83-1.075-10.304 8.065-19.532 8.423-19.89l.359-.269.358.269c.448.268 11.201 7.526 12.277 17.829 1.075 10.304-8.065 19.532-8.424 19.891l-.358.268Zm-11.47-18.188c.896 8.781 9.499 15.411 11.38 16.755 1.613-1.703 8.693-9.945 7.796-18.726-.896-8.78-9.498-15.41-11.38-16.754-1.613 1.702-8.692 9.945-7.796 18.725ZM441.537 467.525c-2.688 1.971-4.928 3.046-5.197 3.136l-.538.269-.179-.538c-.179-.358-3.316-9.497.179-17.65 3.495-8.154 12.366-12.096 12.725-12.275l.537-.269.18.538c.179.358 3.315 9.497-.18 17.65-1.702 4.122-4.839 7.168-7.527 9.139Zm-5.018 1.881c1.971-.985 8.782-4.748 11.649-11.378 2.868-6.63.986-14.156.359-16.307-1.972.986-8.782 4.749-11.65 11.379-2.867 6.63-.985 14.156-.358 16.306ZM409.546 476.305h-.538c-.448 0-10.036.538-16.936-5.107-6.81-5.644-8.154-15.231-8.154-15.679l-.09-.537h.538c.448 0 10.036-.538 16.936 5.107 6.81 5.644 8.154 15.231 8.154 15.679l.09.537Zm-16.757-5.913c5.556 4.569 13.352 4.928 15.503 4.928-.359-2.15-2.151-9.766-7.707-14.336-5.556-4.569-13.352-4.927-15.502-4.927.448 2.15 2.15 9.676 7.706 14.335Z"/><path stroke="#F5F5F5" stroke-miterlimit="10" stroke-width="1.5" d="M464.656 521.462c-29.929-18.009-48.12-53.937-44.984-88.7"/><path stroke="#F5F5F5" stroke-miterlimit="10" stroke-width="1.5" d="M437.056 495.479c-3.674-17.202.179-35.838 10.394-50.173"/><path fill="#F5F5F5" d="M430.874 486.609c-14.875-4.032-28.586-12.633-38.622-24.28l.806-.717c9.947 11.468 23.478 19.89 38.085 23.922l-.269 1.075ZM72.885 211.191l.358-.269c.448-.358 10.843-8.063 20.88-5.555 10.125 2.509 15.681 14.157 15.95 14.694l.179.359-.358.268c-.448.359-10.843 8.064-20.88 5.555-10.036-2.508-15.681-14.156-15.95-14.693l-.18-.359Zm21.058-4.838c-8.513-2.15-17.743 3.763-19.624 5.107 1.075 2.061 6.451 11.558 14.964 13.619 8.513 2.15 17.743-3.763 19.625-5.107-1.075-1.972-6.452-11.469-14.965-13.619ZM59.085 228.125c-.986-3.225-1.165-5.734-1.165-5.913v-.538h.538c.448 0 10.036 0 16.577 6.093 6.542 6.092 7.259 15.679 7.259 16.127v.538h-.538c-.448 0-10.036 0-16.578-6.093-3.315-3.046-5.107-6.988-6.093-10.214Zm-.09-5.376c.27 2.151 1.524 9.856 6.81 14.784 5.288 4.928 12.994 5.644 15.234 5.824-.269-2.151-1.523-9.856-6.81-14.784-5.287-5.017-12.993-5.734-15.234-5.824ZM61.594 195.064l.179-.537c.09-.359 2.867-9.677 10.484-14.157 7.617-4.569 17.116-2.508 17.474-2.419l.538.09-.18.538c-.089.358-2.867 9.676-10.484 14.156-7.617 4.569-17.115 2.508-17.474 2.419l-.537-.09Zm11.201-13.887c-6.183 3.673-9.05 10.931-9.767 12.991 2.15.359 9.857 1.255 16.13-2.419 6.182-3.673 9.05-10.931 9.767-12.991-2.24-.359-9.947-1.255-16.13 2.419Z"/><path stroke="#F5F5F5" stroke-miterlimit="10" stroke-width="1.5" d="M.57 231.799c27.063-22.131 66.939-27.238 98.66-12.633"/><path stroke="#F5F5F5" stroke-miterlimit="10" stroke-width="1.5" d="M34.264 214.417c17.384 2.329 33.693 12.185 43.819 26.61"/><path fill="#F5F5F5" d="M44.658 211.639c8.782-12.633 21.507-22.667 35.844-28.312l.359.986c-14.07 5.555-26.615 15.41-35.307 27.864l-.896-.538ZM245.651 40.063l.448.09c.537.09 13.262 2.33 18.37 11.379 5.107 9.049.537 21.144.268 21.682l-.179.448-.448-.09c-.537-.09-13.262-2.33-18.37-11.378-5.108-9.05-.537-21.145-.269-21.683l.18-.448Zm17.922 12.006c-4.302-7.705-14.876-10.303-17.206-10.751-.806 2.24-3.942 12.633.359 20.248 4.301 7.706 14.875 10.304 17.205 10.752.806-2.24 4.032-12.633-.358-20.249ZM223.876 41.676c1.613-2.956 3.316-4.748 3.495-4.927l.358-.448.359.448c.268.268 6.9 7.347 6.989 16.217.09 8.87-6.452 16.037-6.721 16.306l-.358.448-.358-.448c-.269-.269-6.9-7.347-6.99-16.217-.09-4.48 1.523-8.422 3.226-11.379Zm3.853-3.763c-1.434 1.703-6.093 7.885-6.004 15.142.09 7.258 4.839 13.35 6.273 15.052 1.434-1.702 6.094-7.884 6.004-15.141-.09-7.258-4.839-13.35-6.273-15.053ZM249.594 20.711l.537-.269c.359-.179 8.961-4.57 17.564-2.15 8.602 2.42 13.621 10.662 13.8 11.02l.269.538-.538.269c-.358.179-8.961 4.569-17.564 2.15-8.602-2.42-13.62-10.662-13.799-11.02l-.269-.538Zm17.742-1.344c-6.989-1.971-14.158.896-16.219 1.792 1.255 1.792 5.914 8.064 12.814 10.035 6.99 1.97 14.159-.896 16.22-1.792-1.165-1.792-5.825-8.064-12.815-10.035Z"/><path stroke="#F5F5F5" stroke-miterlimit="10" stroke-width="1.5" d="M180.953 1.627c34.679 4.39 65.774 29.835 76.975 62.986"/><path stroke="#F5F5F5" stroke-miterlimit="10" stroke-width="1.5" d="M216.707 14.26c10.305 14.246 14.338 32.881 10.753 50.084"/><path fill="#F5F5F5" d="M225.938 19.905c15.233-2.33 31.273 0 45.163 6.54l-.448.986c-13.711-6.451-29.571-8.78-44.536-6.451l-.179-1.075Z"/></svg>